<?xml version="1.0" encoding="UTF-8"?>
<svg width="187px" height="509px" viewBox="0 0 187 509" version="1.1" xmlns="http://www.w3.org/2000/svg" xmlns:xlink="http://www.w3.org/1999/xlink">
    <!-- Generator: Sketch 55 (78076) - https://sketchapp.com -->
    <title>gradient base</title>
    <desc>Created with Sketch.</desc>
    <defs>
        <linearGradient x1="50%" y1="15.9688344%" x2="50%" y2="100%" id="linearGradient-1">
            <stop stop-color="#FFFFFF" offset="0%"></stop>
            <stop stop-color="#F3F3F5" offset="100%"></stop>
        </linearGradient>
    </defs>
    <g id="gradient-base" stroke="none" stroke-width="1" fill="none" fill-rule="evenodd" opacity="0.556663876">
        <polygon id="Combined-Shape" fill="url(#linearGradient-1)" points="-1.59872116e-14 0.0695177586 8.46683493 9.0800563 19.5215543 0.0695177586 30.5762738 9.0800563 41.6309932 0.0695177586 52.6857126 9.0800563 63.740432 0.0695177586 74.7951514 9.0800563 85.8498709 0.0695177586 96.9045903 9.0800563 107.95931 0.0695177586 119.014029 9.0800563 130.068749 0.0695177586 141.123468 9.0800563 152.178187 0.0695177586 163.232907 9.0800563 174.287626 0.0695177586 185.342346 9.0800563 196.397065 0.0695177586 207.451784 9.0800563 218.506504 0.0695177586 229.561223 9.0800563 240.615943 0.0695177586 251.670662 9.0800563 262.725382 0.0695177586 273.780101 9.0800563 284.83482 0.0695177586 295.88954 9.0800563 306.944259 0.0695177586 317.998979 9.0800563 329.053698 0.0695177586 340.108417 9.0800563 351.163137 0.0695177586 362.217856 9.0800563 374.387306 0 375 509 -6.82121026e-13 509"></polygon>
    </g>
</svg>