<?xml version="1.0" encoding="UTF-8"?>
<svg width="124px" height="124px" viewBox="0 0 124 124" version="1.1" xmlns="http://www.w3.org/2000/svg" xmlns:xlink="http://www.w3.org/1999/xlink">
    <!-- Generator: Sketch 55 (78076) - https://sketchapp.com -->
    <title>Group 2</title>
    <desc>Created with Sketch.</desc>
    <g id="Web-2" stroke="none" stroke-width="1" fill="none" fill-rule="evenodd">
        <g id="Last-edit" transform="translate(-288.000000, -2455.000000)">
            <g id="Group-35" transform="translate(197.000000, 2455.000000)">
                <g id="Group-2" transform="translate(91.000000, 0.000000)">
                    <g id="Group">
                        <path d="M62,120.285714 C29.8096889,120.285714 3.71428571,94.1903111 3.71428571,62 C3.71428571,29.8096889 29.8096889,3.71428571 62,3.71428571 C94.1903111,3.71428571 120.285714,29.8096889 120.285714,62 C120.285714,94.1903111 94.1903111,120.285714 62,120.285714 Z" id="Oval" fill="#FFFFFF" fill-rule="nonzero"></path>
                        <path d="M62,123.714286 C96.0838588,123.714286 123.714286,96.0838588 123.714286,62 C123.714286,27.9161412 96.0838588,0.285714286 62,0.285714286 C27.9161412,0.285714286 0.285714286,27.9161412 0.285714286,62 C0.285714286,96.0838588 27.9161412,123.714286 62,123.714286 Z M62,120.285714 C29.8096889,120.285714 3.71428571,94.1903111 3.71428571,62 C3.71428571,29.8096889 29.8096889,3.71428571 62,3.71428571 C94.1903111,3.71428571 120.285714,29.8096889 120.285714,62 C120.285714,94.1903111 94.1903111,120.285714 62,120.285714 Z" id="Oval" fill="#4046C1" fill-rule="nonzero"></path>
                        <path d="M49.8062035,29.4285714 L74.0704501,29.4285714 C74.9783154,29.4285714 75.7142857,30.1645417 75.7142857,31.072407 L75.7142857,88.60259 C75.7142857,89.5104553 74.9783154,90.2464256 74.0704501,90.2464256 L46.725813,90.2464256 L46.725813,90.2464256 C46.4982948,90.2464256 46.3138548,90.0619856 46.3138548,89.8344674 C46.3138548,89.8076303 46.3164772,89.7808574 46.3216847,89.7545304 C46.9680573,86.486729 47.407628,84.2594511 47.6403951,83.0726966 C47.8846607,81.8273175 48.0156104,79.8482525 48.0332443,77.1355016 L48.0332443,72.9920344 L48.1623679,51.3374195 L48.1623679,31.072407 C48.1623679,30.1645417 48.8983382,29.4285714 49.8062035,29.4285714 Z" id="Rectangle" fill-opacity="0.0979567308" fill="#4046C1"></path>
                        <path d="M54.5369208,54.3225752 L62.6165745,54.3225752 C62.4350264,53.1806389 61.9993109,52.2965593 61.2731185,51.6703362 C60.3290683,50.8599298 58.9856123,50.4915633 57.2064408,50.4915633 L54.5369208,50.4915633 C53.8655581,50.4915633 53.3213112,49.9473164 53.3213112,49.2759538 L53.3213112,49.2759538 C53.3213112,48.6045912 53.8655581,48.0603443 54.5369208,48.0603443 L70.1878935,48.0603443 C70.8592561,48.0603443 71.403503,48.6045912 71.403503,49.2759538 L71.403503,49.2759538 C71.403503,49.9473164 70.8592561,50.4915633 70.1878935,50.4915633 L64.0977023,50.4915633 C64.8602044,51.5229896 65.3322295,52.8122724 65.477468,54.3225752 L70.1878935,54.3225752 C70.8592561,54.3225752 71.403503,54.8668221 71.403503,55.5381847 L71.403503,55.5381847 C71.403503,56.2095473 70.8592561,56.7537942 70.1878935,56.7537942 L65.4048487,56.7537942 C65.186991,58.0062404 64.6423466,59.11134 63.843535,59.9954197 C62.6816271,61.1741925 61.1566229,61.9845989 59.232213,62.4266387 C59.5226899,62.6476586 60.256449,63.3107184 61.0552607,64.3421446 L67.0298146,72.828695 C67.3391379,73.2680731 67.2337077,73.8750155 66.7943296,74.1843388 C66.6303741,74.299764 66.4347606,74.3617141 66.2342502,74.3617141 L66.2342502,74.3617141 C65.0542649,74.3617141 63.9433863,73.8052169 63.2368337,72.8601514 L57.860014,65.6682641 C57.27906,64.8578578 56.6617965,64.2684713 56.0082233,63.8264315 C55.2820308,63.3107184 54.1201229,63.0528618 53.3213112,63.0528618 L53.3213112,62.7938957 C53.3213112,61.3500617 54.49177,60.1796029 55.935604,60.1796029 L55.935604,60.1796029 C58.2231102,60.1796029 59.9296624,59.7743997 61.0552607,58.9639934 C61.8177628,58.4114436 62.3260975,57.6747105 62.5439552,56.7537942 L54.5369208,56.7537942 C53.8655581,56.7537942 53.3213112,56.2095473 53.3213112,55.5381847 L53.3213112,55.5381847 C53.3213112,54.8668221 53.8655581,54.3225752 54.5369208,54.3225752 Z" id="₹" fill="#4046C1" fill-rule="nonzero"></path>
                        <path d="M84.4217168,36.526 C84.4217168,34.5287023 84.4217168,31.5327558 84.4217168,27.5381605 C84.4217168,24.3217233 81.8142793,21.7142857 78.597842,21.7142857 L46.0202922,21.7142857 C42.803855,21.7142857 40.1964175,24.3217233 40.1964175,27.5381605 L40.1964175,41.0988597 C40.1964175,42.0456336 40.9639293,42.8131454 41.9107032,42.8131454 C42.8574771,42.8131454 43.6249889,42.0456336 43.6249889,41.0988597 L43.6249889,27.5381605 C43.6249889,26.215271 44.6974027,25.1428571 46.0202922,25.1428571 L78.597842,25.1428571 C79.9207315,25.1428571 80.9931454,26.215271 80.9931454,27.5381605 C80.9931454,33.0822101 80.9931454,37.2402473 80.9931454,40.0122722 M80.9931454,88.2895794 C80.9931454,89.1926029 80.9931454,90.5680686 80.9931454,92.4159765 C80.9931454,93.738866 79.9207315,94.8112799 78.597842,94.8112799 L47.9606138,94.8112799 C51.1946671,85.7980614 50.3117058,78.0253996 45.2394839,71.6982396 L45.2394839,71.6982396 C48.1665892,56.6564507 47.5606773,48.4415555 42.3997907,46.9052992 C42.3894799,46.9010039 42.3279988,46.881664 42.2662263,46.8632901 C38.9974957,45.8910214 35.5594865,47.7526715 34.5872178,51.0214021 L29.9590444,66.581146 C28.6848052,70.86509 28.2286592,75.3506719 28.6144495,79.803427 L28.8433045,82.4448488 C29.0074838,84.3397911 28.3340618,86.2116598 27.0003089,87.5677071 L15.3492403,99.4135297 C14.6853418,100.088526 14.6943381,101.173914 15.369334,101.837813 C16.0443299,102.501711 17.1297183,102.492715 17.7936168,101.817719 L29.4446854,89.9718963 C31.4814272,87.9011092 32.5097937,85.0426239 32.2590794,82.1489033 L32.0302244,79.5074814 C31.6815894,75.4835698 32.0938042,71.4299927 33.2453218,67.558634 L37.8734953,51.9988901 C38.3059123,50.5451204 39.8349687,49.7171505 41.2887384,50.1495675 C41.3162117,50.1577393 41.3435555,50.1663408 41.3707595,50.1753686 C43.9788658,50.9525963 44.4369584,58.2178112 41.7187917,71.8307623 L41.5549954,72.6510763 L42.1008041,73.2849825 C47.1951685,79.2016146 47.8181302,86.6270461 43.8676851,95.8506396 L42.8443909,98.2398513 L78.597842,98.2398513 C81.8142793,98.2398513 84.4217168,95.6324137 84.4217168,92.4159765 C84.4217168,90.252407 84.4217168,88.643201 84.4217168,87.5883585" id="Path-6" fill="#4046C1" fill-rule="nonzero"></path>
                        <path d="M43.4251912,119.751568 L50.7593583,110.462627 C52.4439656,108.329022 54.9396867,106.991709 57.6491808,106.770769 L62.8659608,106.345377 C68.2219424,105.908635 72.7710401,102.251971 74.3489543,97.1150978 L71.0715207,96.1083552 C69.9056786,99.9037347 66.5445774,102.605461 62.5873099,102.928148 L57.3705298,103.35354 C53.712388,103.651835 50.3428652,105.457368 48.0684434,108.337991 L40.7342763,117.626932 L43.4251912,119.751568 Z" id="Path-7" fill="#4046C1" fill-rule="nonzero"></path>
                        <path d="M79.7386916,38.6263427 L89.6017053,38.6263427 C92.8181426,38.6263427 95.4255801,41.2337802 95.4255801,44.4502174 C95.4255801,47.6666547 92.8181426,50.2740922 89.6017053,50.2740922 L79.7386916,50.2740922 C76.5222544,50.2740922 73.9148169,47.6666547 73.9148169,44.4502174 C73.9148169,41.2337802 76.5222544,38.6263427 79.7386916,38.6263427 Z M79.7386916,42.0549141 C78.4158021,42.0549141 77.3433883,43.1273279 77.3433883,44.4502174 C77.3433883,45.7731069 78.4158021,46.8455208 79.7386916,46.8455208 L89.6017053,46.8455208 C90.9245948,46.8455208 91.9970087,45.7731069 91.9970087,44.4502174 C91.9970087,43.1273279 90.9245948,42.0549141 89.6017053,42.0549141 L79.7386916,42.0549141 Z" id="Rectangle" fill="#4046C1" fill-rule="nonzero" transform="translate(84.670198, 44.450217) rotate(-47.000000) translate(-84.670198, -44.450217) "></path>
                        <path d="M78.7476498,51.6714975 L88.6106635,51.6714975 C91.8271007,51.6714975 94.4345382,54.2789351 94.4345382,57.4953723 C94.4345382,60.7118095 91.8271007,63.319247 88.6106635,63.319247 L78.7476498,63.319247 C75.5312126,63.319247 72.923775,60.7118095 72.923775,57.4953723 C72.923775,54.2789351 75.5312126,51.6714975 78.7476498,51.6714975 Z M78.7476498,55.100069 C77.4247603,55.100069 76.3523464,56.1724828 76.3523464,57.4953723 C76.3523464,58.8182618 77.4247603,59.8906756 78.7476498,59.8906756 L88.6106635,59.8906756 C89.933553,59.8906756 91.0059668,58.8182618 91.0059668,57.4953723 C91.0059668,56.1724828 89.933553,55.100069 88.6106635,55.100069 L78.7476498,55.100069 Z" id="Rectangle-Copy-5" fill="#4046C1" fill-rule="nonzero" transform="translate(83.679157, 57.495372) rotate(-47.000000) translate(-83.679157, -57.495372) "></path>
                        <path d="M79.7669616,62.6232429 L89.6299753,62.6232429 C92.8464125,62.6232429 95.4538501,65.2306804 95.4538501,68.4471177 C95.4538501,71.6635549 92.8464125,74.2709924 89.6299753,74.2709924 L79.7669616,74.2709924 C76.5505244,74.2709924 73.9430868,71.6635549 73.9430868,68.4471177 C73.9430868,65.2306804 76.5505244,62.6232429 79.7669616,62.6232429 Z M79.7669616,66.0518143 C78.4440721,66.0518143 77.3716583,67.1242282 77.3716583,68.4471177 C77.3716583,69.7700072 78.4440721,70.842421 79.7669616,70.842421 L89.6299753,70.842421 C90.9528648,70.842421 92.0252786,69.7700072 92.0252786,68.4471177 C92.0252786,67.1242282 90.9528648,66.0518143 89.6299753,66.0518143 L79.7669616,66.0518143 Z" id="Rectangle-Copy-10" fill="#4046C1" fill-rule="nonzero" transform="translate(84.698468, 68.447118) rotate(-47.000000) translate(-84.698468, -68.447118) "></path>
                        <path d="M81.3391593,74.6414689 L87.9145018,74.6414689 C91.130939,74.6414689 93.7383765,77.2489065 93.7383765,80.4653437 C93.7383765,83.6817809 91.130939,86.2892184 87.9145018,86.2892184 L81.3391593,86.2892184 C78.1227221,86.2892184 75.5152846,83.6817809 75.5152846,80.4653437 C75.5152846,77.2489065 78.1227221,74.6414689 81.3391593,74.6414689 Z M81.3391593,78.0700404 C80.0162698,78.0700404 78.943856,79.1424542 78.943856,80.4653437 C78.943856,81.7882332 80.0162698,82.860647 81.3391593,82.860647 L87.9145018,82.860647 C89.2373913,82.860647 90.3098051,81.7882332 90.3098051,80.4653437 C90.3098051,79.1424542 89.2373913,78.0700404 87.9145018,78.0700404 L81.3391593,78.0700404 Z" id="Rectangle-Copy-13" fill="#4046C1" fill-rule="nonzero" transform="translate(84.626831, 80.465344) rotate(-47.000000) translate(-84.626831, -80.465344) "></path>
                    </g>
                </g>
            </g>
        </g>
    </g>
</svg>