<?xml version="1.0" encoding="UTF-8"?>
<svg width="298px" height="255px" viewBox="0 0 298 255" version="1.1" xmlns="http://www.w3.org/2000/svg" xmlns:xlink="http://www.w3.org/1999/xlink">
    <!-- Generator: Sketch 55.2 (78181) - https://sketchapp.com -->
    <title>Group 3</title>
    <desc>Created with Sketch.</desc>
    <defs>
        <filter x="-11.1%" y="-13.1%" width="122.1%" height="126.2%" filterUnits="objectBoundingBox" id="filter-1">
            <feOffset dx="5" dy="7" in="SourceAlpha" result="shadowOffsetOuter1"></feOffset>
            <feGaussianBlur stdDeviation="4.5" in="shadowOffsetOuter1" result="shadowBlurOuter1"></feGaussianBlur>
            <feColorMatrix values="0 0 0 0 0   0 0 0 0 0   0 0 0 0 0  0 0 0 0.314712631 0" type="matrix" in="shadowBlurOuter1" result="shadowMatrixOuter1"></feColorMatrix>
            <feMerge>
                <feMergeNode in="shadowMatrixOuter1"></feMergeNode>
                <feMergeNode in="SourceGraphic"></feMergeNode>
            </feMerge>
        </filter>
        <rect id="path-2" x="0" y="0" width="30" height="30"></rect>
        <rect id="path-4" x="0" y="0" width="30" height="30"></rect>
        <rect id="path-6" x="0" y="0" width="30" height="30"></rect>
        <path d="M21.5,3 L21.5,7.46590909 C18.3219398,7.94744291 16.1637373,10.5085233 13.9166667,13.2613636 C10.8824872,16.7514207 7.84830783,20.4545455 2,20.4545455 L2,22.6363636 C8.82584608,22.6363636 12.6175128,18.149148 15.5416667,14.6590909 C17.5009768,12.3110793 19.3079433,10.2187505 21.5,9.68181818 L21.5,13.9090909 L28,8.45454545 L21.5,3 Z M2,7.36363636 L2,9.54545455 C6.22330783,9.54545455 8.92740858,11.4076702 11.3098958,13.8068182 C11.741537,13.2613636 12.3001307,12.7159091 12.7317708,12.1704545 C10.1334641,9.55397782 6.875,7.36363636 2,7.36363636 Z M21.5,16.0909091 L21.5,20.3181818 C19.5364583,19.8707389 17.941081,18.2428975 16.2864583,16.2954545 C15.8548183,16.8409091 15.3300787,17.3863636 14.8984375,17.9318182 C16.8154294,20.1519884 18.8085938,22.1122156 21.5,22.5340909 L21.5,27 L28,21.5454545 L21.5,16.0909091 Z" id="path-8"></path>
        <path d="M18.016391,13.9096051 C12.2344692,21.518055 6.80393116,21.447218 4.23562878,20.6305889 C3.79269432,20.4897515 -0.662219699,18.9794551 0.36728335,13.4775732 C2.12051542,5.97408327 8.86877432,0.384231691 16.9260812,0.384231691 C26.3160949,0.384231691 33.928205,7.97617429 33.928205,17.3413101 C33.928205,26.7064459 26.3160949,34.2983885 16.9260812,34.2983885 C11.7284285,34.2983885 7.07551705,31.9722531 3.95682202,28.3068361 C4.88016506,28.7073128 6.08402996,28.9333147 7.70154162,28.7840665 C13.8664642,27.9391694 16.4308739,22.1413866 20.4012754,16.6051646 C20.5780437,16.3721202 20.7482383,16.1391214 20.9117177,15.9062002 L24.1413967,24.7039441 L25.1540252,22.6802505 C25.3894625,22.2097395 25.4469019,21.6682614 25.3156203,21.1569026 L23.3079864,13.3369106 C23.212115,12.9634792 23.2675091,12.5673832 23.4619123,12.2362612 L26.8135659,6.52747612 C27.0387556,6.14391624 26.9369369,5.6494085 26.5786064,5.3863379 C26.214979,5.11937853 25.7135294,5.15997121 25.3986407,5.48185693 L20.7099681,10.2747149 C20.460267,10.5299645 20.1251886,10.6821537 19.7697796,10.7017389 L11.6384407,11.1498248 C11.1390623,11.1773435 10.6653364,11.3794964 10.298599,11.721575 L8.60709925,13.299341 L18.016391,13.9096051 Z" id="path-10"></path>
    </defs>
    <g id="Page-1" stroke="none" stroke-width="1" fill="none" fill-rule="evenodd">
        <g id="First-time-user" transform="translate(-802.000000, -1690.000000)">
            <g id="Group-3" filter="url(#filter-1)" transform="translate(806.000000, 1692.000000)">
                <g id="Group-4">
                    <rect id="Rectangle-6" fill="#3970DF" x="4.54747351e-13" y="0" width="280" height="237" rx="15"></rect>
                    <g id="Group-36" transform="translate(31.000000, 135.000000)">
                        <g id="Group-3">
                            <mask id="mask-3" fill="white">
                                <use xlink:href="#path-2"></use>
                            </mask>
                            <g id="Mask"></g>
                            <g mask="url(#mask-3)" id="Group-2-Copy">
                                <g transform="translate(6.885389, 2.563953)">
                                    <g>
                                        <path d="M0.622829667,7.10542736e-15 L2.33789033,7.10542736e-15 C2.3350832,0.026467864 2.33356231,0.0530633564 2.33333333,0.0796872 L2.33333333,6.4 C2.32936644,6.68850873 2.47673634,6.95686509 2.71901222,7.10231018 C2.96128809,7.24775526 3.26093413,7.24775526 3.50321001,7.10231018 C3.74548588,6.95686509 3.89285578,6.68850873 3.88888889,6.4 L3.88888889,0.0796872 C3.88916469,0.0530893712 3.88815077,0.0264939422 3.88585089,7.10542736e-15 L4.51171856,7.10542736e-15 L5.44900144,7.10542736e-15 C5.44619431,0.026467864 5.44467342,0.0530633564 5.44444444,0.0796872 L5.44444444,6.4 C5.44047755,6.68850873 5.58784745,6.95686509 5.83012333,7.10231018 C6.0723992,7.24775526 6.37204524,7.24775526 6.61432112,7.10231018 C6.85659699,6.95686509 7.00396689,6.68850873 7,6.4 L7,0.0796872 C7.0002758,0.0530893712 6.99926188,0.0264939422 6.996962,7.10542736e-15 L8.63302922,7.10542736e-15 C8.63302922,7.10542736e-15 9.33333333,3.76 9.33333333,6.4 C9.33333333,10.96 5.98828144,10.24 5.98828144,12 C5.98828144,13.76 7,15.36 7,19.2 C7,23.04 5.67777778,24 4.66666667,24 C3.65555556,24 2.33333333,23.28 2.33333333,19.2 C2.33333333,15.12 3.34505189,13.76 3.34505189,12 C3.34505189,10.24 3.55271368e-15,10.88 3.55271368e-15,6.4 C3.55271368e-15,2.4 0.622829667,7.10542736e-15 0.622829667,7.10542736e-15 Z M12,7.10542736e-15 C15.4,2 16,5.5996872 16,7.6796872 C16,11.1996872 14,12.88 14,15.2 C14,16.56 14.6666667,17.6 14.6666667,20 C14.6666667,22.4 14.3333333,24 13.3333333,24 C12.3333333,24 12,23.04 12,19.2 L12,7.10542736e-15 Z" id="Combined-Shape" fill="#FFFFFF"></path>
                                    </g>
                                </g>
                            </g>
                        </g>
                        <g id="Group-12" transform="translate(44.359998, 3.119993)" fill="#FFFFFF" font-family="SFUIText-Medium, SF UI Text" font-size="16.7792844" font-weight="400" letter-spacing="-0.234909981">
                            <text id="Complimentary-meals">
                                <tspan x="0" y="16">Complimentary meals</tspan>
                            </text>
                        </g>
                    </g>
                    <g id="Shape" transform="translate(31.000000, 177.000000)">
                        <mask id="mask-5" fill="white">
                            <use xlink:href="#path-4"></use>
                        </mask>
                        <g id="Mask"></g>
                        <path d="M22.1476965,3 C20.0964282,3 18.4060117,4.53464661 18.2986152,6.45652174 C18.2578045,6.56657635 18.2578045,6.68885896 18.2986152,6.79891304 L18.2986152,9.26086957 C18.2986152,11.2724186 20.0276946,12.9130435 22.1476965,12.9130435 C24.2676985,12.9130435 25.9967779,11.2724186 25.9967779,9.26086957 L25.9967779,6.75 C26.001074,6.7173913 26.001074,6.68478261 25.9967779,6.65217391 C25.9967779,6.6297553 25.9967779,6.60937513 25.9967779,6.58695652 C25.9989257,6.56453791 25.9989257,6.54415774 25.9967779,6.52173913 C25.9237487,4.57133165 24.2204439,3 22.1476965,3 Z M6.14995216,3.53804348 C5.88575726,3.5176633 5.62585849,3.54823357 5.35951581,3.63586957 C4.34139969,3.96807078 3.77005141,5.02581548 4.08794429,6 L8.40097741,19.2065217 C8.89929598,20.7350546 10.3921039,21.7826087 12.0782248,21.7826087 L20.2231559,21.7826087 C21.2799349,21.7826087 22.1476965,20.9592391 22.1476965,19.9565217 C22.1476965,18.9538043 21.2799349,18.1304348 20.2231559,18.1304348 L12.6624603,18.1304348 C12.419745,18.1304348 12.2006564,17.9755435 12.129775,17.7554348 L7.91984224,4.875 C7.67068296,4.112772 6.94253629,3.59714661 6.14995216,3.53804348 Z M22.1476965,4.04347826 C23.4815578,4.04347826 24.589887,4.93817948 24.8454902,6.13043478 L19.4499029,6.13043478 C19.7055061,4.93817948 20.8138353,4.04347826 22.1476965,4.04347826 Z M11.2877884,13.4347826 L12.1469584,16.0434783 L17.7487464,16.0434783 C18.0516037,16.0434783 18.2986152,15.8111416 18.2986152,15.5217391 L18.2986152,15.1141304 C18.2986152,14.1847826 17.5081788,13.4347826 16.5287251,13.4347826 L11.2877884,13.4347826 Z M10.7379197,22.3043478 L9.56944854,25.4347826 C9.43627747,25.7934783 9.50930664,26.201087 9.74128253,26.5108696 C9.97325841,26.8206522 10.353441,27 10.7551031,27 L20.3606231,27 C20.7622851,27 21.1252843,26.8206522 21.3572602,26.5108696 C21.5892361,26.201087 21.6601175,25.7934783 21.5290942,25.4347826 L20.3606231,22.3043478 L19.1921519,22.3043478 L20.4809069,25.7771739 C20.500238,25.8301633 20.4830546,25.8831522 20.4637235,25.9076087 C20.4443923,25.9320652 20.4035816,25.9565217 20.3434397,25.9565217 L10.7551031,25.9565217 C10.6949612,25.9565217 10.6541505,25.9320652 10.6348193,25.9076087 C10.6154881,25.8831522 10.5983047,25.8301633 10.6176359,25.7771739 L11.8892074,22.3043478 L10.7379197,22.3043478 Z" fill="#FFFFFF" fill-rule="nonzero" mask="url(#mask-5)"></path>
                    </g>
                    <g id="Group-34" transform="translate(31.000000, 93.000000)">
                        <g id="Shape">
                            <g>
                                <mask id="mask-7" fill="white">
                                    <use xlink:href="#path-6"></use>
                                </mask>
                                <g id="Mask"></g>
                                <mask id="mask-9" fill="white">
                                    <use xlink:href="#path-8"></use>
                                </mask>
                                <use fill="#FFFFFF" fill-rule="nonzero" xlink:href="#path-8"></use>
                            </g>
                        </g>
                        <g id="Group-13" transform="translate(44.000000, 5.000000)" fill="#FFFFFF" font-family="SFUIText-Medium, SF UI Text" font-size="16.7792844" font-weight="400" letter-spacing="-0.234909981">
                            <text id="Free-amendments">
                                <tspan x="0" y="16">Free amendments</tspan>
                            </text>
                        </g>
                    </g>
                    <g id="Group-11" transform="translate(76.000000, 182.000000)" fill="#FFFFFF" font-family="SFUIText-Medium, SF UI Text" font-size="16.7792844" font-weight="400" letter-spacing="-0.234909981">
                        <text id="Low-Cancellation-Fee">
                            <tspan x="0" y="16">Low Cancellation Fee</tspan>
                        </text>
                    </g>
                    <g id="Group-32" transform="translate(30.200000, 28.900000)">
                        <g id="Group-7-Copy-2" transform="translate(186.000000, 1.000000)">
                            <circle id="circle" fill="#FFFFFF" cx="16.7792844" cy="16.7792844" r="16.7792844"></circle>
                            <path d="M23.6074295,9.9959994 L22.749545,10.8721162 C22.4350266,11.1933409 20.2442185,13.4927506 17.9970166,15.8497708 C16.1011751,17.8382697 14.6740634,19.329147 14.0112701,20.0210689 L9.76739891,16.7181393 L8.80322783,15.9660836 L7.33039956,17.9431695 L8.29457064,18.6952575 L13.3963263,22.6649758 L14.239027,23.3239986 L14.9906249,22.5564288 C15.3051433,22.2352289 17.4959514,19.9357944 19.7431533,17.5787742 C21.9903551,15.2217614 24.2939509,12.8071306 24.465314,12.6321405 L25.3231985,11.7559988 L23.6074295,9.9959994 Z" id="Shape" fill="#3366CC" fill-rule="nonzero"></path>
                        </g>
                        <g id="Group-5-Copy" transform="translate(45.000000, -0.000001)" fill="#FFFFFF">
                            <g id="Group-6">
                                <g id="Group-9">
                                    <text id="WORK+-FARE" font-family="SFUIText-Regular, SF UI Text" font-size="11.9679993" font-weight="normal" letter-spacing="-0.382975978">
                                        <tspan x="1.85" y="11">WORK+ FARE</tspan>
                                    </text>
                                    <text id="₹4,530" font-family="SFUIText-Semibold, SF UI Text" font-size="23.2151986" font-weight="500" letter-spacing="-0.524390405">
                                        <tspan x="0.943433329" y="34">₹4,530</tspan>
                                    </text>
                                </g>
                            </g>
                        </g>
                        <g id="Combined-Shape" transform="translate(0.339999, -0.000001)">
                            <mask id="mask-11" fill="white">
                                <use xlink:href="#path-10"></use>
                            </mask>
                            <use id="Mask" fill="#FFFFFF" xlink:href="#path-10"></use>
                            <path d="M4.64005618,25.5295264 C7.67898524,29.9834308 12.8170024,32.9259937 18.6838582,32.9259937 C28.0976441,32.9259937 35.6499014,25.3991353 35.6499014,16.1596788 C35.6499014,11.6853533 33.9878661,7.60506221 31.2044455,4.5864494 C33.4761054,7.48340401 34.8134609,11.1541009 34.8134609,15.1220218 C34.8134609,24.3614783 27.1820796,31.8515377 17.7682938,31.8515377 C12.4203586,31.8515377 7.710693,29.3684397 4.64005618,25.5295264 Z" fill="#E9E8E7" opacity="0.663667225" mask="url(#mask-11)" transform="translate(20.144979, 18.756222) rotate(683.000000) translate(-20.144979, -18.756222) "></path>
                        </g>
                    </g>
                </g>
            </g>
        </g>
    </g>
</svg>