<?xml version="1.0" encoding="UTF-8"?>
<svg width="783px" height="551px" viewBox="0 0 783 551" version="1.1" xmlns="http://www.w3.org/2000/svg" xmlns:xlink="http://www.w3.org/1999/xlink">
    <!-- Generator: Sketch 55.2 (78181) - https://sketchapp.com -->
    <title>Combined Shape</title>
    <desc>Created with Sketch.</desc>
    <defs>
        <linearGradient x1="19.0748629%" y1="90.8293032%" x2="-37.1518209%" y2="65.9541449%" id="linearGradient-1">
            <stop stop-color="#EFEFF4" offset="0%"></stop>
            <stop stop-color="#FFFFFF" offset="100%"></stop>
        </linearGradient>
        <filter x="0.0%" y="-0.0%" width="100.0%" height="100.0%" filterUnits="objectBoundingBox" id="filter-2">
            <feGaussianBlur stdDeviation="0" in="SourceGraphic"></feGaussianBlur>
        </filter>
    </defs>
    <g id="Page-1" stroke="none" stroke-width="1" fill="none" fill-rule="evenodd" opacity="0.986979167">
        <g id="First-time-user" transform="translate(0.000000, -866.000000)" fill="url(#linearGradient-1)">
            <path d="M424.524137,1332.11009 C291.179075,1440.67114 133.285188,1482.49553 -49.1575255,1457.58327 L-28.8259345,1451.27755 C-35.7284512,1452.67791 -42.7160097,1454.09175 -49.78861,1455.51908 L-191.533939,991.891004 L-78.1407078,957.223215 C-0.924314154,1124.76754 127.788033,1208.48344 307.996332,1208.37092 C370.203295,1205.72824 455.641563,1180.72194 542.47926,1067.54295 L542.553597,1067.59373 C542.599341,1067.52403 542.645439,1067.45436 542.691892,1067.38473 L349.701658,1058.28763 L383.793953,1025.46156 C391.185571,1018.34448 400.818981,1014.04667 411.040183,1013.30606 L577.471198,1001.24673 C584.745657,1000.71964 591.556333,997.491786 596.581116,992.189779 L690.932157,892.633263 C697.268721,885.947101 707.527697,884.938754 715.072648,890.26051 C722.507692,895.504746 724.769936,905.567126 720.293057,913.480708 L653.660595,1031.26397 C649.795766,1038.09566 648.802042,1046.20452 650.899289,1053.79641 L694.817555,1212.7776 C697.689424,1223.17357 696.705607,1234.25214 692.04977,1243.9451 L672.02476,1285.63504 L602.721409,1107.1234 C601.790903,1108.49516 600.799363,1109.7446 599.754829,1110.87715 C537.562801,1194.27811 493.301977,1282.61879 424.524167,1332.11007 Z" id="Combined-Shape" filter="url(#filter-2)" transform="translate(265.525328, 1175.706411) rotate(17.000000) translate(-265.525328, -1175.706411) "></path>
        </g>
    </g>
</svg>