<?xml version="1.0" encoding="UTF-8"?>
<svg width="144px" height="144px" viewBox="0 0 144 144" version="1.1" xmlns="http://www.w3.org/2000/svg" xmlns:xlink="http://www.w3.org/1999/xlink">
    <!-- Generator: Sketch 55.2 (78181) - https://sketchapp.com -->
    <title>Group 38</title>
    <desc>Created with Sketch.</desc>
    <g id="Page-1" stroke="none" stroke-width="1" fill="none" fill-rule="evenodd">
        <g id="First-time-user" transform="translate(-649.000000, -2428.000000)">
            <g id="Group-38" transform="translate(651.000000, 2430.000000)">
                <g id="Group-22">
                    <path d="M36,125.30657 L36,47.578101 C36,44.8166772 38.2385763,42.578101 41,42.578101 L99,42.578101 C101.761424,42.578101 104,44.8166772 104,47.578101 L104,125.30657 L104,132.686448 L87.6815383,138.293503 L76.1281772,140.201058 L57.3587473,138.293503 L45.1531785,135.425653 L36,131.305388 L36,125.30657 Z" id="Path-9" fill-opacity="0.0979567308" fill="#4046C1"></path>
                    <circle id="Oval" stroke="#4046C1" stroke-width="4" fill="#FFFFFF" cx="70" cy="70" r="70"></circle>
                    <path d="M30,126.48726 L30,46.0225503 C30,40.4997028 34.4771525,36.0225503 40,36.0225503 L99.7171044,36.0225503 C105.239952,36.0225503 109.717104,40.4997028 109.717104,46.0225503 L109.717104,126.48726" id="Path-9" stroke="#4046C1" stroke-width="4" stroke-linecap="round"></path>
                    <path d="M42.4699161,44.6145299 L96.2949124,44.6145299 C98.5040514,44.6145299 100.294912,46.4053909 100.294912,48.6145299 L100.294912,121.580189 C100.294892,122.315495 99.8744705,122.986063 99.2126153,123.306409 C89.0031436,128.247917 79.0989385,130.718671 69.5,130.718671 C59.5622275,130.718671 49.2188662,128.070408 38.4699161,122.77388 L38.4699161,48.6145299 C38.4699161,46.4053909 40.2607771,44.6145299 42.4699161,44.6145299 Z" id="Rectangle" fill-opacity="0.0979567308" fill="#4046C1"></path>
                    <path d="M55,35.0225503 C55,37.2441435 56.8009571,39.0451006 59.0225503,39.0451006 L81.8611035,39.0451006 C84.0826967,39.0451006 85.8836538,37.2441435 85.8836538,35.0225503 C85.8836538,32.8009571 84.0826967,31 81.8611035,31 L75.9012611,31 L64.9220756,31 L59.0225503,31 C56.8009571,31 55,32.8009571 55,35.0225503 Z" id="Path-10" stroke="#4046C1" stroke-width="4" fill="#FFFFFF" stroke-linecap="round"></path>
                </g>
                <g id="Group-43" transform="translate(52.000000, 60.000000)" stroke="#4046C1" stroke-linecap="round" stroke-width="4">
                    <g id="Group-39" transform="translate(0.000000, 29.000000)">
                        <circle id="Oval" cx="17.5" cy="17.5" r="17.5"></circle>
                        <polyline id="Path-11" points="8.40998555 17.7293991 13.7816721 23.1010856 25.7798423 11.1029154"></polyline>
                    </g>
                    <path d="M0,0.5 L36,0.5" id="Path-4"></path>
                    <path d="M0,16.5 L36,16.5" id="Path-4-Copy"></path>
                </g>
            </g>
        </g>
    </g>
</svg>