<svg xmlns="http://www.w3.org/2000/svg" xmlns:xlink="http://www.w3.org/1999/xlink" width="178" height="255">
    <defs>
        <linearGradient x1="61.5331013%" y1="50%" x2="40.2019994%" y2="-32.5492263%" id="A">
            <stop stop-color="#efeff4" offset="0%"/>
            <stop stop-color="#fff" offset="100%"/>
        </linearGradient>
        <filter x="0%" y="0%" width="100%" height="100%" id="B">
            <feGaussianBlur in="SourceGraphic"/>
        </filter>
        <filter x="-4%" y="-3%" width="107%" height="108.3%" id="C">
            <feMorphology radius="0.288749993" operator="dilate" in="SourceAlpha"/>
            <feOffset dx="-1" dy="2"/>
            <feGaussianBlur stdDeviation="2"/>
            <feComposite in2="SourceAlpha" operator="out"/>
            <feColorMatrix values="0 0 0 0 0.845886784 0 0 0 0 0.845886784 0 0 0 0 0.862686821 0 0 0 1 0"/>
        </filter>
        <path d="M91.6234 10.4695c-.7407-.1922-1.4665-.2963-2.1667-.3157L.818 141.6432l37.9415 9.8207c4.39 1.1387 8.8618-1.4832 9.9882-5.854-1.1264 4.3708 1.519 8.8373 5.9076 9.975l111.8715 29.129c4.3885 1.138 8.86-1.4823 9.9874-5.853L210.01 48.904c1.1272-4.3716-1.5184-8.8372-5.9077-9.975l-112.48-28.4593z" id="D"/>
        <path id="E" d="M0 .0985v11.6002h11.4995V.0985H0z"/>
        <path d="M.3314 22.5653l127.509 32.499 4.1654-16.1613c1.1264-4.3684-1.516-8.8315-5.9003-9.9727L15.288.525.3314 22.5653z" id="F"/>
    </defs>
    <svg width="176" height="253" stroke="initial" fill="initial" fill-rule="initial" transform="translate(1 1)">
        <g transform="translate(-114 -13)" stroke="none" fill="none" fill-rule="evenodd">
            <path d="M117.502 252.685l8.998.315c69.864 0 126.5-56.636 126.5-126.5S196.364 0 126.5 0c-3.0934 0-6.16.11-9.1988.3293" filter="url(#B)" transform="translate(.5959 13)" fill="url(#A)"/>
            <g transform="matrix(.82903757 -.5591929 .5591929 .82903757 38.13613617 119.82076521)">
                <use fill="#000" filter="url(#C)" xlink:href="#D"/>
                <g stroke-width=".5775">
                    <use stroke="#ececec" fill="#fff" xlink:href="#D"/>
                    <path d="M48.7558 143.893L80.1834 23.2574" stroke="#d4d4db" stroke-dasharray="3.464999917745587,3.464999917745587"/>
                </g>
                <g transform="matrix(.97029573 .2419219 -.2419219 .97029573 159.64644126 161.42643486)">
                    <mask id="G" fill="#fff">
                        <use xlink:href="#E"/>
                    </mask>
                    <path d="M11.4995 10.2564c0 .7965-.4953 1.4423-1.1057 1.4423H1.1056c-.6104 0-1.1057-.6458-1.1057-1.4423V1.5407c0-.7965.4953-1.4422 1.1057-1.4422h9.2882c.6104 0 1.1057.6457 1.1057 1.4422v8.7157z" fill="#f26822" mask="url(#G)"/>
                    <path fill="#fff" mask="url(#G)" d="M1.6047 6.2663l1.0492-1.681 1.4693 2.5212 4.7225-3.991 1.049 1.7853-5.9813 3.7804z"/>
                </g>
                <g opacity=".3792" fill="#1a1919">
                    <path d="M17.0442 120.7342c-.1334.192-.2925.3436-.4768.453s-.3927.1735-.623.1945-.4808-.0024-.7482-.072c-.245-.0632-.386-.113-.5703-.237l.307-.455c.1204.086.265.1515.4323.1945s.3305.06.4783.0437.2804-.0632.3984-.1394.2222-.184.3103-.32.1575-.3047.2093-.505l.703-2.7272.0266-.0454.0558-.0203.097.0033.1447.0284.1374.0445.084.0438.0396.0454.0024.0518-.7022 2.7248c-.0695.2715-.1713.5033-.3054.6946zm3.96-1.4282c.0445-.1742.0436-.3322-.0024-.474s-.156-.26-.3257-.3614l-.1842-.0843c-.07-.026-.1648-.0543-.282-.0843l-.4978-.1297-.387 1.5034.577.15c.156.0406.2958.056.4186.0487s.23-.0365.324-.086a.633.633 0 0 0 .2295-.1962.872.872 0 0 0 .1301-.2861zm.0824 3.365l-.0226.0453-.0533.0236-.1018-.004-.1665-.0365-.1446-.0445-.0857-.0454-.042-.0576-.0154-.077-.1373-1.158-.0647-.368c-.0258-.1134-.0654-.2164-.117-.3063s-.122-.1686-.207-.2342-.1972-.115-.333-.1508l-.395-.102-.4897 1.8997-.0275.0446-.0566.0203-.0945-.0025-.1454-.0283-.1406-.0462-.0857-.0438-.0396-.0454-.0016-.052 1.065-4.13c.0234-.09.0622-.1458.1188-.1693l.1632-.0154.9454.2455.278.08.1963.0713c.164.0737.304.1613.4194.26s.2053.2083.27.33a1.018 1.018 0 0 1 .113.3923c.0112.1386-.0024.286-.0412.44s-.0945.278-.164.3858-.156.1978-.2546.2683a1.196 1.196 0 0 1-.333.166c-.122.0388-.2545.065-.3975.077l.168.175a1.078 1.078 0 0 1 .1204.2204c.034.0827.0623.1735.085.2756l.06.3387.1462 1.087.0162.1896-.0057.08zm3.3712.7093l-.0348.107-.0444.0713-.05.035h-.054l-2.135-.5536-.1357-.0924c-.038-.0478-.0453-.1167-.022-.2058l1.0254-3.9786c.0235-.0907.0623-.1467.1196-.1702l.1633-.0145 2.1106.547.046.0268.0243.0543.0032.0834-.02.1175-.0364.1062-.0428.0697-.0477.035-.0525.0008-1.7397-.4506-.3612 1.3996 1.4925.3866.046.0284.0267.0527.0024.0818-.0226.115-.0348.1054-.0404.0672-.0485.0284h-.0525l-1.4916-.3866-.412 1.5966 1.763.457.047.0267.0283.0535.004.082-.0226.1175m-10.6455 4.7314l.0946-.4677c.0218-.1548.0266-.2942.0153-.42s-.0428-.2326-.093-.3217-.1253-.1435-.227-.1702l-.1583-.008-.177.0648c-.063.035-.1325.0835-.2052.145s-.1584.1418-.2497.2407l-.3192 1.2384c.06.2188.1252.3898.198.5154s.1624.2026.2682.2302a.358.358 0 0 0 .278-.0373c.088-.052.168-.128.2416-.2302s.1374-.222.194-.36a3.355 3.355 0 0 0 .1398-.4214zm.4218.0397c-.0695.27-.152.5057-.2472.7s-.202.3728-.3192.505-.2432.222-.3766.2723a.682.682 0 0 1-.4226.0202l-.1802-.0786-.1446-.1378c-.0444-.0583-.0848-.128-.1228-.21a2.673 2.673 0 0 1-.1132-.287l-.0977.38-.02.0446-.0404.025-.0582.0057-.0824-.0146-.0792-.0275-.0493-.0333-.0202-.0405.0048-.0494 1.188-4.6067.02-.047.0396-.026.0654-.0057.0962.0187.0953.0316.0542.0364.02.0414-.0025.0518-.4783 1.8584a2.109 2.109 0 0 1 .244-.1912c.076-.0512.147-.086.214-.11l.1932-.0437.1874.0186c.1544.0405.274.12.362.2367s.1447.2625.1738.43.0347.3574.0137.568a4.321 4.321 0 0 1-.118.6533z"/>
                    <path d="M16.3872 128.757c.043-.1678.0736-.33.0897-.484s.0162-.295-.0048-.4214-.064-.2318-.13-.3185-.164-.1475-.3-.1807c-.1164-.03-.2238-.026-.3232.013s-.2.1046-.2707.1994-.1568.214-.2214.3566-.1196.3023-.1657.48c-.0444.1702-.0743.333-.0913.488s-.0153.295.0073.42.0662.2302.1333.3185.164.1475.2893.18c.1155.03.2214.026.3208-.012s.1915-.1038.273-.1986.1552-.2115.22-.3558.1188-.303.1656-.4822zm.4146.068c-.0655.252-.1487.478-.25.68s-.2166.3672-.3467.4968-.2747.2213-.434.2724-.3272.0534-.5074.0064-.3176-.1232-.4283-.2334-.2-.2472-.24-.414-.0687-.3615-.0582-.5787.05-.458.118-.7205c.0647-.2512.147-.48.2473-.6808s.215-.3655.345-.496.2747-.2204.4323-.2707.3265-.05.5083-.0048c.1745.0454.3175.1232.4274.2326s.1915.248.2408.4157.0695.36.06.578-.0477.457-.1147.718zm1.747.6354l-.3338-.0868c-.1066-.0275-.2036-.038-.2892-.0324s-.1617.0284-.227.0657l-.1624.1572c-.0437.0665-.0776.1467-.1.2407-.042.1613-.0404.2983.0056.41s.1317.188.2578.2205c.1026.0267.2077.013.315-.0406s.2287-.145.3653-.2763l.1697-.66zm.0226 1.5188l-.0348.0567-.0606.0178-.0994-.0154-.0953-.0356-.046-.0454v-.0657l.08-.3104c-.13.1208-.2634.206-.3983.257s-.2675.06-.3944.0268c-.1123-.0284-.2084-.077-.2876-.1435a.646.646 0 0 1-.1843-.2431c-.0436-.0973-.0678-.21-.0727-.3355s.0113-.2642.05-.4142c.0453-.1742.11-.32.1907-.436s.1802-.2042.2933-.2658.2416-.0965.3847-.1046.298.01.4638.052l.294.0762.0622-.2415c.0307-.1192.0485-.227.0558-.3234s-.0024-.1807-.025-.2513l-.1155-.1774c-.0533-.0462-.1253-.082-.214-.1054-.097-.0243-.1875-.03-.2716-.017a1.285 1.285 0 0 0-.231.0575l-.172.0738-.0994.0267-.03-.022-.0137-.0478.0024-.0745.0202-.0965.0437-.1337.0646-.0843.1374-.0762c.0622-.0267.13-.0478.2076-.064a1.169 1.169 0 0 1 .2433-.0243c.0864-.0017.1705.008.253.03.152.0397.2763.0988.37.1774s.1624.1743.2036.2894.0574.2488.05.4012-.0347.3258-.0848.5187l-.5398 2.0934zm2.7102-2.395l-.0356.1272-.0315.0778-.03.0397-.034.008-.0412-.0267-.0542-.0478-.0687-.0487-.09-.038-.1244.005-.1487.082c-.0557.043-.118.1013-.1858.1766l-.2344.282-.526 2.0407-.0218.0438-.0388.025-.0638.0057-.0994-.018-.092-.0316-.0558-.0364-.0218-.0414.0032-.0478.8-3.104.0186-.0438.037-.0284.0598-.0056.0897.017.084.0275.0484.035.0178.0413-.004.0495-.1156.4506c.0905-.1086.1713-.1962.2424-.2602l.1932-.1475.16-.0575.143.0097.068.0235.0775.0397.0687.05.0388.047.0105.038-.0016.0413-.013.0713-.0307.1273"/>
                    <path d="M22.905 129.7708c-.0557-.219-.1204-.3915-.194-.5163s-.1616-.2018-.27-.2294a.352.352 0 0 0-.2796.0373c-.0873.051-.1672.1273-.24.2286s-.1357.2204-.1923.3582-.1042.2796-.1422.427a4.825 4.825 0 0 0-.0937.4652c-.02.1532-.0267.2934-.0154.4198s.0404.2334.0913.3226.1253.1443.2287.17l.1576.0073.1745-.0648c.063-.0357.1317-.0835.207-.1467s.1575-.1427.2488-.239l.3192-1.2408zm-.169 2.2846l-.02.0454-.0363.0252-.0582.0056-.0824-.0137-.0808-.0284-.05-.0332-.022-.0414.0025-.0494.1058-.411c-.1575.1475-.3095.2553-.4557.3225s-.29.0835-.434.0462c-.1568-.0405-.2788-.12-.366-.2366s-.1462-.2594-.176-.428-.034-.3583-.0138-.5706.0606-.4303.1188-.6548c.0687-.2667.1503-.5025.2457-.7076s.2004-.372.316-.504.2424-.2245.3782-.2755.2787-.0584.4274-.0203c.1253.0324.2287.1013.311.2075s.1552.2496.2166.4303l.4646-1.8032.0202-.0454.0412-.026.0655-.0048.0953.0162.0946.0332.055.0365.0234.042-.0016.0503-1.1838 4.5928z"/>
                </g>
                <g transform="translate(80.0781 .9566)">
                    <use fill="#36c" xlink:href="#F"/>
                    <use fill="#2654b1" xlink:href="#F"/>
                    <path fill="#fff4d6" d="M100.637 48.1596l24.9832-19.2768-6.4434-1.7834L93.58 46.32z"/>
                    <path fill="#feda74" d="M89.0804 45.1773l25.3973-19.1658-7.3196-1.8935-25.5837 19.0924z"/>
                    <path fill="#ffbd00" d="M77.3197 42.1766l25.6233-19.227-7.6262-1.88-25.5914 19.1065z"/>
                </g>
                <path d="M116.556 18.3498c-.1232-.0703-.282-.137-.512-.201-1.1863-.3304-2.4668.7498-2.805 1.9726-.156.5623-.074 1.0825.485 1.2382.5936.1652 1.526-.3827 2.1564-1.6784l.6754-1.3313zm-1.755 4.2938l.4336-1.184-.033-.0095c-.802.8444-1.599.99-2.28.8016-.9546-.2655-1.3742-1.189-1.0765-2.2682.5055-1.8296 2.3194-3.4255 4.8134-2.7327.5832.1618 1.1786.446 1.5486.6917l-1.324 2.646c-.3762.762-.7407 1.7395-.896 2.3853l-1.1862-.3304zm5.55-5.8017c.1285-.463.568-.6848.9854-.569.3957.11.602.4767.4896.884-.1423.47-.5766.6708-1.0045.5516-.3956-.11-.5905-.4732-.4705-.8666zm-3.105 6.4815l2.4947-5.085 1.2852.3572-2.506 5.0823-1.274-.3546zm2.7337.7602l1.54-3.132c.3527-.72.644-1.5176.8444-1.9842l1.109.3087-.4346 1.1013.0338.0087c.563-.6257 1.29-.993 2.027-.788.0884.0242.1847.0632.269.0987l-.6 1.185a1.565 1.565 0 0 0-.2361-.0892c-.9112-.2533-1.749.51-2.2745 1.5985l-1.004 2.047-1.274-.3546zm3.8098 1.0595l3.6562-7.409 1.274.3546-3.645 7.4115-1.2852-.3572zm5.8387-5.722c.1277-.463.567-.6848.9846-.569.3957.11.6027.4766.4896.884-.1415.47-.5766.6708-1.0053.5515-.3948-.11-.5905-.4732-.469-.8666zm-3.1058 6.4815l2.4938-5.086 1.286.358-2.506 5.0823-1.274-.3546zm2.7337.7602l1.7155-3.51.735-1.588 1.1316.3148-.3785.9393.0217.006c.6956-.59 1.4778-.7637 2.224-.557.7584.21 1.2348.84.9544 1.8558-.0672.242-.215.604-.3456.8653l-1.4546 2.9528-1.2748-.3538 1.4087-2.8717c.0873-.1897.184-.411.242-.6207.1224-.4413.0482-.817-.4568-.958-.5816-.1618-1.5237.3358-2.102 1.5277l-1.1458 2.35-1.2747-.3538zm10.2667-2.0223c-.8026-.223-1.528.3462-1.861.9532 1.3122.3885 2.2.4374 2.387-.2023.0975-.3526-.12-.6384-.526-.751zm.053 4.5588c-.6035.128-1.3582.0736-2.0056-.107-1.483-.4117-1.948-1.514-1.5855-2.825.4484-1.6198 2.122-3.053 3.9687-2.54 1.0544.2932 1.5528 1.097 1.306 1.9893-.3805 1.377-1.941 1.4178-3.9943.7992-.0743.18-.13.557-.0673.8004.1075.4218.441.7154.946.8563.604.1678 1.1305.1478 1.571.0565l-.14.9703zm1.4394-.56c.2328.231.7018.586 1.1852.721.5198.133.909-.0798 1.0064-.4323.095-.3413-.0242-.5995-.4743-1.0215-.5264-.4907-.838-1.0757-.668-1.6928.2863-1.0358 1.3873-1.5126 2.6516-1.1615.5598.1557.9852.416 1.1868.627l-.585.8336c-.1668-.165-.4933-.3977-.9325-.5197-.484-.135-.8864.038-.9865.4018-.0828.297.1015.5733.4872.93.4943.4812.9002 1.0695.7113 1.7528-.326 1.1786-1.494 1.5538-2.78 1.1957-.6258-.1738-1.1596-.5122-1.3874-.8l.585-.8344zm-38.8325-15.8585l.6344.2282.38-.2892c.1008-.0777.2443-.0605.3202.038l.0395.0517c.076.0978.0548.24-.0467.317l-.118.0898 1.2223.4398c2.5035-1.858 3.6108-2.3834 3.797-2.1414s-.6143 1.168-3.073 3.0836l.106 1.2896.118-.0897c.1007-.0777.245-.0605.32.038l.0395.0518c.075.0986.054.241-.0477.3177l-.3808.2903.055.6688.047-.0358c.1008-.0777.2444-.0606.3194.0372l.0403.0517c.076.0986.054.241-.0476.3178l-.3095.2358.19 2.3122-.484.3676-1.6038-4.6145-3.2384 2.2085-.13 1.8612-.276.2-.4748-1.5793c-.3446.1684-.5612.2294-.614.1604s.063-.26.3165-.5477l-1.4062-.8704.276-.2 1.838.3645c.7187-.677 1.765-1.5655 2.9907-2.5307l-4.0535-2.7503.4833-.3685 2.192.7887.3093-.235c.1024-.0776.246-.0605.32.038l.0403.0518c.075.0977.054.24-.0476.317l-.0467.0357z" fill="#fffffe"/>
                <g fill="#1a1919">
                    <path d="M86.5192 45.338l-.0476.1-.0712.0567-.0856.0203-.085-.01-.1745-.0454-.14-.0543-.1-.0916-.08-.15c-.0234-.06-.0452-.1362-.0662-.2262l-.6247-2.5683-.096-.4166-.0832-.4182-.0065-.0016-.1067.453-.1147.457-.6174 2.394-.0234.0373-.05.0195-.0865-.0025-.1284-.025-.1253-.0405-.0743-.04-.034-.0413-.0024-.0446.943-3.66c.02-.082.06-.1338.1156-.1565l.164-.013.2586.0672.1494.0543.097.0795.0695.1223.0558.1832.4775 1.9808.0857.354.0767.3388.07.3282.0703.3234.0025.0008.122-.5057.1285-.505.555-2.1518.0226-.0364.0525-.02.085.0008.1325.0284.1204.0372.076.0414.034.043.0024.043-.943 3.66m2.851-.451l-.4307-.112c-.14-.0356-.2618-.055-.3693-.0575s-.202.0097-.2804.038-.143.0705-.1915.1272-.0824.1265-.1042.2c-.0372.1427-.02.27.0477.377s.1842.1832.3482.226c.1326.034.2635.0324.3944-.0057s.2755-.1102.4355-.2172l.1503-.586zm.177 1.4l-.0388.0486-.0736.0106-.1284-.0235-.1245-.0422-.0614-.0454-.0073-.0607.0712-.2756c-.1536.0973-.3136.163-.4792.196a1.095 1.095 0 0 1-.497-.0145c-.1454-.0373-.2707-.1-.378-.16s-.1932-.1483-.257-.2415a.755.755 0 0 1-.1244-.3129c-.0194-.1167-.0113-.2407.0226-.3736.0404-.1556.1067-.282.1988-.38s.2085-.1694.3458-.2147.2974-.064.4784-.0576.3773.0373.5915.0932l.38.098.0558-.214c.0267-.107.0396-.2034.0388-.29s-.02-.1654-.0558-.2318l-.1632-.1735c-.072-.0478-.1665-.0875-.282-.1175-.1252-.0324-.24-.0462-.3467-.042s-.2012.0146-.2844.0308l-.2117.0494-.1236.0162-.0388-.0235-.0234-.0454-.0033-.068.0154-.086.042-.1183.0735-.0705c.034-.0194.0905-.038.1665-.0567s.1624-.0308.2578-.038a2.161 2.161 0 0 1 .3062.0008 1.717 1.717 0 0 1 .3216.0527c.1972.05.3604.1175.4873.1985s.2222.176.2852.2845.097.2326.1026.372-.013.2942-.0574.466l-.48 1.86zm5.0066 1.295l-.0234.038-.046.0187-.0816-.0017-.1236-.025-.1245-.04-.0727-.038-.033-.0397-.0024-.0446.4323-1.6768c.03-.1167.046-.2253.0517-.3266s-.008-.193-.034-.274-.07-.15-.13-.2042-.1373-.094-.2303-.1183c-.1163-.03-.2448-.0154-.3846.0446s-.3038.158-.488.295l-.497 1.928-.0234.038-.0485.0187-.0832-.0025-.1237-.025-.1196-.0373-.0735-.04-.0323-.0397v-.0445l.4323-1.676c.03-.1167.0452-.2253.0477-.3274s-.0097-.1937-.0372-.2747-.0695-.1492-.1285-.2035-.135-.094-.2278-.1183c-.1172-.03-.2457-.0154-.3863.0438s-.3038.158-.4872.2958l-.497 1.928-.0234.038-.047.0186-.0808-.0016-.127-.026-.1204-.038-.0735-.04-.0323-.04v-.0445l.71-2.758.0202-.04.0444-.022h.0744l.1147.025.1107.0333.0638.0364.0267.0397v.0446l-.0937.364c.1996-.133.3822-.2212.5494-.2642s.3233-.0454.4727-.0065c.114.0292.2126.07.2974.1192s.1527.1086.2.1742a.792.792 0 0 1 .1333.2172c.0323.0794.0534.1637.0655.2545.117-.077.2262-.1386.3264-.1872s.194-.0835.2812-.1062.1697-.0357.2473-.0365.1535.01.2262.0284c.177.0454.3176.115.4226.21a.833.833 0 0 1 .227.325c.0476.1232.0687.2593.0646.4076s-.0266.3-.067.4555l-.4493 1.744m3.1846-.9318c.0743-.2642.0695-.488-.0162-.67s-.2488-.307-.493-.3695c-.1252-.0333-.2408-.038-.3482-.0154a.735.735 0 0 0-.2845.1256c-.084.0608-.156.1394-.2173.2326a1.168 1.168 0 0 0-.1414.3088l1.5005.4zm.4687.2812c-.0202.0802-.055.132-.1043.1548l-.1486.0154-1.8125-.47c-.0388.154-.06.296-.0606.4263s.0226.25.0727.355.1245.1986.227.2756.236.136.4024.18c.13.034.2513.0535.3588.0583s.2028.004.2836-.0024l.2036-.0243.1172-.005.0355.02.0178.04-.0016.0632-.0194.0948-.02.068-.02.0503-.026.0373-.0363.0283-.114.0292c-.0614.0113-.1398.0178-.2335.0203s-.2012-.0033-.32-.0138-.2464-.0324-.3765-.0657c-.2255-.06-.417-.1418-.5697-.2496s-.2723-.2383-.357-.393-.1318-.334-.1415-.5373.0162-.4287.08-.6792c.0615-.2366.147-.4417.257-.6143s.2384-.3112.388-.4133.3143-.167.4953-.1953.3725-.0162.5745.0364c.2158.056.39.1386.5252.2472s.2344.2342.3022.3777.1035.3.1075.4693-.0145.3452-.0614.525l-.0234.0916zm4.1857 1.2164c.0388-.15.0606-.2934.067-.4336s-.01-.2682-.047-.385a.716.716 0 0 0-.1979-.3047c-.0938-.0867-.2222-.1507-.3847-.193-.1503-.04-.2852-.0462-.4072-.02s-.2303.0778-.3257.1564-.176.1807-.2448.304-.1212.265-.1624.4222c-.0388.1516-.0614.2975-.0687.437s.0105.2682.05.384a.724.724 0 0 0 .1996.304c.0937.0867.2214.1507.3838.192.148.04.2844.0462.4057.02s.2327-.0762.3264-.1548.1762-.1783.2432-.303.1212-.2658.1624-.4255zm.53.102c-.0573.2245-.1406.424-.25.5973s-.2383.3137-.3894.4207-.3273.175-.5236.2058-.41.0162-.6416-.0437c-.2263-.0584-.4146-.1435-.5657-.2545s-.2658-.2456-.3434-.4036-.1228-.3356-.13-.5333.0194-.4142.0792-.6468c.0574-.2253.1406-.4246.2473-.598s.236-.3144.3886-.4206.325-.175.5212-.205.41-.0154.6432.0454c.2263.0592.4137.1443.565.2545a1.118 1.118 0 0 1 .345.4036c.08.158.122.3355.13.534s-.017.4133-.0768.6443zm2.8896-1.8996l-.0307.0916-.0283.0535-.0267.0243-.033-.0008-.05-.0276-.0703-.05-.1002-.0584-.1422-.0518c-.0743-.0195-.1422-.0244-.202-.013l-.1576.0818c-.046.043-.0864.1046-.122.184s-.0687.1775-.0994.2958l-.0776.3007.615.1597.0387.02.0202.0446.005.0713-.0186.1005c-.0186.0738-.0412.1248-.068.1524l-.0856.03-.615-.1597-.623 2.4184-.0235.038-.0485.0187-.0824-.0017-.1236-.026-.1204-.0373-.0735-.04-.034-.0397-.0016-.0446.623-2.4184-.388-.1005-.0597-.068c-.01-.0373-.0025-.0924.016-.1662l.0307-.0964.0356-.0608.0404-.0292h.046l.387.1013.0743-.2853c.0485-.192.11-.3525.1802-.4806s.1552-.2277.2513-.2966a.672.672 0 0 1 .3265-.1232c.122-.013.2577 0 .4088.04l.203.0738.1446.0834.063.06.0178.056-.0016.0754-.0202.1005m3.174 3.5207a2.663 2.663 0 0 0 .0735-.4173 1.246 1.246 0 0 0-.02-.38c-.025-.1166-.075-.2156-.147-.3s-.1737-.1427-.3054-.1767l-.2004-.02c-.0687.0033-.1414.017-.2182.0414s-.16.0624-.248.1126-.1883.1143-.2934.1937l-.282 1.0966c.0946.2066.194.3703.2958.4927s.2206.2.3588.2367c.126.0332.244.0308.3515-.0065a.712.712 0 0 0 .2836-.188c.0832-.0876.1543-.1913.2133-.3112a1.994 1.994 0 0 0 .14-.373zm.5373.0778c-.0614.2408-.1438.4507-.2456.63s-.22.3217-.3547.4295a1.06 1.06 0 0 1-.4542.2123c-.168.034-.3466.026-.538-.0235-.0816-.02-.1552-.0486-.2198-.0826l-.1842-.1297-.1625-.1832c-.0517-.0697-.105-.15-.16-.2407l-.3555 1.3794-.0234.0397-.0477.0203-.0808-.0016-.127-.026-.1204-.038-.0735-.038-.0323-.0414.0008-.0454.993-3.853.02-.042.0444-.0195.0744.0008.105.0227.1034.0325.0655.034.0307.0397-.0008.047-.0962.3704a2.926 2.926 0 0 1 .2998-.1613c.0953-.0438.1843-.0754.274-.0972a1.198 1.198 0 0 1 .2667-.0325c.0873 0 .177.0122.27.0357.1996.052.3596.1345.48.2488s.2076.2504.2618.4085.0775.3315.0727.5203-.034.3842-.0857.585zm2.286.7692l-.4307-.112c-.14-.0364-.2618-.055-.3693-.0583s-.2012.0097-.2812.038-.143.0713-.1907.1272-.0832.1264-.1042.2c-.0372.1435-.0218.27.0477.3777s.1842.1832.3474.2253c.1325.034.2643.0324.3944-.0057s.2755-.1102.4355-.2172l.15-.585zm.177 1.39l-.0388.0494-.0744.0098-.1276-.0227-.1245-.043-.0622-.0454-.0065-.0608.07-.2755c-.1543.0972-.3135.163-.48.196s-.332.0292-.497-.0146c-.1454-.0373-.2707-.1-.378-.158s-.194-.15-.2578-.2415-.105-.1978-.1244-.3137-.0114-.2407.0226-.3736c.0404-.1548.1066-.282.1996-.38s.2076-.1694.345-.214.2974-.0648.4784-.0575.378.0373.5915.0932l.3797.098.0558-.2148c.0267-.1062.0388-.2034.038-.3s-.0202-.1653-.0558-.2318l-.1624-.1726c-.072-.0486-.1665-.0875-.2828-.1175-.1245-.0324-.24-.047-.345-.043a1.894 1.894 0 0 0-.286.0308l-.2117.0503-.1228.0154-.0396-.0235-.0227-.0454-.0032-.0673.0146-.086.042-.1183.0743-.0713c.034-.0195.0897-.038.1657-.0568s.1624-.0307.2577-.0372a2.272 2.272 0 0 1 .3063.0008 1.814 1.814 0 0 1 .3224.0518c.1972.052.3596.1176.4864.1986s.223.176.286.2853.097.2326.1026.3712-.0137.2942-.0582.466l-.48 1.86z"/>
                    <path d="M114.834 52.03c-.0364.1403-.0946.2594-.1754.3566a.773.773 0 0 1-.2933.2213c-.1155.05-.2448.0786-.3862.0835s-.2933-.0146-.4525-.055a1.778 1.778 0 0 1-.2731-.0957c-.085-.038-.1592-.0786-.224-.12l-.1592-.12-.0896-.0972-.0267-.098.0234-.1548.0315-.0964.0315-.06.0348-.0284.0412-.0008.09.0665.1382.133c.0565.0494.1244.1.2044.15s.1778.1.2925.12c.0857.022.165.0332.2392.0332a.591.591 0 0 0 .202-.035l.152-.106c.042-.0478.0727-.1094.0913-.1856s.0178-.1475-.008-.2107l-.1212-.1824c-.055-.0575-.1187-.1135-.1923-.166l-.2262-.1646a2.713 2.713 0 0 1-.2239-.1839 1.017 1.017 0 0 1-.1793-.218c-.0493-.0803-.0817-.1702-.0994-.2675s-.01-.21.0226-.3315a.8.8 0 0 1 .143-.295.737.737 0 0 1 .2545-.2115c.1035-.0527.2223-.086.3588-.098s.2893.0025.4566.0462a1.309 1.309 0 0 1 .2149.0754l.1875.0973.1357.0988.0792.08.0323.0543.004.0454-.004.06-.0177.0843-.0275.0892-.0315.0583-.0348.0292-.0363.0016-.07-.0543-.1164-.107-.1745-.1223c-.0695-.0422-.152-.0746-.2473-.0997-.0848-.0227-.1632-.0325-.2335-.03l-.1818.0413-.1277.103-.0727.1508c-.02.0802-.0178.1515.01.2172l.122.1832a1.377 1.377 0 0 0 .1955.1685l.2287.167.2262.183a1.007 1.007 0 0 1 .1851.2148c.0485.0778.0824.1653.1002.2618s.0105.2034-.0194.3217m2.447.6335c-.0356.14-.0946.2602-.1746.3566a.798.798 0 0 1-.294.2213c-.1154.0513-.244.0786-.3863.0835s-.2925-.0138-.4525-.055c-.0977-.026-.1882-.0576-.273-.0957s-.1592-.0786-.2238-.12l-.1592-.12-.0897-.0972-.0266-.098.0242-.154.0315-.0964.0315-.0608.0348-.0284.0404-.0008.0897.0673.138.132c.0558.0494.1237.1.2045.15s.177.0908.2917.12c.0856.0227.1648.0332.2392.0332s.1414-.0122.202-.035l.152-.106c.042-.0478.0727-.1094.092-.1856s.017-.1475-.01-.2107l-.1212-.1824c-.055-.0584-.1188-.1135-.1923-.1653l-.2263-.1654c-.0783-.0575-.152-.1183-.223-.184s-.1317-.1386-.1802-.218-.0816-.17-.0986-.2674-.0097-.21.022-.3315a.8.8 0 0 1 .143-.295.723.723 0 0 1 .2545-.2115c.1026-.0535.223-.086.3596-.098s.2885.0024.4557.0462c.0736.0195.1455.0438.2158.0754l.1866.0972.1358.0997.08.08.0323.0543.004.0445-.0048.0592-.0178.0835-.0275.1-.0315.06-.0347.0284-.0364.0016-.07-.0543-.1155-.107-.1754-.1224c-.0695-.042-.152-.0745-.2472-.0996-.085-.022-.1633-.0325-.2336-.03l-.18.0413-.1284.103-.072.1508c-.0218.0802-.0185.1523.008.2172l.1228.183c.0542.0584.1188.1143.1948.1686l.2287.167.2262.183c.0735.065.135.1362.185.2148a.749.749 0 0 1 .1001.261c.0178.0964.0122.2042-.0193.3225m2.7915-.244c.0743-.2634.0686-.488-.0162-.67s-.2497-.3072-.493-.3696c-.126-.0324-.2408-.038-.3475-.0154a.742.742 0 0 0-.2852.1256c-.084.0608-.156.1394-.2174.2326a1.19 1.19 0 0 0-.1414.3088l1.5006.4zm.4686.282c-.02.0794-.0557.1312-.1042.154l-.1495.0154-1.8108-.4692c-.0396.1532-.0598.295-.0606.4255s.0226.2488.072.3558.1252.1977.227.2747.2368.1362.4024.18c.13.034.2505.0535.3588.0584s.2028.004.2836-.0025l.2037-.0243.1163-.0048.0356.02.0186.0397-.0016.0633-.0194.094-.02.068-.0202.0502-.0266.0373-.0372.0284-.113.03c-.0614.0106-.1398.017-.2327.0195s-.2012-.0033-.3216-.013-.2457-.0332-.3758-.0664c-.2262-.0584-.416-.142-.5696-.2497s-.2732-.2382-.3564-.393-.1317-.334-.1422-.5374.0162-.4287.0808-.6783c.0606-.2375.1454-.4425.256-.6152s.2392-.3112.3887-.4133.3127-.167.4945-.1953.3734-.0162.5746.0365c.215.056.3902.1386.5244.2472s.2343.2342.3022.3776.1034.3.11.4693-.0154.3452-.0622.5252l-.0235.0924zm2.749 2.3116l-.0226.038-.0477.0194-.0816-.0016-.1237-.026-.1228-.038-.072-.04-.0323-.04-.0016-.0446.417-1.6152c.0396-.158.0606-.287.0606-.4s-.0145-.1945-.0428-.2763a.499.499 0 0 0-.1406-.2067c-.0655-.056-.1463-.0965-.2448-.1216-.126-.0324-.2643-.02-.413.0365s-.3167.1548-.4993.2926l-.497 1.928-.0226.038-.0477.0187-.0808-.0016-.1268-.026-.1212-.038-.0728-.038-.0323-.0397v-.0437l.71-2.7588.0202-.0398.0436-.0202.0752-.0008.1147.025.1.0332.0638.0365.0283.0397v.0438l-.0945.3655c.1996-.1345.3862-.2213.5616-.2618s.3402-.0413.497-.0008c.1843.0478.3297.12.4388.214s.1883.2042.24.3282.075.2618.0727.4-.03.32-.08.517l-.434 1.6825m2.921-1.276c.0484-.188.034-.3477-.0412-.4798s-.2077-.222-.3984-.2715c-.097-.025-.1867-.0316-.2675-.017s-.1527.043-.214.0875l-.1592.1702a.835.835 0 0 0-.0953.2253c-.046.1824-.0324.3388.0444.4693s.206.2204.392.2682c.0994.026.1907.0325.2715.0203s.1535-.0413.2166-.085l.1567-.166a.793.793 0 0 0 .0946-.2213zm-.3103 2.2515c.0307-.1184.0056-.223-.0736-.312s-.2028-.158-.3668-.205l-.7062-.2083c-.0784.0332-.144.068-.1972.1037l-.1333.1054-.0824.1118-.046.1216c-.0348.1337.0073.2512.1236.3542s.2958.1864.5366.2488c.152.0397.2836.0575.3943.055s.2036-.02.2788-.0535.1357-.0778.1802-.133l.092-.1888zm1.2856-2.7734l-.0687.1475-.0873.0283-.3935-.103c.0517.0924.08.1864.0865.283a.929.929 0 0 1-.0291.2885c-.0412.1588-.1035.2934-.186.4028a.856.856 0 0 1-.2981.2545c-.1164.06-.2457.0956-.388.107s-.2925-.0032-.4517-.0445a1.199 1.199 0 0 1-.3079-.1273c-.093-.056-.1608-.1134-.2044-.1726l-.1228.102-.0768.1532.0542.2042c.0525.064.135.112.2432.1443l.7102.2172c.1358.0397.2562.0908.362.154s.1916.137.2594.2212a.704.704 0 0 1 .1366.2805c.0226.103.0194.2147-.012.3355a.865.865 0 0 1-.173.3412c-.0824.1005-.2.18-.32.2383s-.2885.0915-.4703.0972-.3887-.0202-.6182-.0794c-.2222-.0576-.4064-.1256-.552-.2042s-.2618-.163-.3442-.2545-.1357-.188-.1568-.2902-.0177-.2074.01-.3136l.0752-.1897.1212-.1612.168-.1313c.063-.0398.1333-.0762.2125-.1103-.0865-.077-.1447-.1604-.172-.2504s-.03-.18-.0073-.27c.0323-.1248.0865-.2293.1632-.3144a1.141 1.141 0 0 1 .2578-.2148c-.0445-.0916-.072-.1897-.085-.2942s-.0008-.2245.034-.36c.0412-.158.1034-.2926.19-.4028s.185-.197.3014-.2586.2456-.098.3886-.1102.2925.0024.447.0422a2.025 2.025 0 0 1 .2303.0745l.193.0908.8315.2164.0654.0705-.0145.1613zm2.1817 1.6152c.075-.2634.0695-.487-.0154-.67s-.2496-.3064-.493-.3696c-.126-.0324-.2408-.038-.3474-.0154s-.2012.0648-.286.1256-.155.1394-.2165.2334a1.173 1.173 0 0 0-.1414.308l1.4997.4zm.4695.282c-.02.0794-.0558.1312-.1043.154l-.1495.0162-1.8116-.47c-.0396.1532-.06.295-.0606.4255s.0234.2488.072.3558.1253.1977.228.2747.2367.1362.4024.18c.13.034.2505.0535.3588.0592a2.135 2.135 0 0 0 .2836-.0033l.2036-.0243.1164-.004.0355.0202.0186.0397-.0016.0633-.0202.0948-.0202.068-.0218.0502-.026.0373-.0363.0284-.1132.03c-.0614.0114-.1398.018-.2327.0195s-.202-.0024-.3216-.013a2.273 2.273 0 0 1-.3765-.0664c-.2255-.0584-.4154-.142-.5697-.2497s-.2723-.2382-.3564-.3922-.1317-.3347-.1422-.5382.017-.4287.0808-.6783c.0614-.2375.1463-.4425.2562-.6152s.2392-.3112.3887-.4125a1.19 1.19 0 0 1 .4953-.1953c.1818-.0276.3725-.0162.5745.0357.215.056.3903.1386.5244.2472s.2344.2342.3022.3776.1035.3.1083.4693-.0153.346-.0614.5252l-.0234.0924z"/>
                    <path d="M132.4913 54.6582l-.0315.1126-.0308.07-.034.034-.042.004-.0558-.0292-.072-.0486-.093-.05-.1164-.0437-.1567-.008-.18.0608c-.0663.0332-.14.08-.2182.1434l-.27.2342-.4678 1.8146-.0227.038-.0476.0187-.08-.0008-.1277-.0268-.1204-.038-.0735-.038-.0324-.0397V56.82l.71-2.7588.0202-.04.0445-.02h.075l.1148.0243.1.034.0638.0357.0275.0397v.0438l-.1035.402c.1035-.0908.198-.163.282-.2148s.16-.0908.2295-.115l.198-.0373.18.0227.0897.0276.1.0446.092.0534.0542.047.0177.0357.0016.0373-.0105.0648-.0274.112m-46.8066-5.485l-.88 3.4112c-.1204.4693-.4.83-.8363 1.0828s-.896.317-1.3793.192c-.3-.0754-.5576-.2156-.8032-.4215s-.4937-.5033-.7458-.8923l.3676-1.4256c.0243-.0916.06-.1532.106-.183l.1535-.0244.126.0965c.0266.0494.0274.12.004.2123l-.3248 1.24c.1794.2788.37.5025.573.67s.4177.282.6432.3404c.2513.0648.5034.0656.7587.0008.1915-.0486.3847-.1637.5802-.3453s.3248-.3963.3887-.6443l.88-3.4112-1.5078-.3915c-.0953-.025-.1584-.06-.19-.1053l-.0226-.1556.0954-.1248c.0492-.0252.1212-.0252.2157 0l2.8144.7294c.0913.0235.1527.0583.1834.1037l.0235.1556-.0954.1248c-.0493.0252-.1196.026-.21.0025l-.917-.2383zm5.4947 3.8967c.1616-.628.1252-1.2392-.1-1.8333s-.6408-.9652-1.2177-1.116c-.5406-.1394-1.065-.02-1.5717.3558s-.846.903-1.0197 1.5772c-.185.718-.135 1.356.1495 1.915s.6787.9044 1.183 1.035c.5778.15 1.1127.0227 1.604-.38s.8202-.9215.9826-1.5528zm.3903.1013c-.1333.5146-.3604.9652-.6812 1.35s-.6965.654-1.1248.8048-.8517.1718-1.2702.0632c-.6206-.1613-1.0982-.5673-1.435-1.218s-.3968-1.3907-.1835-2.2182.6255-1.4483 1.233-1.8527 1.2226-.5268 1.8432-.3664c.4185.1086.7773.333 1.0787.6727s.4986.7554.5947 1.248.0784.9977-.055 1.5156zm4.5646 1.262l-2.5534-.6622-.5713 2.2166.518.1337c.092.0244.1527.0592.1834.1046l.0234.1556-.0953.1224c-.0485.0267-.1188.0275-.21.004l-1.34-.3468c-.0914-.0244-.152-.06-.1827-.1062l-.0242-.154.0953-.124c.0493-.026.1196-.026.21-.0024l.4356.1134 1.1878-4.6074-.2384-.0616c-.0945-.0243-.1567-.06-.1874-.1054l-.0243-.1556.0954-.1248c.0493-.0243.1212-.025.2157-.0008l1.1418.2966c.0913.0235.1527.0584.1834.1038l.0234.1556-.0953.1248c-.0493.025-.1196.026-.21.0016l-.5188-.1337-.5163 2.0042 2.5534.6622.5172-2.005-.514-.133c-.0913-.0235-.1535-.0584-.1834-.1037l-.0234-.1556.093-.1257c.0477-.025.1188-.026.2133-.0016l1.1418.2966c.0945.0244.1568.0592.1875.1054l.0242.1548-.0962.1248c-.0484.025-.1204.026-.215.0008l-.2392-.0616-1.187 4.6067.4355.1126c.0922.0243.1528.0592.1835.1046l.0234.1556-.0953.1224c-.0485.0267-.1188.0275-.2118.004l-1.338-.347c-.0913-.0243-.152-.06-.1826-.106l-.0242-.154.093-.1248c.0477-.026.1188-.026.2133-.0017l.514.1338.5713-2.2166zm5.5448 4.2143l-.4953-.1288-1.5967-5.5492-1.14 4.4275.7103.1848c.0945.0243.1576.0592.19.1045l.0226.1557-.0945.1223c-.05.0268-.122.0276-.2166.0033L97.64 57.601c-.0945-.025-.1567-.0608-.1875-.1078l-.0242-.153.0962-.1248c.0484-.0252.1204-.0252.215-.001l.3216.0835 1.187-4.6074-.518-.1338c-.0913-.0235-.1536-.0583-.1835-.1045l-.0234-.1548.0954-.1248c.0492-.025.1195-.026.21-.0024l1.0084.2617 1.6 5.5598 1.1434-4.4365-.7103-.1848c-.092-.0235-.1527-.0583-.1834-.1037l-.0234-.1556.0937-.1256c.047-.025.1172-.026.2133-.0008l1.4198.3687c.093.0235.1535.0584.1842.1038l.0234.1556-.096.1248c-.0485.025-.1188.026-.21.0016l-.325-.0843-1.2872 4.9932zm8.3552 1.7547l1.3987.3623c.3232.0834.6537.0567.9907-.08s.6157-.337.833-.5965.366-.5316.4395-.8202l.1802-.6986c.0615-.24.0784-.462.0493-.6686-.0388-.3015-.1284-.6014-.2666-.8988-.0752-.163-.2053-.33-.3903-.496s-.4016-.283-.65-.347l-1.398-.363-1.1878 4.6075zm-.3846-.1005l1.187-4.6067-.3257-.0842c-.0913-.0235-.1527-.0584-.1834-.1038l-.0234-.1556.0953-.1248c.0493-.025.1196-.026.2117-.0024l2.07.5373c.3248.0843.6028.2286.8355.4328s.3967.4.493.6184c.1664.3533.2707.71.3127 1.0665.0275.2594 0 .5495-.0832.8713l-.1374.5333c-.1018.3955-.2877.756-.5576 1.082s-.6432.5738-1.1215.744c-.354.124-.7297.1346-1.1272.0316l-2.0727-.5373c-.0913-.0243-.152-.0592-.1818-.1062l-.025-.154.0953-.1248c.0493-.0243.1196-.025.2117-.0016l.3257.0843zm9.6973.072c.1632-.628.127-1.2392-.1083-1.8332s-.6416-.9653-1.2193-1.1152c-.5406-.1402-1.0642-.022-1.57.355s-.847.9028-1.0206 1.577c-.186.7173-.135 1.356.1487 1.915s.6795.9045 1.1838 1.035c.577.15 1.1118.0227 1.6047-.38s.8186-.9215.98-1.553zm.3903.1013c-.1325.5147-.3596.9653-.6812 1.35s-.6957.654-1.1232.8047-.8525.172-1.2718.0633c-.6198-.1613-1.0982-.5674-1.4335-1.2182s-.3976-1.3907-.1842-2.2182.6254-1.4483 1.2338-1.8527 1.22-.5268 1.8424-.3663c.4185.1086.778.333 1.0787.6727s.4986.7553.5947 1.248.0776.9976-.0557 1.5155zm2.0055.6038l-.5696 2.2118 2.9615.7675.294-1.1404c.0234-.0923.0582-.153.1026-.1847l.156-.0227.1244.0956c.0242.0486.025.12.0016.2115l-.3935 1.526-4.2495-1.1014c-.0913-.0235-.152-.0592-.1826-.1062l-.0243-.153.0954-.1257c.0493-.0243.1196-.025.2117-.0016l.518.1346 1.187-4.6067-.518-.1345c-.0913-.0235-.1527-.0584-.1834-.1038l-.0235-.1556.0954-.1248c.0493-.025.1196-.025.21-.0016l4.0483 1.0495-.3426 1.3284c-.0243.0924-.0582.1532-.1043.184l-.155.0235-.1244-.0957c-.0243-.0494-.025-.12-.0016-.2115l.2432-.9426-2.7595-.7156-.5188 2.01 1.3802.3574.113-.436c.0234-.0924.0582-.1532.106-.184l.1567-.0227.1228.0957c.0267.0494.0275.12.0033.2115l-.324 1.2595c-.0234.0924-.06.153-.1058.184l-.1527.0244-.127-.0965c-.0267-.0494-.0283-.1208-.004-.2123l.1123-.437-1.3802-.3574zm-50.0464 41.896l-.0315.098-.0388.0616-.0436.03-.0437.0008-1.427-.3704-.3418 1.3283 1.347.3494.0388.0218.025.0438.004.0697-.0202.1054-.0315.0964-.038.0624-.0444.03-.0445.0032-1.3478-.35-.4194 1.6274-.0226.0373-.05.0186-.0824-.0016-.1285-.025-.1212-.0397-.0776-.0397-.034-.0414-.0016-.043.9325-3.6163c.0194-.0778.054-.1272.1042-.15l.143-.0122 1.75.454.037.0227.025.0478.0032.0778-.02.102zm.294 3.9243l-.0218.0372-.046.0187-.08-.0008-.1252-.026-.1188-.0372-.072-.04-.0323-.038.0008-.0438 1.04-4.032.022-.0397.0468-.0195.0816.0008.1212.025.122.038.0703.038.0323.0397v.0454l-1.04 4.033zm1.414.367l-.02.0373-.047.0178-.08-.0008-.1252-.026-.1188-.0373-.072-.038-.0323-.04.0008-.043.6997-2.7166.02-.0365.047-.0202.0816.0024.122.025.1212.038.072.0373.0307.0397.0016.043-.7014 2.7167zm.9947-3.6203c-.03.1175-.0727.1904-.127.222s-.1422.03-.26 0-.1907-.0722-.223-.1232-.034-.137-.004-.252.0727-.1896.1268-.2204.1423-.0308.26-.0008.2.072.223.124.033.136.004.2504zm1.895 2.3665c.0476-.1864.0347-.3428-.0404-.4733s-.2053-.2188-.392-.2666c-.0962-.026-.1835-.0308-.2635-.017s-.1495.042-.21.0867l-.1567.167a.789.789 0 0 0-.0929.2213c-.047.18-.0324.334.0428.4628s.2036.2172.3854.265c.0986.025.1883.0316.2683.0194s.15-.0413.2125-.0835l.1543-.1653c.0412-.0656.0728-.1386.093-.2164zm-.3047 2.2158a.316.316 0 0 0-.0735-.3071c-.0792-.0876-.1988-.1548-.3604-.202l-.6957-.2058c-.0768.034-.1422.068-.194.103l-.13.1038-.0817.1102-.0452.12c-.033.132.0065.2472.122.3493s.29.184.5268.2448c.1512.04.2804.0567.3895.0543s.2004-.0203.2756-.052.1333-.077.176-.1313l.0913-.1864zm1.2654-2.7304l-.0678.145-.085.0275-.3895-.1005c.0517.0908.0808.1832.0865.278a.923.923 0 0 1-.0291.2845c-.0396.1572-.1.2893-.1818.397s-.1794.1913-.2933.2504-.2433.0932-.383.1054-.2885-.004-.4445-.0446a1.176 1.176 0 0 1-.3038-.1248c-.0913-.055-.1584-.1118-.2012-.1702l-.1204.1005-.076.1516.0525.2c.0533.0633.1333.1103.2408.142l.7.214c.1342.0397.252.0892.3564.1524s.19.1345.2545.2172a.68.68 0 0 1 .135.2764c.0234.102.0193.2123-.0114.3306a.867.867 0 0 1-.1696.3356c-.0808.0996-.1875.1783-.316.235s-.2836.1-.463.0956-.3822-.0194-.6085-.0778c-.22-.0575-.4-.1248-.5446-.2s-.256-.1612-.3377-.2504-.1334-.1856-.1544-.286-.0178-.2042.01-.3088l.0735-.188.1204-.158.165-.1297a1.741 1.741 0 0 1 .2093-.1086c-.0857-.0754-.1414-.1572-.17-.2464s-.0307-.1767-.0073-.2658c.0315-.1224.084-.226.16-.3096a1.121 1.121 0 0 1 .2537-.2107.958.958 0 0 1-.0832-.291c-.012-.103-.0008-.2196.033-.3534.0404-.1547.1027-.287.186-.3955s.1834-.1945.2973-.2552.2408-.0965.3822-.1087.2877.0025.4404.0422c.0824.02.1584.0462.2263.073l.1907.0892.8193.213.064.0697-.0146.16zm2.3013 3.3626l-.0234.0373-.0452.0186-.08-.0008-.122-.025-.122-.038-.07-.038-.0315-.04-.0016-.0438.4097-1.59c.0404-.154.0598-.282.0606-.3834s-.0138-.1912-.042-.2715-.0744-.1483-.1382-.2026-.1447-.0956-.2408-.1207c-.1237-.0325-.2602-.0203-.4065.0356s-.312.1524-.492.2877l-.4896 1.9-.022.0373-.0468.0187h-.08l-.1253-.026-.1187-.0373-.0712-.04-.0323-.038v-.0437l1.04-4.032.0202-.0397.0476-.0194.0817.0008.122.025.1212.038.0703.038.0315.0397.0008.0454-.4186 1.6266c.18-.1143.3532-.19.5164-.2253s.3183-.034.4654.004c.1794.047.324.1175.4323.2107s.186.2.2352.3234.0743.256.072.4028-.03.317-.08.5122l-.426 1.6542zm2.3086.3866l-.0477.1353-.0557.0657-.0832.026-.1188.0073-.1374-.0122-.1406-.026c-.1406-.0365-.256-.086-.3466-.15s-.1592-.1403-.2037-.2318-.0662-.2018-.0654-.3242.02-.2634.0614-.4198l.4097-1.5877-.3798-.1-.0598-.0665.0137-.1645.0324-.094.0355-.06.042-.0275h.047l.3757.098.1665-.6467.0202-.0357.0477-.02h.0816l.122.0243.122.04.0695.04.0307.0413.0024.0422-.1664.646.695.1807.0396.02.0218.0446.0032.0705-.0186.098-.0678.15-.085.03-.695-.18-.3903 1.5148c-.0485.1864-.0573.3363-.0275.4465s.118.1824.2602.2197l.127.0186.1042-.004.0784-.0106.0582.0008.0275.0154.013.034-.0008.0608-.0178.0924zm-13.96 3.5507l-.5608 2.1777 1.2994.337c.0905.0227.15.056.18.102l.0226.1532-.093.1208c-.0493.025-.118.0267-.2085.004l-2.2-.568c-.0905-.0235-.1503-.0592-.18-.1046l-.0234-.1515.0945-.1216c.0485-.025.118-.025.2077-.0024l.5107.132 1.1684-4.536-.5107-.1322c-.0897-.0235-.1495-.0575-.1794-.103l-.0242-.1523.1058-.1273c.0404-.0227.106-.02.1964.0024l4.1752 1.082-.337 1.31c-.0234.1-.06.1507-.1042.18l-.15.0243-.1237-.0956c-.0258-.0478-.0274-.1175-.0048-.2083l.24-.928-2.9033-.753-.5 1.9792 1.36.3517.1-.4304c.0243-.0907.06-.15.105-.1807l.155-.022.1204.0932c.026.0495.0275.1184.004.21l-.32 1.24c-.0235.0908-.06.1516-.1043.1808l-.152.0235-.1244-.095c-.026-.0478-.0267-.1183-.004-.21l.1107-.4295-1.3583-.3517m6.4147-.8532l-1.17 4.5362 2.5187.6524.3895-1.5123c.0234-.1.058-.15.1042-.1807l.155-.022.122.0907c.0258.0487.0274.1184.0032.2116l-.488 1.8924-4.1897-1.086c-.0897-.0235-.1495-.0584-.1794-.1046l-.0242-.1507.0953-.1232c.047-.025.1164-.025.207-.0016l.9034.2342 1.1692-4.536-.9034-.2343c-.0905-.0235-.15-.0583-.18-.102l-.0226-.154.0938-.1223c.0484-.0244.118-.0252.2076-.0017l2.2.5674c.0905.0235.1503.0567.18.103l.0234.1532-.0945.1223c-.0485.0244-.1172.0252-.2077.0017l-.9017-.2335m6.149 4.7386l.8573-3.3277-.1988-.05-2.7756 2.83 2.117.5487zm-.0978.3793l-2.5146-.6508.113-.4393 3.0504-3.1073.7894.205-.9567 3.7127.316.0818c.093.0235.155.0584.1858.103l.0226.154-.0937.12c-.0485.0267-.1196.0267-.2125.0032l-.3168-.0826-.31 1.2.316.08c.0937.0243.156.0584.185.1038l.0234.153-.0937.1208c-.0485.026-.1196.0268-.2125.0032l-1.4092-.3655c-.093-.0243-.1536-.06-.1843-.1053l-.0234-.1516.0945-.1224c.0485-.025.118-.025.21-.0008l.7095.1832.312-1.2092zm4.752-2.7223l-.48 1.8608c.2465-.0357.4784-.05.695-.0446s.417.0332.6003.08c.4752.1232.8307.393 1.0642.8113s.2804.9012.1406 1.4467c-.156.6038-.463 1.0455-.9203 1.3275s-.9576.3493-1.5.21c-.358-.0924-.68-.2618-.972-.5082-.206-.1726-.384-.367-.5333-.582-.088-.1296-.1237-.2277-.1075-.2933l.0905-.125.1406-.0226.1414.123c.345.543.7854.8842 1.3203 1.0236.4428.1143.847.0576 1.2145-.17s.615-.5948.745-1.1c.1107-.428.0752-.8056-.1082-1.1314s-.4655-.5382-.85-.638c-.3943-.102-.8145-.1005-1.263.005-.11.0243-.1834.03-.2214.0203l-.118-.0884-.0096-.167.6496-2.5222 2.6456.6865c.0905.0227.1502.0575.18.1045l.022.1556-.093.1208c-.0484.026-.118.0275-.2084.004l-2.265-.5875m4.64 4.9606c-.0275.5794.05 1.0187.236 1.317s.4445.492.7782.5786.6585.03.9656-.1718.5163-.5154.6254-.937c.1-.3963.0663-.7537-.11-1.0763s-.412-.522-.716-.6013c-.2917-.0754-.6052-.0235-.9414.1572-.223.12-.5026.364-.8387.7335zm.0768-.6516c.324-.2853.632-.4798.922-.5803s.59-.1135.893-.035c.4032.1038.7176.3655.9446.782s.274.8745.147 1.3697c-.1164.4522-.366.83-.75 1.1314s-.825.3874-1.3276.257c-.3272-.085-.6084-.265-.8403-.5414s-.3758-.6443-.43-1.1063c-.067-.5746-.0194-1.1784.1438-1.812.1236-.4774.332-.8964.628-1.258.2254-.2788.4896-.5073.792-.6848s.6343-.3007.9938-.3696.7257-.0567 1.0998.0397c.253.0657.45.1718.5915.3185.0606.0633.0816.1338.063.21l-.0848.1208-.1406.0194-.1277-.0818c-.1075-.0924-.253-.163-.4364-.2107-.5874-.1516-1.1878-.038-1.8003.3428s-1 .92-1.1894 1.616c-.026.0997-.0566.2578-.093.4734z"/>
                    <path d="M82.5768 132.3527c-.0477.1864-.1245.3428-.2303.47a1.104 1.104 0 0 1-.3798.2958c-.1463.0697-.3095.1094-.4864.1167s-.3604-.0114-.5503-.0608c-.1325-.034-.252-.077-.3596-.13a2.172 2.172 0 0 1-.2812-.1612c-.0808-.0552-.1462-.1087-.1972-.1597l-.1018-.1208-.0283-.107.0227-.1557.0347-.1.0372-.0673.0404-.03h.046l.1066.0834.1705.1662c.0703.0616.1608.1256.265.1912s.2344.1168.3855.1565c.1155.03.2222.0413.3248.0348s.1956-.0275.2788-.0664.1535-.094.21-.1662.0994-.1605.126-.2642c.03-.1127.0283-.2156-.0016-.308s-.0792-.1815-.1478-.2626-.1487-.1612-.2425-.24l-.3-.24-.2812-.2578a1.454 1.454 0 0 1-.2271-.2974c-.0622-.107-.1034-.226-.1252-.355s-.013-.274.03-.4352.1107-.3047.2037-.4198a.899.899 0 0 1 .3353-.26c.13-.0582.273-.094.433-.102s.3257.0114.497.055a1.656 1.656 0 0 1 .2577.0916c.0847.038.164.0802.2352.1264l.1866.1402.1.1078.0267.056.005.047-.0073.0656-.0218.0956-.03.0965-.0324.07-.037.0356-.0412.004-.0946-.0697-.15-.1427a1.547 1.547 0 0 0-.2206-.162c-.0872-.0535-.2-.0965-.3078-.1265-.1-.0292-.2-.04-.3-.0308s-.1657.0308-.232.0665l-.164.1426c-.0436.0608-.076.1297-.0953.2043-.0283.1-.0267.213.0032.3055s.0808.1807.1487.2642.1495.1645.2448.2432l.29.2407.2853.257c.092.0916.1697.1896.232.2958a1.043 1.043 0 0 1 .1268.3533c.0235.128.0138.2716-.0266.4288m2.7015.0436c.075-.2634.0695-.487-.0154-.67s-.25-.3064-.4937-.3704c-.1252-.0324-.24-.0373-.3458-.0146a.744.744 0 0 0-.286.1265c-.084.0615-.156.1385-.2174.2326s-.1082.197-.1414.308l1.4998.39zm.4686.282c-.0202.0786-.055.1313-.1034.154l-.1495.0154-1.8108-.4693c-.0396.1524-.0606.295-.0606.4255s.0226.2496.07.3558.126.197.228.274.2367.1362.4032.18c.13.034.2497.0543.358.0583l.2845-.0032.2028-.0243.1172-.0033.0355.02.017.04-.0008.0632-.0202.094-.0202.07-.022.0494-.0258.0373-.0364.0284-.113.03c-.0622.0113-.1398.017-.2327.0194s-.202-.0032-.3216-.0137-.2465-.0325-.3766-.0665c-.2254-.0584-.4153-.14-.5696-.248s-.2723-.24-.3564-.394-.13-.333-.1422-.5373.0162-.4288.0808-.6792c.0614-.2374.1463-.4425.2562-.6143s.24-.3112.3878-.4125.3143-.1678.4962-.1954.3725-.017.5745.0357c.215.056.39.1386.5244.2472s.2343.2342.3022.3777.1034.2998.11.4692-.0162.346-.0622.526l-.0243.0916zm2.2763.8485l-.4315-.1126c-.14-.0357-.2618-.0543-.3693-.0576s-.2012.01-.2812.038-.1422.0714-.2.1273-.084.1256-.105.2c-.0372.1418-.02.27.0477.377s.1842.183.3474.226a.732.732 0 0 0 .3943-.0057c.13-.038.2764-.1102.4356-.218l.152-.5844zm.176 1.3892l-.0387.0486-.0744.0105-.1277-.0235-.1252-.042-.0614-.0454-.0073-.0608.07-.2755c-.1535.0972-.312.162-.4783.196s-.332.0284-.4978-.0146c-.1438-.0373-.27-.1-.3773-.1588s-.194-.1476-.2578-.2408a.767.767 0 0 1-.1236-.3136c-.0202-.1167-.0122-.24.0226-.3736.0396-.1556.1066-.2813.1988-.38s.2084-.1702.345-.2148.2974-.064.4784-.0575.378.038.5914.0932l.3798.0988.055-.2147c.0274-.1062.0412-.2035.0388-.2918s-.0186-.1645-.0558-.2318l-.1624-.1726c-.072-.0478-.1665-.0875-.2828-.1175-.1237-.0316-.2392-.0454-.346-.0422s-.2012.0154-.2852.0308l-.2117.0503-.1228.0146-.0396-.0227-.0227-.0454-.0032-.068.0154-.086.042-.1183.0735-.0705c.034-.0187.0897-.04.1665-.0568a1.62 1.62 0 0 1 .257-.038c.0946-.0064.1972-.0056.3063.0008s.2173.026.3224.0535c.197.0503.3596.1167.4864.1978s.223.175.286.2845.0977.2334.1026.37-.0137.295-.0582.467l-.4792 1.86zm2.3507.3906l-.0484.1378-.0566.0673-.0857.0267-.1195.0065-.14-.0122-.143-.0267c-.1422-.0373-.2593-.0867-.3523-.1516s-.16-.1426-.206-.2366-.0687-.2026-.067-.3283.02-.2674.0622-.427l.4162-1.612-.3855-.0997-.0606-.068c-.0105-.0365-.0056-.0932.0138-.1662l.033-.0972.0364-.06.0412-.0284.0477.0008.3822.1.168-.6557.022-.0372.0476-.022h.0833l.1236.026.1244.038.07.0397.0315.043.0017.043-.17.6557.7062.1832.0388.0218.0234.0454.0033.0713-.0202.0997c-.0186.0738-.042.124-.0687.1516l-.085.03-.7062-.1824-.3967 1.5383c-.0493.1904-.06.3412-.0275.4522s.1188.1856.2642.2237l.1285.0194.1058-.004.08-.0105.06.0008.0275.0154.013.0348-.0008.0616-.0178.0932m-10.3607 5.8748c.3135.2513.5277.5398.6424.8648s.1333.6386.0566.94c-.1196.4628-.412.8226-.8776 1.0795s-.9793.312-1.5417.167c-.3305-.086-.6545-.2448-.973-.4782s-.5285-.44-.63-.6248l-.0283-.1743.0865-.115.1398-.022.147.11c.384.4757.8388.782 1.3673.92.4468.116.8565.0722 1.2298-.1296s.6036-.4758.6925-.8194c.0598-.2294.0428-.474-.0477-.7327s-.2602-.4887-.505-.688-.5107-.3364-.795-.4c-.0913-.0235-.152-.0584-.1826-.1038l-.0243-.1556.0938-.1224c.0468-.0275.1-.0308.1858-.0113l.328.1c.3458.1.6585.0583.9373-.095s.454-.3695.526-.6483c.0752-.2886.0227-.573-.156-.8543s-.4574-.4716-.8363-.5705c-.266-.07-.522-.0867-.7685-.0527s-.4582.1143-.6335.2383l-.1414.0843-.0945-.0033-.1196-.0875-.0227-.14c.0315-.1224.2045-.2424.5188-.3607.4372-.1645.8905-.1856 1.3607-.0632.4865.1256.8477.3752 1.0836.75s.3022.7626.198 1.167c-.0663.2577-.2044.4822-.413.6727s-.476.3185-.8024.38m5.718 2.4907l-.3394-3.0854-.1422-.0365-1.756 2.5416 2.2375.5803zm.047.424l-2.5308-.6557-.8808 1.2773.7378.1905c.0913.0243.152.06.1826.1045l.0242.1564-.096.1216c-.0485.0267-.1188.0275-.2.004l-1.44-.3728c-.092-.0235-.1527-.06-.1826-.107l-.0242-.1524.096-.1256c.0485-.0243.1188-.0252.2-.0017l.2982.077 2.888-4.1657-1.1362-.2942c-.093-.0235-.1535-.0584-.1842-.1046l-.0234-.1556.096-.124c.0485-.026.1188-.026.21-.0016l1.9385.5025.5923 5.4795.2982.0778c.0913.0235.1527.0584.1834.1037l.0235.1557-.0954.123c-.0485.026-.1196.0276-.21.004l-1.435-.372c-.0945-.025-.1567-.0608-.1874-.1078l-.0243-.154.0962-.1248c.0485-.0243.1204-.0243.215 0l.7337.1905-.1632-1.5488zm45.3732-.9953l-.0332.1005-.037.07-.0412.034-.043.0016-.1074-.0908c-.047-.0535-.1124-.116-.1964-.1872s-.1866-.146-.3103-.2188-.2763-.1338-.4606-.1808c-.2173-.0567-.4234-.0672-.6173-.0324s-.3693.107-.5252.2164-.2917.2537-.4065.4312-.2004.3793-.2586.607c-.0646.252-.0888.4863-.0678.7s.0735.4052.1632.572a1.237 1.237 0 0 0 .366.4215c.1544.1142.333.1985.5398.252.122.0316.2505.0487.383.05a1.469 1.469 0 0 0 .3838-.0422l.2974-1.1557-.9155-.2374-.0647-.073c-.0088-.0397-.0032-.0948.0154-.1686l.0315-.098.0372-.0624.0428-.03h.0485l1.2557.325.0646.03.0517.0527.025.0786-.0097.1013-.3895 1.5123-.063.1305-.143.073-.2546.0365c-.1026.0097-.2068.0146-.3127.0138s-.2117-.0098-.3167-.0235a2.615 2.615 0 0 1-.3071-.06c-.3062-.0794-.5672-.1978-.783-.355s-.3838-.346-.505-.564-.193-.4627-.2174-.7302.0033-.5535.0808-.855c.0808-.3153.202-.5884.3628-.8186s.35-.415.568-.5495.4614-.2204.728-.257.547-.017.8404.0592c.15.04.2893.0883.4145.15s.2352.1224.33.1848.1705.1232.2295.184l.1196.14.0307.1053-.0226.1548m1.9507 2.7404l-.4315-.1127c-.1382-.0356-.2618-.055-.3693-.0575s-.202.01-.2804.038-.143.0713-.1915.1272-.0824.1256-.1034.2c-.0372.142-.0218.2683.047.377s.185.1832.3482.226c.1317.034.2634.0324.3943-.0057s.2756-.1.4356-.218l.15-.5843zm.176 1.39l-.038.0486-.0744.0106-.1276-.0227-.1253-.043-.0614-.0454-.0073-.0607.07-.2756c-.1535.0973-.3127.162-.48.196s-.332.0284-.497-.0146c-.1446-.0372-.2707-.0907-.3782-.1588s-.193-.1483-.257-.2407a.77.77 0 0 1-.1244-.3137c-.0194-.1167-.0114-.2415.0226-.3736.0404-.1556.1066-.2828.1988-.38s.2084-.1702.3458-.2148.2974-.0648.4784-.0575.378.038.5914.0932l.38.1.055-.2148c.0274-.107.0404-.2042.0396-.29s-.0202-.1662-.0558-.2327l-.1624-.1726c-.0727-.0478-.1665-.0875-.2828-.1175-.1245-.0316-.24-.047-.3467-.042a1.752 1.752 0 0 0-.2844.0308l-.2117.0502-.1228.0146-.0396-.0227-.0227-.0454-.004-.068.0154-.086.042-.1183.0743-.0705c.034-.0203.0897-.04.1657-.0567s.1624-.0316.2577-.038a2.272 2.272 0 0 1 .3063.0008c.11.0073.2157.026.3216.0527.198.05.3604.1167.4872.1985s.2222.175.2853.2845.0977.2334.1026.3712-.013.295-.0582.4668l-.4792 1.86z"/>
                    <path d="M135.7945 147.633l-.0484.1378-.0566.0673-.0856.0267-.1204.0065-.14-.012-.143-.0268c-.143-.0373-.26-.0875-.3515-.1515s-.1616-.1435-.2068-.2367-.068-.2034-.067-.3282.0218-.2675.063-.427l.4162-1.612-.3854-.0997-.0607-.068c-.0105-.0373-.0056-.0932.013-.166l.033-.0965.0364-.0608.042-.0283.0477.0008.3814.0988.1688-.6556.022-.0373.0468-.022h.084l.1236.026.1228.038.072.0398.0307.043.0025.043-.17.6556.7054.1832.0404.022.0234.0454.0017.0713-.0186.0997c-.0186.0737-.042.1232-.0687.1515l-.0857.03-.7054-.1823-.3976 1.5382c-.0484.1905-.058.3404-.0266.4522s.1188.1856.2634.2237l.1293.0195.1042-.004.0816-.0105.0582.0008.0267.0154.0145.0348-.0016.0616-.017.0932m2.812-.815c.0752-.2642.0695-.488-.0153-.67s-.2497-.3072-.4937-.3704c-.1253-.0324-.2408-.0373-.3475-.0146a.755.755 0 0 0-.2852.1256c-.0833.0608-.1552.1394-.2174.2334a1.148 1.148 0 0 0-.1406.308l1.4997.4zm.4687.282c-.0202.0794-.055.1313-.1042.154l-.1487.0154-1.8117-.4693c-.0395.1532-.0597.295-.0614.4255s.0243.2488.0728.3558.1244.1977.227.274.236.137.4024.18c.1317.034.2513.0535.3596.0584s.2028.004.2828-.0032l.2036-.0235.1172-.005.0356.02.0177.0397-.0016.0632-.0194.094-.0202.07-.0218.0494-.0258.0373-.0364.0284-.114.03c-.0614.0105-.14.017-.2336.0194s-.2012-.0032-.32-.0138-.2465-.0324-.3766-.0656c-.2254-.0592-.416-.1427-.5697-.2488s-.2723-.24-.3563-.394-.1325-.334-.1422-.5373.016-.4296.08-.6792c.0622-.2375.147-.4425.257-.6143s.2392-.3112.388-.4126.3143-.1677.4953-.1953.3725-.017.5745.035c.2158.0567.39.1386.5253.248s.2343.2342.3022.3777.1034.3.1083.4692-.0154.3453-.0623.526l-.0234.0916zm-10.4294 4.3515l-1.4076 5.4617 1.3203.342c.0913.0235.1527.0584.1826.1046l.0235.1548-.0946.123c-.0493.0268-.1196.0276-.21.004l-3.026-.7845c-.0913-.0235-.1527-.0592-.1826-.1062l-.0235-.1532.0954-.1256c.0485-.0243.1188-.025.2-.0016l1.3203.3428 1.2703-4.9284-1.3575.0697-.1398-.0073-.1115-.1-.0227-.1508.0792-.1167c.0307-.0186.088-.0308.1713-.04l1.9038-.0997m2.378 6.4434l2.9575.7667.0388-.1516c.0242-.0916.06-.1532.1058-.1832l.1584-.0227.1212.095c.0267.0494.0275.1207.004.2123l-.1382.538-3.7227-.9652.147-.5706 2.8378-1.5593.9034-.5657c.1697-.1256.2933-.243.3717-.3517s.1342-.2253.1657-.3477c.0848-.3307.0274-.6573-.173-.9815s-.488-.5333-.8638-.6305c-.3362-.0875-.6594-.068-.968.0575s-.5398.3218-.7.5868l-.105.124-.1406.013-.1164-.0868-.02-.1402c.038-.1467.1697-.3258.3952-.5357s.4977-.3493.817-.4198.6287-.068.9252.008c.48.1248.8493.3996 1.1086.8226s.3338.847.2247 1.27c-.0453.1775-.1164.334-.2125.4676s-.2368.27-.4218.4-.5026.3403-.955.603l-2.7466 1.5-.0073.0268M104.7955 113.1c.055-.2107.0784-.415.0736-.6103s-.046-.3744-.1237-.5357-.1907-.3015-.3418-.4206-.362-.2132-.63-.282l-.5268-.136-.783 3.0384.5325.1377c.25.0657.4662.0876.653.0697s.354-.076.5018-.175.274-.24.3814-.42.1955-.4012.2642-.667zm.5495.12c-.0865.338-.206.6225-.3572.8526s-.3313.406-.54.5293-.4445.1953-.7063.2155-.56-.0137-.892-.0997l-.8242-.214-.1196-.0802c-.0332-.0422-.0404-.1022-.0194-.1808l.8977-3.4833c.0202-.0786.055-.1273.1042-.1483l.144-.013.8816.2285c.337.0884.6092.205.8193.3542s.3733.3234.49.5284.1834.4336.2044.69-.0065.5284-.0824.8218zm2.1074 1.29l-.4234-.1102c-.1374-.0357-.2586-.0543-.3645-.0576s-.198.0097-.2763.038-.1406.0697-.1875.1248-.0824.1232-.1034.2067c-.0364.14-.02.2642.0468.3712s.1827.1815.3427.222c.13.034.2593.0325.3886-.0048s.2715-.1086.43-.214l.148-.5762zm.1737 1.368l-.0372.048-.0735.0105-.127-.0235-.1212-.0405-.0614-.0462-.0064-.0592.0703-.2715c-.152.0956-.3087.1605-.472.193a1.09 1.09 0 0 1-.4905-.0138c-.1414-.0365-.266-.09-.37-.1564s-.1915-.1467-.2537-.2383-.1043-.1945-.123-.308-.0113-.2374.0227-.368c.0395-.1532.105-.278.1955-.3744s.2052-.1662.3402-.2108.2925-.064.4703-.0567.3733.0365.5842.0916l.3725.0972.054-.2123c.0267-.1037.0404-.1994.0388-.286s-.0194-.162-.055-.2285l-.16-.1702c-.072-.047-.165-.086-.278-.115-.1228-.0316-.236-.0462-.34-.0422s-.1988.0146-.2804.03l-.2093.0495-.1204.0154-.0396-.0227-.0218-.0446-.0032-.0673.0145-.0834.0413-.1176.0727-.0697c.034-.0186.088-.038.164-.056s.1592-.0292.2537-.0373.194-.0064.3014.0017a1.759 1.759 0 0 1 .3168.051c.194.05.3547.115.48.1945s.218.1743.2812.2813.0953.2285.1.3663-.0138.2893-.0574.4587l-.4727 1.8316zm2.316.3842l-.0485.136-.055.0657-.0848.026-.118.0073-.1366-.0113-.1414-.0276c-.1406-.0364-.2553-.085-.3466-.15s-.1584-.14-.2036-.2326-.0663-.2002-.0655-.3242.0218-.2626.0614-.42l.41-1.5877-.38-.098-.0598-.0673.0146-.1645.0323-.094.0355-.0608.042-.0276.0452.0008.3766.0973.1664-.646.0202-.0364.0477-.02.0824.0008.1212.0243.122.038.0695.0397.0307.0414.0025.042-.1665.646.6957.1808.0388.02.0226.0446.0033.0705-.0194.098-.068.15-.084.03-.6958-.18-.3903 1.5147c-.0484.1864-.0565.3356-.0266.4458s.1172.183.2594.2204l.1268.0187.1043-.005.0792-.0097h.0573l.0267.0162.0137.034-.0008.06-.017.0924zm2.7675-.8016c.0743-.26.0687-.4806-.0145-.6613s-.2465-.3015-.4873-.364c-.1228-.0316-.2368-.0373-.3418-.0146s-.198.064-.2796.1232-.1543.137-.215.2294-.1067.1937-.14.304l1.477.3833zm.4614.278c-.0202.077-.054.13-.1018.1508l-.148.0154-1.7825-.4628c-.0396.1516-.06.3-.0598.4198s.0226.2456.07.35.122.1937.223.27.2335.1354.396.1767c.1293.034.248.0535.354.0592s.1995.0032.2795-.004l.1996-.0235.1156-.004.0347.0202.0186.038-.0016.0624-.0194.0932-.02.0673-.02.0494-.026.0373-.0355.0276-.1107.0283c-.0622.0114-.1382.017-.23.0195s-.1972-.0025-.316-.013a2.282 2.282 0 0 1-.3692-.0648c-.224-.0584-.4097-.1394-.5616-.2448s-.27-.235-.3515-.3882-.1285-.33-.14-.5284.0153-.423.0792-.6686c.0598-.2334.1438-.4344.2513-.6054s.2367-.3064.383-.407a1.17 1.17 0 0 1 .488-.1921c.1786-.0283.366-.0154.5657.0365.2117.0543.3846.1353.5163.2415s.2303.2318.2974.372.1026.2958.1074.4636-.0153.3396-.0614.5154l-.0234.0924zm-12.7397 7.873l2.9566.7675.0396-.1523c.0235-.0916.06-.1524.106-.1832l.1576-.0227.122.0948c.0266.0495.0283.1208.004.2124l-.1382.538-3.7226-.9652.147-.5698 2.837-1.56.9042-.565c.1697-.1265.2933-.244.3725-.3526a1.009 1.009 0 0 0 .1648-.3477c.085-.3306.0275-.6572-.173-.9814s-.488-.5333-.8646-.6306c-.336-.0875-.6585-.068-.968.0576s-.54.3217-.6885.5868l-.1058.124-.1406.013-.1172-.0867-.0202-.1394c.038-.1475.1697-.3266.395-.5365s.4978-.3493.8178-.4198.627-.068.9244.01c.4792.124.8484.3987 1.1086.8218s.3337.847.2247 1.27c-.046.1775-.1172.334-.2134.4676s-.2367.27-.42.4-.5026.342-.955.6038l-2.7457 1.51-.008.0275m8.7905-.658c.3144.2513.5277.5398.6432.8656s.1334.6386.0558.9385c-.1188.4636-.412.8234-.8775 1.0803s-.9794.313-1.5418.1662c-.3297-.085-.6545-.244-.972-.4766s-.5284-.4417-.63-.6256l-.03-.1743.0864-.1143.1406-.0227.1463.112c.383.475.8387.7813 1.368.9182.4452.115.855.073 1.23-.1296s.6036-.475.6925-.8186c.06-.2302.0428-.475-.0485-.7335s-.2593-.4887-.505-.688-.5-.3356-.7935-.4093c-.092-.0235-.1535-.0584-.1842-.1046l-.0226-.1548.092-.124c.0485-.0267.1-.03.1858-.0097l.3297.1c.345.09.657.0575.9365-.0957s.454-.3695.526-.6483c.0743-.2877.0226-.573-.156-.855s-.4573-.4716-.8355-.5697c-.266-.07-.5228-.086-.7693-.052s-.458.1127-.6343.2383l-.1406.0827-.0953-.0025-.1188-.0867-.0218-.14c.0315-.1224.2044-.243.518-.3607.4364-.1645.8905-.1864 1.3616-.064.4856.1256.8468.376 1.0836.7497s.3022.7618.197 1.1662c-.0662.2578-.2036.4823-.413.6735s-.4767.3177-.8024.38m3.0077 3.7074l1.3987.3623c.3232.0835.6545.0567.9915-.082s.615-.3363.833-.5957.3644-.5316.4395-.82l.1794-.6987c.0622-.24.0784-.462.05-.6686-.0396-.3015-.1285-.6005-.2666-.8988-.076-.1637-.206-.33-.39-.496a1.528 1.528 0 0 0-.6489-.3477l-1.398-.3622-1.1878 4.6074zm-.3847-.0997l1.188-4.6074-.3265-.0843c-.0913-.0243-.152-.0584-.1826-.1038l-.0242-.1564.096-.124c.0485-.025.1188-.026.2-.0024l2.0726.5373c.324.0843.602.2278.8348.432s.3967.41.493.6192c.1664.3533.2707.71.3127 1.0666.0274.2593 0 .5494-.0825.872l-.1373.5325c-.1026.3955-.2885.7553-.5584 1.082s-.6432.5738-1.1207.744c-.3548.124-.7305.1346-1.128.0316l-2.0718-.5373c-.092-.0243-.1527-.06-.1826-.1062l-.0242-.154.0953-.125c.0485-.0243.1188-.025.21-.0016l.3256.085z"/>
                    <path d="M118.306 125.8893l-.5705 2.2117 2.9615.7683.294-1.14c.0242-.0916.0582-.1532.1034-.184l.156-.0227.1236.0957c.025.0486.026.12.0024.2107l-.3935 1.527-4.2495-1.1014c-.092-.0235-.1527-.0592-.1834-.107l-.0235-.1524.0954-.1256c.0493-.025.1196-.025.21-.0016l.518.1337 1.187-4.6058-.5172-.1345c-.092-.0244-.1535-.0592-.1842-.1038L117.814 123l.0953-.1248c.0485-.0243.1188-.025.21-.0016l4.0467 1.0495-.3418 1.3292c-.0243.0915-.0582.153-.1034.183l-.156.0243-.1236-.0964c-.025-.0486-.026-.12-.0016-.2107l.2424-.9426-2.7595-.7156-.518 2.0083 1.3802.3582.1123-.436c.0234-.0932.06-.154.106-.184l.1575-.0227.122.0948c.0267.0495.0275.12.004.2124l-.324 1.2594c-.0235.0924-.06.1532-.1067.184l-.1527.0235-.127-.0964c-.0267-.0487-.0275-.12-.004-.2124l.1123-.4368-1.3793-.3574m9.1616-.0275l.0703-.2715c.0234-.0924.058-.1532.1034-.184l.155-.0235.1245.0965c.025.0486.0258.12.0016.2115l-.2756 1.0706c-.025.095-.0598.158-.105.188l-.156.0243-.1155-.0892c-.026-.0454-.0307-.1-.0162-.1953.0517-.26-.03-.5252-.2408-.7926-.2836-.3655-.652-.6062-1.1046-.7238-.2965-.077-.5923-.0826-.8888-.0194-.2206.0438-.4065.12-.5584.2277-.2634.1864-.492.41-.686.67-.1406.192-.2464.424-.316.6937l-.1746.675c-.148.5763-.0695 1.1306.2368 1.6623s.7345.8704 1.2848 1.0123c.3297.0867.644.0907.942.0145s.6077-.2285.927-.4562l.1996-.05.1196.0843.017.1418c-.0178.0705-.1107.1605-.2796.2707-.3232.218-.66.3566-1 .4182s-.6852.0494-1.006-.0332c-.278-.0722-.547-.1986-.8065-.38-.1987-.1394-.3563-.2837-.47-.4304s-.2433-.38-.3855-.697-.2222-.595-.2416-.8372.0057-.496.0743-.7626l.203-.7862c.0977-.38.2998-.7424.6052-1.0868s.6618-.577 1.0698-.6986a2.262 2.262 0 0 1 1.2315-.0211c.635.1645 1.1264.5236 1.4723 1.078m4.3766.074l-1.4084 5.4617 1.3204.342c.092.0235.1535.0583.1834.1045l.0234.1556-.0945.1216c-.05.0275-.1204.0284-.2117.004l-3.0253-.7845c-.0914-.0235-.1528-.06-.1835-.1053l-.0234-.154.0953-.1248c.0493-.0244.1196-.0252.21-.0017l1.3204.343 1.2702-4.9292-1.3583.0705-.14-.0073-.1115-.1-.0226-.1507.0784-.1175c.0307-.018.09-.0308.172-.038l1.9037-.0997m6.573 2.4006l.0452-.175-2.7595-.7157-.0872.3404c-.0243.0916-.06.1532-.1035.184l-.156.0235-.122-.0956c-.026-.0495-.0275-.12-.004-.2116l.1883-.73 3.5344.9158-.1592.616-2.83 4.5637c-.0444.0737-.0872.12-.1276.136l-.1245.0097-.1236-.0907-.0218-.1427.0606-.1223 2.7894-4.5046M51.69 67.388l-.488 1.8892c.2513-.0365.4864-.05.7062-.0446s.4234.0333.6.082c.4832.1256.8428.4003 1.08.8242s.2845.915.1422 1.4694c-.16.6135-.4694 1.0617-.935 1.347s-.972.3566-1.5215.214c-.3644-.0948-.6933-.2666-.9874-.5162-.2093-.175-.3895-.373-.5414-.5917-.0897-.1313-.126-.23-.11-.2982l.0913-.1256.1422-.0244.1446.1257c.35.552.7968.898 1.3406 1.04.4493.1167.8606.06 1.233-.1735s.6254-.6038.757-1.1152c.1123-.4352.076-.8185-.1-1.1492s-.4735-.547-.8646-.6484c-.4-.1037-.8274-.102-1.2832.0057-.1.0235-.185.0308-.2246.0203l-.1188-.1-.0097-.1694.6594-2.56 2.686.697c.093.0235.1535.06.1834.1062l.0227.158-.0954.1224c-.0493.026-.1188.0275-.21.004l-2.3005-.5965m99.7973 55.5886l-.0323.1-.0372.064-.0444.0292-.047.0008-1.112-.2885-.8872 3.4396-.0226.04-.05.0186-.0857-.0024-.1293-.025-.1228-.0406-.0784-.0397-.0347-.0405-.0008-.0454.8864-3.4396-1.1127-.2885-.0412-.0235-.0218-.047-.0024-.0738.0186-.1037.0347-.1005.0372-.0664.0428-.0317.0477-.0008 2.7506.7132.0412.0235.0226.0487.0016.0778-.0202.1045zm.0735 3.926l-.0234.038-.047.0194-.0808-.0016-.1268-.0267-.1212-.0373-.0728-.04-.0323-.0397v-.0438l.7103-2.7588.0218-.0373.047-.0194.0832.0008.1236.026.1245.04.0703.0373.033.0413.0008.043-.7103 2.7588zm1.0093-3.6754c-.0307.1183-.0735.1937-.13.2244s-.143.0325-.2642 0-.1924-.072-.2263-.1256-.0347-.1378-.0048-.2536.0743-.1946.1292-.2254.1447-.0316.2643-.0008.1947.073.2278.1265.034.1386.004.2545zm4.0022 4.9754l-.0234.038-.046.0187-.0816-.0016-.1236-.0252-.1236-.04-.0736-.04-.033-.0397-.0016-.0437.4315-1.6777c.03-.116.0477-.2253.0517-.3266s-.0065-.192-.034-.273-.0703-.1492-.13-.2043-.1366-.094-.2303-.1183c-.1156-.03-.244-.0154-.384.0438s-.303.158-.4888.2958l-.497 1.928-.0234.0372-.0485.0195-.0832-.0024-.1236-.0252-.1188-.0372-.0744-.0397-.0323-.04v-.0445l.4323-1.677c.03-.1167.047-.2253.0485-.3266s-.0097-.1945-.0372-.2747-.0687-.15-.1293-.2034-.134-.0932-.2278-.1184c-.1156-.03-.245-.0154-.3863.0438s-.303.1572-.4872.295l-.497 1.928-.0226.04-.047.0186-.0816-.0008-.1268-.0275-.1204-.0373-.0736-.038-.0323-.0397v-.0446l.712-2.758.0194-.04.0444-.02h.0752l.114.0243.1107.0333.064.0364.0266.0398.0008.0437-.0945.3647c.2004-.1337.3838-.222.5495-.265s.3248-.0438.4727-.0057c.1147.03.2133.07.2973.1192s.1544.1078.21.1742a.83.83 0 0 1 .1333.2172c.0333.0786.0534.1645.0647.2545.1172-.077.2262-.1394.3264-.1872s.194-.0835.282-.1062.1705-.0348.2465-.0356a.856.856 0 0 1 .227.0275c.176.0454.3175.1143.4218.21s.1802.2018.227.325.0695.2594.0647.4077-.0267.2998-.067.4546l-.4493 1.745zm3.1845-.9345c.0752-.2642.0695-.487-.0145-.67s-.2497-.3063-.4945-.3695c-.1245-.0325-.2408-.038-.3467-.0146a.72.72 0 0 0-.2852.1256c-.0833.0608-.156.1386-.2174.2326s-.1083.197-.1414.3088l1.4997.3882zm.4687.282c-.0202.0803-.055.1313-.1034.1548l-.1495.0154-1.8117-.47c-.0396.153-.0598.295-.0614.4255s.025.2496.0728.3557.1244.1978.227.2756.2376.1362.4032.18c.13.0332.2505.0535.358.0592l.2844-.0033.2028-.025.118-.0032.0356.0202.017.04-.0016.0632-.0194.095-.0202.068-.0218.0503-.0258.038-.0364.0275-.114.0292c-.0615.0106-.1382.0178-.2336.0195s-.2004-.0033-.32-.0122a2.375 2.375 0 0 1-.3765-.0664c-.2254-.0592-.4153-.1427-.5697-.2497s-.2723-.24-.3563-.393-.13-.3348-.1422-.5374.016-.4295.08-.6783c.0622-.2375.147-.4425.257-.616s.24-.3104.388-.4125a1.202 1.202 0 0 1 .4961-.1953c.18-.0276.3717-.0162.5737.0365.2166.056.392.1385.5253.2463s.2343.235.3022.3777.1034.3.11.47-.0162.3452-.0623.5252l-.0242.0915zm-10.1032 5.8364c.0937-.364.13-.7172.11-1.0584s-.0728-.6208-.1528-.8413c-.0484-.1264-.1244-.244-.227-.3525-.1463-.1532-.328-.257-.5454-.313-.4307-.1126-.825.02-1.1838.3988s-.6125.8615-.7644 1.45l-.22.85c-.0946.364-.13.718-.1 1.06s.0735.624.156.8453c.047.1232.122.24.2247.347.1446.1556.328.2626.5478.3193.4283.11.82-.0235 1.1798-.4028s.614-.864.766-1.4523l.22-.85zm.3975.0503l-.2456.9555c-.214.8307-.58 1.4377-1.1006 1.8187-.4064.3006-.8452.3898-1.3155.2682-.2262-.06-.4274-.1596-.6044-.3023s-.3143-.3128-.413-.5114c-.063-.1248-.118-.312-.1664-.5632s-.0695-.4766-.068-.6752c-.0016-.2812.042-.6.1333-.9514l.2457-.9556c.2157-.8347.5826-1.4426 1.1013-1.8235.4065-.3007.8452-.3898 1.3155-.2674.2303.06.4323.1604.607.3023s.3127.312.4113.5114c.0646.128.1203.3168.1664.568s.0703.474.072.6702c-.0008.2813-.0468.6-.14.9556zm5.5133.8453c-.0008-.6646-.093-1.1403-.2747-1.4272s-.433-.4733-.754-.5568c-.3273-.0843-.6505-.02-.968.1912s-.534.5333-.6456.9653c-.1083.4198-.0743.8.1035 1.137s.42.5486.732.6297c.18.0462.37.043.572-.01s.405-.1564.6117-.313c.1342-.1053.3426-.3104.623-.6175zm-.092.663c-.2893.3007-.594.505-.913.612s-.6222.1224-.9106.0478c-.266-.0688-.5035-.2115-.712-.4303s-.35-.4928-.42-.8267-.063-.6637.0202-.988c.122-.4725.378-.864.7708-1.176s.8315-.4052 1.3204-.2788c.3483.0908.6383.282.8694.5738s.3726.6654.425 1.12c.0687.5835.012 1.2262-.17 1.928-.1406.5455-.345.9766-.6125 1.2927-.1794.2156-.4113.4085-.694.5803s-.5858.2934-.9034.364c-.4355.094-.8606.0867-1.276-.022-.2747-.0713-.4864-.1815-.6335-.3306-.067-.0697-.0905-.14-.072-.2148l.09-.1167.1462-.0187.148.0924c.1042.0892.2335.154.3895.1945.6512.1686 1.27.078 1.86-.2706s.9745-.8778 1.157-1.586l.1212-.547z"/>
                    <path d="M166.02 138.8996l.87-3.3788-.202-.0527-2.8185 2.874 2.1494.5576zm-.0993.3857l-2.5527-.6613.114-.4466 3.0972-3.155.8024.2075-.972 3.77.3216.0826c.0946.0243.1568.0592.1875.1054l.0234.1556-.0953.1224c-.0485.0267-.1204.0275-.2158.0032l-.3208-.0835-.316 1.228.3208.0827c.0945.025.1567.06.1883.1053l.0234.1564-.0954.1216c-.0493.0267-.122.0276-.2165.0032l-1.4294-.3712c-.0954-.0243-.1576-.06-.1883-.107l-.0235-.1532.0954-.1256c.0493-.0243.1204-.0252.2157-.0008l.7192.1872.3168-1.228zm4.8258-2.7653l-.4865 1.89c.2505-.0364.4865-.05.7063-.0454s.4226.034.6.0827c.4825.1248.8428.3996 1.0804.825s.2852.9142.143 1.4685c-.1592.6135-.4703 1.0625-.935 1.347s-.972.3566-1.5223.214c-.3637-.094-.6925-.2666-.9867-.5162-.2092-.175-.3902-.3728-.5413-.5916-.0905-.1313-.127-.2302-.1-.2975l.0913-.1264.143-.0243.1438.1256c.3507.552.7976.8988 1.3414 1.04.4492.1167.8605.0592 1.2322-.1726s.6263-.6046.758-1.116c.1123-.4352.076-.8186-.1-1.1493s-.4735-.547-.8646-.6483c-.4-.1038-.8283-.102-1.2832.0056-.1107.0235-.185.0308-.2246.0203l-.1196-.1-.01-.1693.6594-2.5603 2.686.6962c.0913.0235.1535.0592.1834.1062l.0227.158-.0954.1224c-.0493.0267-.1196.0284-.21.0032l-2.302-.5956M82.327 62.1533l-.0323.0997-.0396.0632-.0453.0292-.0444.0016-1.4488-.3753-.3467 1.3486 1.3688.355.038.02.0267.0446.004.0713-.02.1078-.0315.098-.0388.0616-.046.0308-.0445.0033-1.3688-.355-.426 1.6517-.0234.038-.05.0195-.0848-.0017-.13-.026-.1228-.0397-.0784-.0405-.0348-.0414-.0016-.0445.9462-3.6722c.02-.0795.0566-.1297.106-.1508l.1454-.013 1.7785.46.038.0227.025.0494.0032.077-.0202.1046m2.066 1.6942l-.0324.1127-.0307.07-.033.034-.042.0033-.0558-.0284-.0727-.0486-.092-.052-.1164-.043-.1575-.008-.18.0608c-.0663.0333-.1382.0803-.2174.1427a3.892 3.892 0 0 0-.269.235l-.4678 1.8138-.0235.04-.046.0186-.0816-.0016-.127-.0267-.1204-.0373-.0735-.04-.0315-.04-.0008-.0446.7118-2.7588.0194-.038.0445-.022h.075l.114.0244.1107.034.0638.0357.0275.0405v.0437l-.1043.4012c.1035-.0907.198-.162.2828-.214s.16-.0908.2295-.116l.1972-.0373.1818.0227.09.0283.1.0446.092.0527.055.047.017.0357.0016.038-.0105.064-.0266.1126M86.5928 65.7c.0387-.15.0614-.2934.067-.4336s-.01-.2682-.0468-.385-.1043-.218-.1972-.3048-.223-.1507-.3846-.193c-.15-.0397-.286-.046-.408-.02s-.2295.0778-.3248.1564-.1754.18-.244.304-.1228.265-.1624.4223c-.0396.1515-.063.2966-.0687.4368s.01.2683.0485.3842.106.2172.1996.303.223.1515.3854.1937c.147.038.283.0445.4057.0202s.23-.077.3256-.1548.1754-.1783.2424-.303.1212-.2658.1625-.4255zm.5316.1022c-.058.2244-.1414.4238-.248.5973s-.2384.3136-.39.4206-.3273.175-.522.2058-.4105.0163-.6424-.0437-.4153-.1435-.5656-.2545-.2667-.2456-.3443-.4036-.1228-.3355-.1292-.5333.0177-.414.0775-.6467c.06-.2253.1406-.4247.2473-.6s.236-.3136.3887-.4206.3264-.1742.52-.2042.41-.0154.6432.0454c.2263.0583.4154.1434.5657.2544s.265.2456.3442.4036.122.3356.1317.534-.0178.4134-.0768.6444zm4.4588 2.6588l-.0234.038-.047.0186-.0808-.0008-.1236-.026-.1236-.038-.0736-.04-.034-.0397-.0016-.0446.4323-1.677c.03-.116.047-.2253.05-.3266s-.0065-.193-.033-.274a.467.467 0 0 0-.13-.2034c-.0597-.0544-.1374-.094-.2303-.1184-.1156-.03-.245-.0162-.3838.0438s-.304.158-.49.295l-.497 1.928-.0226.04-.0493.0178-.0832-.0016-.1236-.026-.1188-.0373-.0744-.04-.0323-.0397v-.0438l.4315-1.6768c.03-.116.047-.2253.0493-.3275s-.0105-.1937-.0372-.274-.0695-.15-.1292-.2034-.135-.0948-.2287-.1183c-.1156-.03-.244-.0163-.3855.0437s-.3038.158-.4872.2958l-.497 1.9273-.0226.038-.0477.0195-.0808-.0017-.1268-.0267-.1204-.0373-.0736-.04-.0323-.04v-.0446l.71-2.7588.0194-.04.0452-.02h.0752l.114.0243.1107.034.064.0365.0266.04v.0446l-.0937.3647c.1988-.1338.383-.222.5495-.265s.3232-.0453.4727-.0064c.114.03.2125.0697.2965.12s.1536.1078.2117.1743a.779.779 0 0 1 .1326.2172c.0323.0786.0533.1637.0654.2536.1172-.0762.2263-.1386.3265-.1864s.194-.0835.282-.107a.987.987 0 0 1 .2464-.0356c.0776-.0008.1535.01.227.0275.176.0462.3167.116.4218.21s.1794.2018.227.3258.0687.2594.0647.4077-.0267.3-.067.4547l-.4493 1.744m-14.339 13.2388l-.0323.0997-.0372.064-.0436.0292-.0477.0008-1.1127-.2885-.8856 3.4388-.0234.0397-.05.0186-.0865-.0024-.1285-.025-.1228-.0405-.0784-.0397-.0347-.0405-.0016-.0462.8864-3.4388-1.112-.2885-.0412-.0235-.0226-.047-.0016-.0738.0178-.1037.034-.1005.0388-.0665.0428-.0316.0477-.0008 2.7498.7132.0412.0235.0234.0486.0016.0778-.02.1037m1.4025 2.8024c.0388-.1483.0606-.2933.067-.4336s-.0097-.2682-.047-.384-.1042-.2188-.198-.3047-.2222-.1516-.3846-.1937c-.1503-.038-.2852-.0454-.4072-.0203a.747.747 0 0 0-.3257.1556c-.0954.0778-.176.1807-.244.3047s-.122.265-.1632.4223c-.038.1507-.0615.2966-.0687.4368s.0105.2675.05.3842.105.2164.1996.304.2214.15.3846.192c.147.04.2828.0462.4056.0202s.232-.0753.3257-.154.176-.1792.2432-.3032.1212-.2658.1624-.4263zm.53.1022c-.0574.2253-.1414.4246-.25.598s-.2384.3136-.3895.4198-.3272.175-.5228.2067-.4105.0162-.6424-.0446c-.2262-.0584-.4145-.1427-.5656-.2537s-.2658-.2464-.3434-.4036-.1228-.3355-.13-.5333.0194-.414.0792-.6467c.0573-.2253.1406-.4247.2472-.598s.236-.3145.3887-.4215.3256-.175.5204-.205.4097-.0146.644.0462c.2254.0583.4137.1434.5648.2545s.265.2455.345.4028.1212.3355.13.535-.017.4125-.0768.6435z"/>
                    <path d="M74.0394 88.0754l-1.188 4.6067 2.5575.6637.396-1.5366c.0243-.0916.0598-.1523.106-.1823l.1584-.0235.122.0924c.0266.0486.0283.12.004.2147L75.7 93.832l-4.2544-1.103c-.0913-.0235-.152-.0584-.1834-.1062l-.0234-.1532.0953-.1248c.0493-.025.1196-.026.211-.0016l.917.2375 1.188-4.6067-.9172-.2374c-.092-.0243-.1535-.0592-.1834-.1038l-.0234-.1564.0953-.1248c.0493-.0243.1196-.025.211-.0016l2.2238.5762c.0913.0235.152.0584.1826.1046l.0242.1548-.096.1256c-.0485.025-.1188.025-.211.0016l-.9163-.2375zm7.6667 4.46c.1624-.629.126-1.24-.109-1.8333s-.6408-.9652-1.2177-1.116c-.5414-.1402-1.065-.02-1.571.3558s-.8476.903-1.0205 1.5772c-.186.7172-.1342 1.356.1495 1.915s.6787.9036 1.183 1.035c.577.15 1.112.0227 1.604-.381s.8194-.9215.9818-1.5528zm.3903.1013c-.1326.5146-.3604.9652-.6812 1.35s-.695.654-1.1232.8048-.8525.1718-1.272.0632c-.6205-.1613-1.0973-.5665-1.4326-1.218s-.3984-1.3907-.185-2.2182.6255-1.4483 1.234-1.8527 1.22-.5276 1.8424-.3663c.4177.1086.778.333 1.0787.6718s.4994.7562.5955 1.249.0768.9977-.0565 1.5156zm5.2547-1.1103l.033-.129c.0234-.0916.06-.1524.1034-.1832l.1552-.0243.1252.0973c.0243.0486.0243.1183.0008.2107l-.253.984c-.0242.0916-.0582.154-.1034.184l-.156.0235-.1204-.1c-.025-.0462-.03-.11-.012-.1945.0517-.2618-.0202-.5268-.2166-.7967s-.497-.457-.9-.5616c-.4242-.111-.7903-.0892-1.0973.0656s-.4986.38-.5762.6776c-.0396.1523-.0404.3015-.0024.4457s.105.27.2012.3777.211.205.346.291.3506.1946.6488.3275c.5.2212.8388.402 1.015.543.2352.188.3935.406.4743.6532s.085.513.0105.8015c-.113.4417-.3862.7724-.8185.992s-.9446.253-1.541.099c-.669-.1734-1.15-.5227-1.4416-1.0463l-.0566.2205c-.0242.0915-.058.153-.1034.1848l-.156.0226-.122-.0948c-.0266-.0494-.0274-.1207-.004-.2123l.2747-1.0666c.0243-.0956.0598-.158.106-.1888l.1543-.0235.122.0908c.026.046.0283.1102.0097.1936-.0573.286.0283.582.2546.8875s.5793.521 1.0617.646.897.103 1.2388-.0664.555-.4206.6408-.7513c.0517-.2026.0444-.3963-.022-.582s-.193-.3518-.3806-.4985c-.13-.102-.417-.2528-.8605-.453-.6117-.273-1.0287-.5568-1.2533-.8502s-.2836-.6443-.1786-1.052.3556-.7108.753-.9183.8606-.243 1.39-.1062c.5374.1394.9568.4304 1.2574.8705zm10.2864 5.665l-.3394-3.0854-.1422-.0373-1.756 2.5424 2.2375.5803zm.0476.4238l-2.5308-.6556-.8823 1.2764.7385.1913c.0913.0235.1527.0584.1834.1038l.0235.1556-.0954.123c-.0493.026-.1196.0276-.211.004l-1.439-.3736c-.092-.0243-.1535-.0592-.1834-.1062l-.0243-.154.0962-.124c.0493-.025.1188-.026.211-.0016l.2973.077 2.888-4.1658-1.136-.295c-.092-.0235-.1535-.0583-.1842-.1037l-.0235-.1556.0962-.1256c.0485-.0243.1196-.0252.211-.0017l1.9385.5042.593 5.4795.2973.077c.0913.0235.1528.0583.1843.1045l.0226.1556-.0945.1224c-.0493.0267-.1204.0275-.2118.004l-1.4342-.372c-.0954-.025-.1576-.0607-.1883-.107l-.0234-.154.0953-.1248c.0493-.0244.1204-.0252.2158-.0008l.733.1904-.1625-1.548zm5.789 3.4185l-.4962-.128-1.596-5.5492-1.141 4.4275.7103.184c.0945.0243.1575.06.1882.1045l.0227.1565-.0946.1223c-.0493.026-.1212.0268-.2157.0025l-1.4165-.3672c-.0954-.0243-.1576-.06-.1875-.107l-.0242-.1532.0953-.1256c.0493-.0244.1212-.0252.2158-.001l.3207.0835 1.188-4.6066-.5188-.1346c-.0913-.0235-.152-.0583-.1826-.1037l-.0243-.1556.0962-.1248c.0485-.025.1188-.026.21-.0016l1.0084.2617 1.6 5.56 1.1433-4.4357-.71-.1847c-.0913-.0235-.152-.0584-.1835-.1046l-.0234-.1548.0945-.1248c.047-.026.1172-.0267.2126-.0016l1.4205.368c.092.0243.1527.0584.1834.1046l.0243.1548-.0962.1248c-.0493.026-.1196.026-.211.0016l-.3256-.0835-1.2864 4.9924zm6.3536-.4806l-.4258 1.655c-.3354.0867-.6594.133-.972.1402s-.6157-.0267-.9066-.102c-.412-.1078-.7588-.2626-1.0408-.466s-.5026-.445-.6626-.722-.265-.5666-.315-.8705-.0226-.6662.0856-1.0868l.1826-.7083c.109-.4223.3208-.8064.6336-1.1525s.6763-.578 1.095-.6946.841-.1207 1.2686-.0097c.6206.1613 1.1013.4668 1.4415.9183.038-.15.068-.239.0865-.2667l.0856-.0632.1245-.005.1212.0957c.0267.0494.0275.12.004.2115l-.2246.8737c-.025.0948-.0598.1564-.1067.1856l-.1527.0218-.1155-.0867c-.026-.0437-.03-.11-.0105-.2.0493-.265-.0647-.522-.34-.7707s-.6036-.4206-.9802-.5187c-.354-.0916-.6933-.0973-1.018-.0162s-.669.3063-1.0295.6775c-.2383.2424-.4048.5447-.4977.9053l-.1818.7035c-.165.641-.1002 1.201.194 1.6793s.7846.8064 1.4722.9847c.2328.0607.4542.0915.665.094s.4654-.0235.7636-.077l.3692-1.4297-1.325-.3436c-.0922-.0235-.1536-.0584-.1843-.1045l-.0234-.1548.097-.1273c.0492-.026.1195-.0275.2108-.004l1.8513.4854c.0913.0235.152.0576.1826.103l.0242.1564-.0654.1005-.0994.0454c-.033.0024-.127-.0154-.2796-.0552zm2.4427-.0097l-.5704 2.2118 2.9614.7675.2942-1.1395c.0234-.0924.059-.1532.105-.1848l.1535-.0235.1253.0964c.0258.0495.025.1192.0008.2115l-.3927 1.526-4.2495-1.1022c-.0913-.0235-.1527-.0592-.1826-.1053l-.0243-.154.0954-.1248c.0493-.0244.1196-.0252.211-.0017l.518.1346 1.1878-4.6075-.518-.1337c-.0913-.0243-.1535-.0584-.1842-.1046l-.0227-.1556.0954-.124c.0493-.026.1196-.026.211-.0016l4.0475 1.0496-.3426 1.3275c-.0235.0932-.0574.154-.1027.1848l-.156.0235-.1236-.0957c-.025-.0494-.0267-.12-.0033-.2123l.2432-.9426-2.7594-.7156-.518 2.01 1.3794.3575.113-.437c.0234-.0916.06-.1524.1058-.183l.1576-.0236.1228.0965c.026.0486.0275.12.004.2115l-.3257 1.2595c-.0234.0924-.06.153-.1058.184l-.1528.0244-.126-.0965c-.0275-.0502-.0283-.1207-.004-.2123l.1115-.437-1.3794-.3582zm6.8377-.782l-1.187 4.6067 2.5582.6637.3952-1.5358c.0234-.0916.06-.1532.1066-.184l.1568-.0227.1228.0933c.0275.0478.0283.119.0033.214l-.4954 1.9224-4.2543-1.103c-.0913-.0235-.152-.0592-.1818-.1062l-.0243-.154.0962-.1248c.0477-.0243.118-.025.21-.0016l.9163.2375 1.1878-4.606-.917-.2382c-.0913-.0244-.152-.0592-.1826-.1038l-.0243-.1564.0962-.124c.0485-.025.1188-.026.211-.0024l2.223.577c.0913.0235.1535.0584.1834.1038l.0235.1556-.0954.1248c-.0493.025-.1196.026-.211.0024l-.917-.2383zm4.4297 3.7038l-.5697 2.211 2.9615.7692.2933-1.1412c.0235-.0915.06-.153.1043-.183l.1543-.0235.126.0956c.0242.0486.0242.119.0008.2115l-.3944 1.526-4.2495-1.1022c-.0913-.0235-.152-.0583-.1818-.1062l-.0242-.153.096-.1248c.0477-.0252.118-.026.211-.0017l.5172.1338 1.1878-4.606-.5188-.1345c-.0913-.0235-.152-.0584-.1826-.1037l-.0242-.1557.096-.1256c.0485-.0243.1188-.025.21-.0016l4.0483 1.0495-.3426 1.3292c-.0234.0916-.0573.1532-.1034.184l-.155.0235-.1237-.0957c-.025-.0494-.0266-.12-.0024-.2115l.2424-.9426-2.7595-.7156-.518 2.0083 1.38.3583.1123-.437c.0243-.0924.06-.1532.106-.183l.1576-.0227.122.0948c.0266.0502.0275.12.004.2123l-.324 1.2595c-.0242.0924-.0598.153-.106.184l-.1535.0235-.127-.0964c-.0258-.0486-.0274-.12-.004-.2123l.113-.437-1.38-.3574zm8.882-.2528l.033-.128c.0235-.0916.06-.1532.105-.184l.1543-.0235.1253.0965c.025.0486.0242.119.0008.2107l-.2537.984c-.0235.0916-.0574.154-.1027.1848l-.156.0227-.1204-.0892c-.026-.0462-.0307-.1118-.0113-.1953.05-.26-.0218-.5268-.2174-.7967s-.497-.457-.9002-.5616c-.425-.1103-.79-.0884-1.098.0664s-.4986.3793-.5745.6768c-.0396.153-.0404.3023-.0024.445s.1042.27.2004.3785.211.205.345.2917.3515.1946.6497.3275c.5.2204.838.402 1.014.5422.235.188.3935.4068.476.6532s.0832.5138.0097.8023c-.114.441-.3863.7716-.8177.9912s-.9455.253-1.5418.098c-.669-.1726-1.1498-.522-1.4424-1.0455l-.0565.2213c-.0234.0915-.0574.153-.1026.183l-.156.0243-.1228-.0956c-.026-.0494-.0275-.12-.0032-.2123l.274-1.0666c.025-.0948.0614-.1572.1058-.188l.1552-.0235.1212.09c.0258.0462.0283.1103.0105.1937-.0574.286.0275.582.2537.8875s.5802.521 1.0634.646.8953.1038 1.238-.0664.5543-.4207.64-.7513c.0517-.2018.0452-.3955-.02-.582s-.194-.35-.3806-.4985c-.13-.102-.417-.2528-.8614-.453-.6-.273-1.0286-.5568-1.2524-.8502s-.2837-.6443-.1786-1.052.3555-.71.753-.9182.8597-.243 1.3882-.1054c.5382.1394.9575.4288 1.2573.8697zm11.8936 1.9564l-4.815 5.854c-.0816.0997-.1624.1394-.2457.1175l-.1196-.0923-.0258-.141.0856-.1402 4.8095-5.8547.1317-.1135.1188-.0032.1212.0924.0234.1418-.084.1394zm8.5968 3.357l-1.187 4.6075 2.5574.663.396-1.5358c.0234-.0916.06-.1532.1058-.1832l.1576-.0227.122.0932c.0275.047.029.1184.004.214l-.4953 1.9224-4.2543-1.1038c-.0913-.0235-.152-.0592-.1826-.1062l-.0235-.1532.0954-.1248c.0484-.025.1187-.026.21-.0016l.917.2375 1.1878-4.6067-.917-.2383c-.0913-.0235-.1527-.0575-.1826-.1037l-.0243-.1556.0954-.1248c.0493-.025.1196-.026.211-.0016l2.2237.5762c.0913.0243.1527.0592.1834.1037l.0235.1565-.0954.1248c-.0493.0243-.1196.025-.2117.0016l-.9163-.2383zm6.697 4.734l-.3386-3.0854-.1422-.0365-1.756 2.5416 2.2367.5803zm.0476.424l-2.5308-.6557-.8815 1.2773.7377.1904c.092.0252.1527.0592.1834.1046l.0235.1564-.0954.1216c-.0485.0267-.1188.0275-.211.004l-1.439-.3728c-.092-.0235-.1527-.059-.1826-.106l-.025-.1532.0962-.1256c.0493-.0244.1196-.0252.211-.0017l.2973.0778 2.8888-4.1665-1.137-.2942c-.0913-.0235-.1527-.0584-.1834-.1046l-.0235-.1548.0962-.1248c.0485-.026.1188-.026.21-.0016l1.9393.5025.5923 5.4795.2973.0778c.093.0235.1536.0583.1843.1037l.0234.1556-.0954.1232c-.0484.026-.1195.0276-.2117.004l-1.4342-.372c-.0946-.025-.1568-.0608-.1875-.1078l-.0242-.154.0953-.124c.0493-.025.1212-.025.2158-.0008l.7337.1904-.1633-1.5487zm4.8434.2358l1.2194 2.8423.147.038c.0914.0235.152.0583.1827.1037l.0234.1556-.0953.1232c-.0485.026-.1188.0276-.21.004l-1.2388-.3218c-.0913-.0235-.152-.0583-.1826-.1062l-.0242-.153.096-.124c.0485-.026.1188-.0268.21-.0025l.615.1597-1.0617-2.463-2.1018 1.642.615.1597c.0913.0243.1527.059.1826.1037l.0242.1564-.0945.1224c-.05.026-.1204.0276-.2117.004l-1.229-.3193c-.0913-.0235-.152-.059-.1826-.1053l-.0242-.154.0662-.1054.0994-.042c.0332-.0016.1277.0178.2828.0583l2.416-1.8997-1.1466-2.6858-.1414-.0365c-.092-.0243-.1527-.0592-.1834-.1046l-.0235-.1556.0962-.1248c.0477-.025.118-.025.211-.0016l1.0488.2723c.0954.0243.1576.0592.1883.1046l.0234.1556-.0953.1256c-.0493.0243-.1204.025-.2158 0l-.4307-.1118.989 2.3114L166.313 112l-.4307-.112c-.0945-.0243-.1567-.0592-.1874-.1037l-.0243-.1564.0962-.125c.0485-.0243.1204-.025.215-.0008l1.0545.274c.092.0235.1527.0583.1834.1037l.0243.1556-.0962.1248c-.0493.0252-.1196.026-.211.0016l-.147-.0372-2.2917 1.7935z"/>
                    <path d="M79.3625 68.8535L78.1747 73.46l2.5575.663.396-1.5358c.0242-.0916.0598-.1532.106-.1832l.1575-.0235.1228.094c.0267.047.0283.119.004.214l-.4962 1.9216-4.2535-1.103c-.0913-.0235-.1527-.0592-.1834-.1062l-.0235-.1532.0954-.1248c.0493-.025.1196-.026.211-.0016l.917.2375 1.187-4.6075-.9163-.2374c-.092-.0236-.1535-.0584-.1834-.1038l-.0234-.1556.0953-.1248c.0485-.025.1188-.025.211-.0016l2.2237.5762c.0914.0243.152.0584.1827.1037l.0234.1565-.0954.124c-.0484.025-.1187.026-.211.0016l-.9163-.2375zm7.6667 4.4608c.1625-.629.1253-1.2392-.11-1.8333s-.6416-.966-1.2194-1.116c-.5398-.1402-1.0634-.022-1.5692.3558s-.8476.903-1.0214 1.5772c-.185.7172-.134 1.356.1503 1.915s.678.9036 1.183 1.035c.577.15 1.112.0227 1.604-.3817s.8193-.9207.9817-1.552zm.3895.1005c-.1325.5154-.3596.9652-.6804 1.3518s-.6957.654-1.123.8048-.8533.17-1.272.0624c-.6206-.1605-1.098-.5665-1.4335-1.2173s-.3983-1.3907-.1842-2.22.6254-1.4475 1.233-1.8527 1.2217-.5268 1.843-.3656c.4178.1078.7774.3323 1.078.672s.5.7554.5963 1.248.0768.9977-.0574 1.5156zm4.4774 4.0158l-.4953-.128-1.5967-5.55-1.14 4.4276.7095.1847c.0953.0244.1583.0592.189.1046l.0226.1556-.0946.1224c-.05.0267-.1212.0275-.2165.0032l-1.4165-.367c-.0946-.025-.1568-.0608-.1867-.1078l-.0242-.1532.0953-.1248c.0485-.025.1204-.025.2158-.0008l.3208.0835 1.1878-4.6067-.5188-.1345c-.0913-.0235-.152-.0584-.1826-.1046L88.74 71.08l.0953-.125c.0493-.025.1196-.026.211-.0024l1.0085.2618 1.6 5.5597 1.1434-4.4364-.711-.184c-.0913-.0243-.1527-.0592-.1834-.1045l-.0235-.1556.0946-.125c.0476-.026.118-.026.2125-.0016l1.4205.3688c.092.0235.1527.0583.1835.1037l.0242.1556-.097.1248c-.0485.0252-.1188.026-.21.0017l-.3256-.0843-1.2864 4.9932zm2.7215.2934l1.398.363c.324.0834.6553.0567.9923-.082s.615-.3363.833-.595.3636-.5332.438-.82l.18-.6986c.0614-.239.0776-.4627.0493-.6694-.0396-.3015-.1285-.6006-.2666-.898-.076-.1637-.206-.33-.3903-.496s-.4016-.2828-.6497-.3477l-1.398-.3623-1.187 4.6067zm-.3855-.0997l1.188-4.6066-.3257-.0843c-.092-.0243-.1527-.0592-.1834-.1046l-.0234-.1556.0953-.1248c.0485-.025.1188-.025.211-.0016l2.0718.5373c.3233.0843.6028.2286.8356.432s.396.411.493.6192c.1664.3533.2707.709.312 1.0657.0274.2594 0 .5503-.0824.872l-.1382.5325c-.1018.3963-.2877.756-.5576 1.082s-.6432.5738-1.1207.744c-.3548.1248-.7313.1345-1.128.0316l-2.0718-.5373c-.092-.0235-.1527-.0592-.1826-.1062l-.0242-.1532.0953-.1248c.0493-.025.1196-.026.211-.0016l.3256.0843zm9.6982.072c.1616-.628.1252-1.2392-.109-1.8332s-.6416-.966-1.2185-1.116c-.5406-.1394-1.0642-.021-1.571.3558s-.8468.9028-1.0205 1.577c-.185.7173-.135 1.356.1503 1.915s.678.9045 1.182 1.035c.5778.149 1.1127.0227 1.6048-.381s.8194-.9215.9818-1.553zm.3895.1005c-.1326.5155-.3596.966-.6804 1.352s-.6957.6548-1.124.8048-.8525.17-1.27.0624c-.6206-.1605-1.0982-.5666-1.4343-1.2182s-.3976-1.39-.1835-2.2174.6255-1.4483 1.233-1.8527 1.2218-.5268 1.8424-.3663c.4185.1086.778.333 1.0787.672s.5002.756.5963 1.248.0768.9976-.0573 1.5155zm4.4773 4.0158l-.496-.128-1.596-5.55-1.141 4.4275.7094.1848c.0954.0243.1584.0592.1883.1053l.0234.1548-.0945.1224c-.05.0276-.1212.0284-.2166.0033l-1.4165-.3672c-.0945-.0243-.1567-.06-.1874-.1078l-.0235-.153.0954-.124c.0485-.026.1204-.026.2157-.0008l.3208.0826 1.1878-4.6066-.5187-.1346c-.0913-.0235-.1527-.0583-.1826-.1037l-.0243-.1556.0954-.1248c.0493-.025.1196-.026.211-.0016l1.0084.261 1.6 5.5606 1.1434-4.4373-.711-.1848c-.0913-.0227-.1527-.0575-.1834-.103l-.0234-.1564.0937-.1248c.0477-.025.118-.026.2125-.0016l1.4214.3687c.0913.0235.1527.0584.1834.1038l.0234.1556-.096.1256c-.0485.0243-.1188.025-.21.0016l-.3257-.085-1.2864 4.9932zm12.6702-3.1688l-4.8144 5.854c-.0808.0997-.1632.1394-.2456.1175l-.1196-.0924-.025-.1418.084-.1402 4.8103-5.854.1317-.1134.1188-.004.1204.0932.025.14-.0856.1403zm8.5976 3.357l-1.188 4.6066 2.5583.6638.395-1.5358c.0243-.0916.0598-.1532.1067-.184l.1576-.0227.1228.0932c.0266.0478.0275.119.0032.2148l-.4953 1.9216-4.2536-1.103c-.0913-.0235-.1535-.059-.1834-.106l-.0242-.154.096-.1248c.0493-.0244.1196-.0252.211-.0017l.9172.2375 1.1862-4.6058-.9155-.2383c-.093-.0243-.1536-.0584-.1843-.1037l-.0234-.1565.096-.124c.0485-.025.1188-.026.211-.0024l2.223.577c.0913.0235.1527.0583.1834.1037l.0234.1556-.096.1256c-.0485.0243-.1188.025-.21.0016l-.917-.2382zm6.988 4.3627l-2.5526-.6622-.5713 2.2158.518.1345c.092.0244.1527.0592.1834.1038l.0242.1564-.096.1224c-.0485.026-.1196.0275-.211.004l-1.339-.3477c-.0914-.0235-.1528-.059-.1827-.106l-.0234-.1532.0954-.1248c.0484-.025.1187-.026.2-.0016l.4356.1126 1.1878-4.6066-.2384-.0616c-.0945-.025-.1575-.06-.1882-.1054l-.0227-.1556.0954-.1248c.0485-.025.1204-.025.215-.0008l1.14.2958c.092.0243.1535.0592.1842.1046l.0234.1556-.096.1248c-.0485.0243-.1188.025-.211.0016l-.5172-.1345-.517 2.0042 2.5534.663.5164-2.005-.5132-.133c-.0913-.0235-.1527-.0584-.1834-.1046l-.0242-.1548.0953-.1256c.047-.026.1172-.026.2117-.0008l1.14.2958c.0953.0243.1584.0592.189.1054l.0226.1548-.0953.1248c-.0493.025-.1213.026-.2158.0008l-.2384-.0616-1.187 4.6067.4356.1126c.0913.0243.1527.0592.1834.1037l.0234.1565-.0953.1223c-.0485.026-.1196.0276-.211.004l-1.34-.3477c-.0913-.0235-.1527-.0583-.1826-.1062l-.0234-.153.0937-.1248c.047-.026.1172-.0268.2117-.0017l.514.1338.5705-2.2166zm3.124.6135l1.0497.2723c.336.0875.6577.1053.9632.0535s.5405-.1443.707-.2772.2707-.287.3143-.4587c.0663-.257.0016-.5357-.1963-.8356s-.4824-.4976-.8525-.5933l-1.4165-.367-.569 2.206zm-.1002.3866l-.5187 2.013.71.1848c.0946.0243.1568.0592.1875.1054l.0234.1556-.0953.1216c-.0485.0275-.1204.0283-.215.0032l-1.6136-.4182c-.092-.0243-.1536-.0592-.1834-.1062l-.0235-.154.0954-.124c.0485-.025.1188-.026.211-.0024l.517.1346 1.1878-4.6067-.518-.1337c-.0913-.0243-.1527-.0592-.1834-.1046l-.0227-.1556.0954-.1248c.0485-.025.1188-.025.21-.0016l2.3288.6038c.48.124.8452.3817 1.0957.7715s.324.7765.2254 1.1598c-.071.2764-.2384.5098-.505.7002s-.6586.3064-1.1773.3453c.2254.26.4064.5365.5397.826s.3208.8623.5608 1.7157l.2933.0754c.0922.0243.1528.059.1835.1045l.0234.1556-.0954.1224c-.0484.026-.1195.0276-.211.004l-.513-.133c-.257-.98-.4775-1.6476-.6634-2.0067s-.43-.6637-.7264-.914l-1.2242-.317z"/>
                </g>
            </g>
        </g>
    </svg>
</svg>