<?xml version="1.0" encoding="UTF-8"?>
<svg width="144px" height="144px" viewBox="0 0 144 144" version="1.1" xmlns="http://www.w3.org/2000/svg" xmlns:xlink="http://www.w3.org/1999/xlink">
    <!-- Generator: Sketch 55.2 (78181) - https://sketchapp.com -->
    <title>Group 38 Copy</title>
    <desc>Created with Sketch.</desc>
    <g id="Page-1" stroke="none" stroke-width="1" fill="none" fill-rule="evenodd">
        <g id="First-time-user" transform="translate(-1020.000000, -2428.000000)">
            <g id="Group-38-Copy" transform="translate(1022.000000, 2430.000000)">
                <g id="Group-22">
                    <g id="Group-47">
                        <circle id="Oval" stroke="#4046C1" stroke-width="4" fill="#FFFFFF" cx="70" cy="70" r="70"></circle>
                        <path d="M70,26 C45.699471,26 26,45.699471 26,70 M70,114 L70,114 C94.300529,114 114,94.300529 114,70" id="Shape" stroke="#4046C1" stroke-width="4" stroke-linecap="round" transform="translate(70.000000, 70.000000) rotate(1.000000) translate(-70.000000, -70.000000) "></path>
                        <g id="Group-45" transform="translate(65.169700, 73.458293) rotate(-1.000000) translate(-65.169700, -73.458293) translate(30.669700, 39.958293)">
                            <path d="M5.88212096,32.9490861 L36.557227,3.02870515 C37.90197,1.71704799 39.70609,0.982885591 41.5845943,0.982885591 L68.7009288,0.982885591 L68.7009288,25.6531761 C68.7009288,27.5997115 67.9127847,29.4633078 66.5161438,30.8191819 L34.3920969,62.0055547 C31.5542757,64.7605423 27.0254772,64.7106397 24.2490518,61.893789 L5.78165745,43.157506 C2.99027773,40.3254833 3.02322539,35.7668149 5.85524812,32.9754351 C5.86418276,32.9666287 5.8731404,32.9578457 5.88212096,32.9490861 Z" id="Path-12" stroke="#4046C1" stroke-width="4" stroke-linecap="round"></path>
                            <path d="M13.5710268,35.1967255 L39.0133102,10.4421667 C40.3283926,9.16263201 42.0823668,8.4334484 43.9169668,8.4035586 L58.9016118,8.15942468 L61.307508,8.12022717 L60.7044945,23.9289089 C60.6338197,25.7817285 59.8510789,27.5358584 58.5193046,28.8259408 L32.0935206,54.4244545 C30.5067843,55.9615174 27.9744447,55.9212491 26.4373818,54.3345127 C26.4332637,54.3302616 26.4291551,54.3260013 26.425056,54.321732 L13.4750749,40.8339522 C11.9522489,39.2478848 11.9951053,36.7300486 13.5710268,35.1967255 Z" id="Path-12" fill-opacity="0.0979567308" fill="#4046C1"></path>
                            <g id="Group-46" transform="translate(24.000000, 16.000000)" stroke="#4046C1" stroke-linecap="round" stroke-width="3.5999999">
                                <ellipse id="Oval-Copy-2" cx="25.0606462" cy="13.2162007" rx="4.54545455" ry="4.46428571"></ellipse>
                                <ellipse id="Oval-Copy-3" cx="5.06064622" cy="13.2162007" rx="4.54545455" ry="4.46428571"></ellipse>
                                <path d="M14.6061008,24.8233435 L14.6061008,0.716200656" id="Path-13"></path>
                            </g>
                        </g>
                    </g>
                </g>
            </g>
        </g>
    </g>
</svg>