<?xml version="1.0" encoding="UTF-8"?>
<svg width="224px" height="60px" viewBox="0 0 224 60" version="1.1" xmlns="http://www.w3.org/2000/svg" xmlns:xlink="http://www.w3.org/1999/xlink">
    <!-- Generator: Sketch 55 (78076) - https://sketchapp.com -->
    <title>workplus</title>
    <desc>Created with Sketch.</desc>
    <defs>
        <linearGradient x1="75.2858979%" y1="0%" x2="45.7125369%" y2="85.0230957%" id="linearGradient-1">
            <stop stop-color="#FAD961" offset="0%"></stop>
            <stop stop-color="#F76B1C" offset="100%"></stop>
        </linearGradient>
        <linearGradient x1="43.8524455%" y1="11.4392176%" x2="58.4846431%" y2="103.258769%" id="linearGradient-2">
            <stop stop-color="#FFCD36" offset="0%"></stop>
            <stop stop-color="#F9A13E" offset="48.1245082%"></stop>
            <stop stop-color="#DC5600" offset="100%"></stop>
        </linearGradient>
        <path d="M43.7105576,53.7851565 C36.1052439,59.4178246 26.5383671,60.2952033 18.0297756,58.2555699 C26.7241167,61.4565088 37.6170757,60.4400959 45.9916365,54.2377334 C59.5812126,44.1726418 61.9625685,25.3279201 52.2753766,12.1808417 C47.2213925,5.40288157 39.8022892,1.24453597 31.8784388,0.321782543 C38.7380042,1.84414507 45.9076133,5.18840419 50.4752278,11.1458787 C60.5239298,24.2521516 57.2816081,43.7341178 43.7105576,53.7851565 Z" id="path-3"></path>
    </defs>
    <g id="Logo" stroke="none" stroke-width="1" fill="none" fill-rule="evenodd">
        <g id="White-version" transform="translate(-431.000000, -265.000000)">
            <g id="workplus" transform="translate(431.000000, 264.000000)">
                <path d="M108.386956,38.9539001 L115.358832,11.6232936 L122.985543,11.6232936 L112.109738,52.9247389 L103.841625,52.9247389 L103.605208,52.091511 L96.1622031,25.8592902 C96.0401702,25.4356384 95.9224098,25.001412 95.808912,24.5566025 C95.7052344,24.9643132 95.595736,25.3753517 95.4804233,25.7897112 L87.9768283,52.9247389 L79.8758058,52.9247389 L69,11.6232936 L77.0275411,11.6232936 L77.2497933,12.4823345 L83.8298124,37.9152366 C84.0005242,38.5883746 84.1639185,39.2672797 84.3199972,39.9519522 C84.4704865,39.3428232 84.6277029,38.7509305 84.7916382,38.1763479 L92.2397202,11.6232936 L99.9713225,11.6232936 L100.209446,12.4532962 L107.655621,38.4077093 C107.812321,38.9667502 107.962866,39.53182 108.107257,40.1029186 C108.201281,39.6987926 108.29451,39.3157973 108.386956,38.9539001 Z M153.393667,36.9261046 C153.393667,41.5888617 152.009478,45.5197827 149.241163,48.6644468 C146.441479,51.8447456 142.741265,53.4448481 138.225762,53.4448481 C133.886966,53.4448481 130.465451,52.1546592 128.04224,49.5576898 C125.473932,46.8170575 124.212007,42.8394227 124.212007,37.6773736 C124.212007,33.091763 125.576927,29.218965 128.30613,26.1131662 C131.068915,22.9691522 134.769865,21.3897897 139.322204,21.3897897 C143.530001,21.3897897 146.897552,22.5911939 149.365029,25.0196538 C152.065693,27.7241762 153.393667,31.7137898 153.393667,36.9261046 Z M172.322,21.3319998 C172.744813,21.3319998 173.167549,21.3531668 173.59008,21.3954802 L174.669202,21.5035466 L174.328567,29.0082201 L173.020768,28.7462865 C172.516054,28.6451994 172.033256,28.5951835 171.571802,28.5951835 C167.529265,28.5951835 165.445651,32.2549987 165.445651,40.2201299 L165.445651,52.9247389 L157.961999,52.9247389 L157.961999,21.909899 L165.272528,21.909899 L165.272528,23.0565243 C165.272528,23.492487 165.265674,23.9248605 165.251962,24.3536409 C167.031552,22.3579035 169.400148,21.3319998 172.322,21.3319998 Z M204,52.9247389 L194.462767,52.9247389 L185.57668,40.5438233 L185.57668,52.9247389 L178.093028,52.9247389 L178.093028,8.44484813 L185.57668,8.44484813 L185.57668,32.3946974 L193.981368,21.909899 L203.280396,21.909899 L191.265397,36.2099074 L204,52.9247389 Z M145.679186,37.2150542 C145.679186,30.8964439 143.462665,28.0172843 138.860545,28.0172843 C136.916342,28.0172843 135.363734,28.7065373 134.115748,30.1207092 C132.667099,31.7401171 131.926488,34.0686117 131.926488,37.1572643 C131.926488,43.7493875 134.18898,46.7595637 138.860545,46.7595637 C140.793352,46.7595637 142.339095,46.0414419 143.580035,44.5698273 C144.965986,42.9110799 145.679186,40.4722833 145.679186,37.2150542 Z" id="workplus-logotype" fill="#212121"></path>
                <polygon id="Fill-1" fill="#212121" fill-rule="nonzero" points="202.835169 9.4158941 202.835169 14.6202179 210.622117 14.6202179 210.622117 22.375 215.806514 22.375 215.806514 14.6146545 223.585169 14.6146545 223.585169 9.41376986 215.796905 9.41376986 215.796905 1.625 210.596628 1.625 210.596628 9.4158941"></polygon>
                <g id="logomark" transform="translate(0.970224, 0.952347)">
                    <path d="M30.3088698,0.0808263229 C17.6568698,-0.834173677 6.5248698,6.10582632 1.2768698,16.5188263 C0.779869802,17.5078263 0.352869802,18.5418263 0.159869802,19.6308263 C-0.0331301979,20.7188263 -0.0581301979,21.8378263 0.121869802,22.9788263 C0.717869802,26.7498263 2.9048698,29.3598263 6.3048698,30.9188263 C10.1878698,32.6978263 14.2188698,32.6878263 18.2788698,31.6118263 C23.0978698,30.3348263 27.2408698,27.7718263 31.1068698,24.7028263 C31.1468698,24.6718263 31.1598698,24.6048263 31.2018698,24.5228263 C25.9848698,22.8498263 20.7858698,21.1818263 15.4488698,19.4698263 C16.5928698,18.8338263 17.6238698,18.2858263 18.6278698,17.6968263 C19.6478698,17.0998263 20.8558698,16.9128263 22.0148698,17.1428263 C26.4708698,18.0228263 30.9338698,18.8648263 35.3918698,19.7318263 C36.2188698,19.8928263 37.0738698,19.7308263 37.7878698,19.2818263 C40.1088698,17.8218263 42.4498698,16.3938263 44.7828698,14.9538263 C45.7128698,14.3808263 46.6298698,13.7848263 47.5768698,13.2428263 C48.5908698,12.6628263 49.7668698,13.2078263 49.9708698,14.3208263 C50.0848698,14.9418263 49.8028698,15.4128263 49.3838698,15.8398263 C46.8588698,18.4148263 44.3548698,21.0118263 41.8088698,23.5658263 C41.0128698,24.3638263 40.6368698,25.2308263 40.6548698,26.3788263 C40.7268698,30.8248263 40.7518698,35.2718263 40.7478698,39.7198263 C40.7478698,40.4098263 40.6988698,41.2248263 40.3458698,41.7678263 C39.4658698,43.1168263 38.4018698,44.3448263 37.4098698,45.6208263 C37.3068698,45.5918263 37.3018698,45.5908263 37.1988698,45.5608263 C36.6138698,40.1598263 36.0288698,34.7578263 35.4338698,29.2548263 C35.1278698,29.5058263 34.9068698,29.6758263 34.6988698,29.8608263 C31.4468698,32.7578263 28.2188698,35.6808263 24.9398698,38.5458263 C22.4658698,40.7088263 19.8478698,42.6788263 16.8418698,44.0648263 C13.6618698,45.5318263 10.3448698,46.1288263 6.8668698,45.5898263 C4.8828698,45.2808263 3.0148698,44.5978263 1.2108698,43.3438263 L1.2098698,43.3448263 C6.1218698,53.2148263 16.3058698,59.9998263 28.0788698,59.9998263 C45.2898698,59.9998263 59.1158698,45.5058263 58.0168698,28.0578263 C57.0838698,13.2428263 45.1138698,1.15082632 30.3088698,0.0808263229" id="Fill-3" fill="url(#linearGradient-1)"></path>
                    <mask id="mask-4" fill="white">
                        <use xlink:href="#path-3"></use>
                    </mask>
                    <use id="Clip-2" fill="url(#linearGradient-2)" xlink:href="#path-3"></use>
                </g>
            </g>
        </g>
    </g>
</svg>