<?xml version="1.0" encoding="UTF-8"?>
<svg width="44px" height="55px" viewBox="0 0 44 55" version="1.1" xmlns="http://www.w3.org/2000/svg" xmlns:xlink="http://www.w3.org/1999/xlink">
    <!-- Generator: Sketch 55.2 (78181) - https://sketchapp.com -->
    <title>Group 2</title>
    <desc>Created with Sketch.</desc>
    <defs>
        <rect id="path-1" x="0" y="0" width="56" height="56"></rect>
    </defs>
    <g id="Page-1" stroke="none" stroke-width="1" fill="none" fill-rule="evenodd">
        <g id="iPhone-8-Copy-14" transform="translate(-39.000000, -1132.000000)">
            <g id="Group-33" transform="translate(0.000000, 1096.000000)">
                <g id="Group-2" transform="translate(38.000000, 35.000000)">
                    <mask id="mask-2" fill="white">
                        <use xlink:href="#path-1"></use>
                    </mask>
                    <g id="Mask"></g>
                    <g mask="url(#mask-2)" id="Group">
                        <g transform="translate(2.000000, 2.000000)">
                            <g>
                                <path d="M17.550442,3.4526468 L33.4619845,3.4526468 C33.9624744,3.4526468 34.3682016,3.85837401 34.3682016,4.35886387 L34.3682016,37.4968671 C34.3682016,37.9973569 33.9624744,38.4030841 33.4619845,38.4030841 L17.7243667,38.4030841 C17.5506971,38.245345 17.5145307,37.9860459 17.6383985,37.7867985 C17.9517955,37.2827476 18.1706495,36.71691 18.2949604,36.0892854 C18.447354,35.3198768 18.5290515,34.0971892 18.5400531,32.4212225 C17.6663415,31.3761433 17.0942911,30.5228505 16.823902,29.8613439 C16.5535128,29.1998372 15.9845135,28.4761248 15.116904,27.6902065 L16.823902,16.9881689 L16.6442249,16.9881689 L16.6442249,4.35886387 C16.6442249,3.85837401 17.0499521,3.4526468 17.550442,3.4526468 Z" id="Rectangle" fill="#EFEFF4"></path>
                                <path d="M21.2443947,17.8103986 L25.6988808,17.8103986 C25.5987966,17.1811684 25.3585945,16.6940225 24.9582576,16.3489608 C24.4378197,15.9024103 23.6971965,15.6994328 22.7163712,15.6994328 L21.2443947,15.6994328 C20.8744602,15.6994328 20.574569,15.3995417 20.574569,15.0296072 C20.574569,14.6596727 20.8744602,14.3597815 21.2443947,14.3597815 L29.8731311,14.3597815 C30.2430656,14.3597815 30.5429568,14.6596727 30.5429568,15.0296072 C30.5429568,15.3995417 30.2430656,15.6994328 29.8731311,15.6994328 L26.5154,15.6994328 C26.9357537,16.2677698 27.1959727,16.9781909 27.27604,17.8103986 L29.8731311,17.8103986 C30.2430656,17.8103986 30.5429568,18.1102897 30.5429568,18.4802242 C30.5429568,18.8501587 30.2430656,19.1500499 29.8731311,19.1500499 L27.2360063,19.1500499 C27.1159053,19.8401733 26.8156526,20.4491057 26.3752821,20.9362516 C25.7347431,21.5857796 24.8940357,22.03233 23.833143,22.275903 C23.9932778,22.3976894 24.397786,22.7630489 24.8381565,23.3313858 L28.131632,28.0073801 C28.3021639,28.2494971 28.2441328,28.5840151 28.0020158,28.754547 C27.9116356,28.8182052 27.803789,28.8523731 27.6932405,28.8523731 C27.0427162,28.8523731 26.4302702,28.5456541 26.0406301,28.0247295 L23.0766744,24.0621047 C22.7564049,23.6155543 22.4161186,23.2907903 22.0558154,23.0472174 C21.6554785,22.7630489 21.0149396,22.6209647 20.574569,22.6209647 L20.574569,22.4789531 C20.574569,21.6829933 21.2198219,21.0377404 22.0157817,21.0377404 L22.0157817,21.0377404 C23.2768428,21.0377404 24.2176344,20.8144652 24.8381565,20.3679147 C25.2585103,20.0634485 25.5387461,19.6574936 25.6588471,19.1500499 L21.2443947,19.1500499 C20.8744602,19.1500499 20.574569,18.8501587 20.574569,18.4802242 C20.574569,18.1102897 20.8744602,17.8103986 21.2443947,17.8103986 Z" id="₹" stroke="#3366CC" stroke-width="0.5" fill="#3366CC" fill-rule="nonzero"></path>
                                <path d="M0.315018315,43.3188134 L6.73715419,36.7924269 C7.66673382,35.8477574 8.13611366,34.5434542 8.02166002,33.2230683 L7.89564731,31.7693319 C7.69321121,29.4339428 7.93255882,27.0813204 8.60116802,24.8345484 L11.152351,16.2616386 C11.5397959,14.9596815 12.9093269,14.218323 14.2112839,14.605768 C14.2356749,14.6130264 14.2599517,14.6206629 14.2841056,14.6286748 L14.2841056,14.6286748 C16.4366806,15.269134 16.710335,19.6071524 15.1050687,27.6427301 C18.1672608,31.1974945 18.542799,35.6716203 16.2316832,41.0651076 L34.5090668,41.0651076 C35.7602914,41.0651076 36.7746094,40.0507896 36.7746094,38.7995649 L36.7746094,3.05271469 C36.7746094,1.80149002 35.7602914,0.787172012 34.5090668,0.787172012 L16.5496483,0.787172012 C15.2984236,0.787172012 14.2841056,1.80149002 14.2841056,3.05271469 L14.2841056,10.5238615" id="Path-6" stroke="#3366CC" stroke-width="2" stroke-linecap="round"></path>
                                <path d="M14.3772891,53.2777498 L18.4204335,48.1594176 C19.5117603,46.7778758 21.1281592,45.9120211 22.8829232,45.7690004 L25.7613858,45.5343935 C28.3274392,45.3252492 30.5070309,43.5735541 31.2633361,41.112584 L31.2633361,41.112584" id="Path-7" stroke="#3366CC" stroke-width="2" stroke-linecap="round"></path>
                                <path d="M35.1382255,10.1048419 L40.5739976,10.106129 C41.8251196,10.1064252 42.8392803,11.1205859 42.8395765,12.3717079 C42.8398726,13.6220641 41.8264986,14.635918 40.5761424,14.6362141 C40.575785,14.6362142 40.5754276,14.6362142 40.5750703,14.6362141 L35.1392981,14.634927 C33.8881762,14.6346307 32.8740155,13.62047 32.8737193,12.3693481 C32.8734232,11.1189919 33.8867972,10.1051379 35.1371534,10.1048419 C35.1375108,10.1048418 35.1378681,10.1048418 35.1382255,10.1048419 Z" id="Rectangle" stroke="#3366CC" stroke-width="2" fill="#FFFFFF" stroke-linecap="round" transform="translate(37.856648, 12.370528) rotate(-47.000000) translate(-37.856648, -12.370528) "></path>
                                <path d="M34.5918819,17.2929884 L40.027654,17.2942755 C41.278776,17.2945718 42.2929367,18.3087325 42.2932329,19.5598544 C42.293529,20.8102106 41.280155,21.8240646 40.0297988,21.8243606 C40.0294414,21.8243607 40.029084,21.8243607 40.0287267,21.8243606 L34.5929545,21.8230735 C33.3418326,21.8227773 32.3276719,20.8086166 32.3273757,19.5574946 C32.3270796,18.3071384 33.3404536,17.2932845 34.5908098,17.2929884 C34.5911672,17.2929883 34.5915245,17.2929883 34.5918819,17.2929884 Z" id="Rectangle-Copy-5" stroke="#3366CC" stroke-width="2" fill="#FFFFFF" stroke-linecap="round" transform="translate(37.310304, 19.558675) rotate(-47.000000) translate(-37.310304, -19.558675) "></path>
                                <path d="M35.1538102,23.3276236 L40.5895823,23.3289107 C41.8407043,23.329207 42.854865,24.3433677 42.8551612,25.5944896 C42.8554573,26.8448458 41.8420833,27.8586998 40.5917271,27.8589958 C40.5913697,27.8589959 40.5910124,27.8589959 40.590655,27.8589958 L35.1548829,27.8577087 C33.9037609,27.8574125 32.8896002,26.8432518 32.889304,25.5921298 C32.8890079,24.3417736 33.9023819,23.3279197 35.1527381,23.3276236 C35.1530955,23.3276235 35.1534529,23.3276235 35.1538102,23.3276236 Z" id="Rectangle-Copy-10" stroke="#3366CC" stroke-width="2" fill="#FFFFFF" stroke-linecap="round" transform="translate(37.872233, 25.593310) rotate(-47.000000) translate(-37.872233, -25.593310) "></path>
                                <path d="M36.0203046,29.950126 L39.6441026,29.950984 C40.8952246,29.9512803 41.9093853,30.965441 41.9096815,32.2165629 C41.9099776,33.4669191 40.8966036,34.4807731 39.6462474,34.4810691 C39.64589,34.4810692 39.6455326,34.4810692 39.6451753,34.4810691 L36.0213772,34.4802111 C34.7702553,34.4799148 33.7560946,33.4657541 33.7557983,32.2146322 C33.7555023,30.964276 34.7688762,29.950422 36.0192324,29.950126 C36.0195898,29.9501259 36.0199472,29.9501259 36.0203046,29.950126 Z" id="Rectangle-Copy-13" stroke="#3366CC" stroke-width="2" fill="#FFFFFF" stroke-linecap="round" transform="translate(37.832740, 32.215598) rotate(-47.000000) translate(-37.832740, -32.215598) "></path>
                            </g>
                        </g>
                    </g>
                </g>
            </g>
        </g>
    </g>
</svg>