<?xml version="1.0" encoding="UTF-8"?>
<svg width="128px" height="110px" viewBox="0 0 128 110" version="1.1" xmlns="http://www.w3.org/2000/svg" xmlns:xlink="http://www.w3.org/1999/xlink">
    <!-- Generator: Sketch 55.2 (78181) - https://sketchapp.com -->
    <title>Group 3</title>
    <desc>Created with Sketch.</desc>
    <defs>
        <filter x="-11.2%" y="-13.2%" width="122.5%" height="126.5%" filterUnits="objectBoundingBox" id="filter-1">
            <feOffset dx="2" dy="3" in="SourceAlpha" result="shadowOffsetOuter1"></feOffset>
            <feGaussianBlur stdDeviation="2" in="shadowOffsetOuter1" result="shadowBlurOuter1"></feGaussianBlur>
            <feColorMatrix values="0 0 0 0 0   0 0 0 0 0   0 0 0 0 0  0 0 0 0.314712631 0" type="matrix" in="shadowBlurOuter1" result="shadowMatrixOuter1"></feColorMatrix>
            <feMerge>
                <feMergeNode in="shadowMatrixOuter1"></feMergeNode>
                <feMergeNode in="SourceGraphic"></feMergeNode>
            </feMerge>
        </filter>
        <rect id="path-2" x="0" y="0" width="12.8571429" height="12.8571429"></rect>
        <rect id="path-4" x="0" y="0" width="12.8571429" height="12.8571429"></rect>
        <rect id="path-6" x="0" y="0" width="12.8571429" height="12.8571429"></rect>
        <path d="M9.21428571,1.28571429 L9.21428571,3.19967532 C7.85225993,3.40604696 6.92731596,4.50365283 5.96428571,5.68344156 C4.66392311,7.17918031 3.3635605,8.76623377 0.857142857,8.76623377 L0.857142857,9.7012987 C3.78250546,9.7012987 5.40750546,7.77820629 6.66071429,6.28246753 C7.50041864,5.27617683 8.27483282,4.37946452 9.21428571,4.14935065 L9.21428571,5.96103896 L12,3.62337662 L9.21428571,1.28571429 Z M0.857142857,3.15584416 L0.857142857,4.09090909 C2.66713193,4.09090909 3.82603225,4.88900151 4.84709821,5.91720779 C5.03208729,5.68344156 5.27148461,5.44967532 5.45647321,5.21590909 C4.34291318,4.09456192 2.94642857,3.15584416 0.857142857,3.15584416 Z M9.21428571,6.8961039 L9.21428571,8.70779221 C8.37276786,8.51603096 7.68903471,7.81838462 6.97991071,6.98376623 C6.79492211,7.21753247 6.57003371,7.4512987 6.38504464,7.68506494 C7.20661261,8.63656644 8.06082589,9.47666384 9.21428571,9.65746753 L9.21428571,11.5714286 L12,9.23376623 L9.21428571,6.8961039 Z" id="path-8"></path>
        <path d="M7.72131043,5.96125934 C5.24334394,9.22202356 2.9159705,9.19166487 1.81526948,8.84168096 C1.62544042,8.78132206 -0.283808442,8.13405219 0.15740715,5.7761028 C0.908792321,2.5603214 3.80090328,0.164670725 7.2540348,0.164670725 C11.2783264,0.164670725 14.5406593,3.41836041 14.5406593,7.43199004 C14.5406593,11.4456197 11.2783264,14.6993094 7.2540348,14.6993094 C5.02646936,14.6993094 3.03236445,13.7023942 1.69578087,12.1315012 C2.09149931,12.3031341 2.60744141,12.399992 3.3006607,12.3360285 C5.94277038,11.9739297 7.04180312,9.4891657 8.74340375,7.11649912 C8.8191616,7.01662293 8.89210214,6.9167663 8.96216474,6.81694295 L10.3463129,10.5874046 L10.7802965,9.72010737 C10.8811982,9.51845979 10.9058151,9.28639774 10.8495516,9.06724399 L9.98913702,5.71581882 C9.94804928,5.5557768 9.9717896,5.38602137 10.0551053,5.24411193 L11.4915282,2.79748977 C11.5880381,2.63310696 11.5444015,2.42117507 11.3908313,2.30843053 C11.234991,2.19401937 11.020084,2.21141623 10.8851317,2.34936726 L8.87570063,4.40344923 C8.76868585,4.51284194 8.62508084,4.57806587 8.47276268,4.58645952 L4.98790316,4.77849633 C4.77388384,4.79029008 4.57085845,4.87692705 4.41368528,5.02353215 L3.68875682,5.69971759 L7.72131043,5.96125934 Z" id="path-10"></path>
    </defs>
    <g id="Page-1" stroke="none" stroke-width="1" fill="none" fill-rule="evenodd">
        <g id="iPhone-8-Copy-14" transform="translate(-126.000000, -844.000000)">
            <g id="Group-3" filter="url(#filter-1)" transform="translate(128.000000, 845.000000)">
                <g id="Group-4">
                    <rect id="Rectangle-6" fill="#3970DF" x="4.54747351e-13" y="0" width="120" height="101.571429" rx="6.42857143"></rect>
                    <g id="Group-36" transform="translate(13.285714, 57.857143)">
                        <g id="Group-3">
                            <mask id="mask-3" fill="white">
                                <use xlink:href="#path-2"></use>
                            </mask>
                            <g id="Mask"></g>
                            <g mask="url(#mask-3)" id="Group-2-Copy">
                                <g transform="translate(2.950881, 1.098837)">
                                    <g>
                                        <path d="M0.266927,7.10542736e-15 L1.001953,7.10542736e-15 C1.00074994,0.0113433703 1.00009813,0.0227414385 1,0.0341516571 L1,2.74285714 C0.998299903,2.86650374 1.06145843,2.98151361 1.16529095,3.04384722 C1.26912347,3.10618083 1.3975432,3.10618083 1.50137572,3.04384722 C1.60520823,2.98151361 1.66836676,2.86650374 1.66666667,2.74285714 L1.66666667,0.0341516571 C1.66678487,0.0227525876 1.66635033,0.0113545467 1.66536467,7.10542736e-15 L1.93359367,7.10542736e-15 L2.33528633,7.10542736e-15 C2.33408328,0.0113433703 2.33343147,0.0227414385 2.33333333,0.0341516571 L2.33333333,2.74285714 C2.33163324,2.86650374 2.39479177,2.98151361 2.49862428,3.04384722 C2.6024568,3.10618083 2.73087653,3.10618083 2.83470905,3.04384722 C2.93854157,2.98151361 3.0017001,2.86650374 3,2.74285714 L3,0.0341516571 C3.0001182,0.0227525876 2.99968366,0.0113545467 2.998698,7.10542736e-15 L3.69986967,7.10542736e-15 C3.69986967,7.10542736e-15 4,1.61142857 4,2.74285714 C4,4.69714286 2.56640633,4.38857143 2.56640633,5.14285714 C2.56640633,5.89714286 3,6.58285714 3,8.22857143 C3,9.87428571 2.43333333,10.2857143 2,10.2857143 C1.56666667,10.2857143 1,9.97714286 1,8.22857143 C1,6.48 1.43359367,5.89714286 1.43359367,5.14285714 C1.43359367,4.38857143 3.55271368e-15,4.66285714 3.55271368e-15,2.74285714 C3.55271368e-15,1.02857143 0.266927,7.10542736e-15 0.266927,7.10542736e-15 Z M5.14285714,7.10542736e-15 C6.6,0.857142857 6.85714286,2.39986594 6.85714286,3.29129451 C6.85714286,4.79986594 6,5.52 6,6.51428571 C6,7.09714286 6.28571429,7.54285714 6.28571429,8.57142857 C6.28571429,9.6 6.14285714,10.2857143 5.71428571,10.2857143 C5.28571429,10.2857143 5.14285714,9.87428571 5.14285714,8.22857143 L5.14285714,7.10542736e-15 Z" id="Combined-Shape" fill="#FFFFFF"></path>
                                    </g>
                                </g>
                            </g>
                        </g>
                        <g id="Group-12" transform="translate(19.011428, 1.337140)" fill="#FFFFFF" font-family="SFUIText-Medium, SF UI Text" font-size="7.19112187" font-weight="400" letter-spacing="-0.100675708">
                            <text id="Complimentary-meals">
                                <tspan x="0" y="7">Complimentary meals</tspan>
                            </text>
                        </g>
                    </g>
                    <g id="Shape" transform="translate(13.285714, 75.857143)">
                        <mask id="mask-5" fill="white">
                            <use xlink:href="#path-4"></use>
                        </mask>
                        <g id="Mask"></g>
                        <path d="M9.49186995,1.28571429 C8.61275493,1.28571429 7.88829073,1.94341998 7.84226365,2.76708075 C7.82477335,2.81424701 7.82477335,2.86665384 7.84226365,2.91381988 L7.84226365,3.9689441 C7.84226365,4.83103655 8.58329767,5.53416149 9.49186995,5.53416149 C10.4004422,5.53416149 11.1414762,4.83103655 11.1414762,3.9689441 L11.1414762,2.89285714 C11.1433174,2.87888199 11.1433174,2.86490683 11.1414762,2.85093168 C11.1414762,2.8413237 11.1414762,2.83258934 11.1414762,2.82298137 C11.1423967,2.81337339 11.1423967,2.80463903 11.1414762,2.79503106 C11.110178,1.95914214 10.3801902,1.28571429 9.49186995,1.28571429 Z M2.63569378,1.51630435 C2.5224674,1.50756999 2.41108221,1.52067153 2.29693535,1.55822981 C1.86059987,1.70060176 1.61573632,2.15392092 1.75197612,2.57142857 L3.60041889,8.23136646 C3.81398399,8.88645198 4.45375881,9.33540373 5.17638205,9.33540373 L8.6670668,9.33540373 C9.1199721,9.33540373 9.49186995,8.98253106 9.49186995,8.55279503 C9.49186995,8.12305901 9.1199721,7.77018634 8.6670668,7.77018634 L5.42676872,7.77018634 C5.32274785,7.77018634 5.22885273,7.70380435 5.19847499,7.60947205 L3.3942181,2.08928571 C3.28743555,1.76261657 2.9753727,1.54163426 2.63569378,1.51630435 Z M9.49186995,1.73291925 C10.0635248,1.73291925 10.538523,2.11636263 10.6480672,2.62732919 L8.33567268,2.62732919 C8.44521691,2.11636263 8.92021515,1.73291925 9.49186995,1.73291925 Z M4.83762361,5.75776398 L5.2058393,6.8757764 L7.60660561,6.8757764 C7.73640158,6.8757764 7.84226365,6.77620353 7.84226365,6.65217391 L7.84226365,6.47748447 C7.84226365,6.07919255 7.50350522,5.75776398 7.08373933,5.75776398 L4.83762361,5.75776398 Z M4.60196557,9.55900621 L4.10119223,10.9006211 C4.04411892,11.0543478 4.07541713,11.2290373 4.17483537,11.3618012 C4.27425361,11.4945652 4.43718899,11.5714286 4.60932989,11.5714286 L8.72598131,11.5714286 C8.89812221,11.5714286 9.05369328,11.4945652 9.15311151,11.3618012 C9.25252975,11.2290373 9.28290749,11.0543478 9.22675465,10.9006211 L8.72598131,9.55900621 L8.22520797,9.55900621 L8.77753151,11.0473602 C8.7858163,11.07007 8.77845199,11.0927795 8.77016719,11.1032609 C8.7618824,11.1137422 8.7443921,11.1242236 8.718617,11.1242236 L4.60932989,11.1242236 C4.58355479,11.1242236 4.56606448,11.1137422 4.55777969,11.1032609 C4.54949489,11.0927795 4.54213058,11.07007 4.55041537,11.0473602 L5.0953746,9.55900621 L4.60196557,9.55900621 Z" fill="#FFFFFF" fill-rule="nonzero" mask="url(#mask-5)"></path>
                    </g>
                    <g id="Group-34" transform="translate(13.285714, 39.857143)">
                        <g id="Shape">
                            <g>
                                <mask id="mask-7" fill="white">
                                    <use xlink:href="#path-6"></use>
                                </mask>
                                <g id="Mask"></g>
                                <mask id="mask-9" fill="white">
                                    <use xlink:href="#path-8"></use>
                                </mask>
                                <use fill="#FFFFFF" fill-rule="nonzero" xlink:href="#path-8"></use>
                            </g>
                        </g>
                        <g id="Group-13" transform="translate(18.857143, 2.142857)" fill="#FFFFFF" font-family="SFUIText-Medium, SF UI Text" font-size="7.19112187" font-weight="400" letter-spacing="-0.100675708">
                            <text id="Free-amendments">
                                <tspan x="0" y="7">Free amendments</tspan>
                            </text>
                        </g>
                    </g>
                    <g id="Group-11" transform="translate(32.571429, 78.000000)" fill="#FFFFFF" font-family="SFUIText-Medium, SF UI Text" font-size="7.19112187" font-weight="400" letter-spacing="-0.100675708">
                        <text id="Low-Cancellation-Fee">
                            <tspan x="0" y="7">Low Cancellation Fee</tspan>
                        </text>
                    </g>
                    <g id="Group-32" transform="translate(12.942857, 12.385714)">
                        <g id="Group-7-Copy-2" transform="translate(79.714286, 0.428571)">
                            <circle id="circle" fill="#FFFFFF" cx="7.19112187" cy="7.19112187" r="7.19112187"></circle>
                            <path d="M10.1174698,4.28399974 L9.74980499,4.65947839 C9.6150114,4.79714609 8.67609366,5.78260739 7.71300714,6.79275892 C6.90050361,7.64497273 6.28888432,8.28392016 6.00483002,8.58045811 L4.1860281,7.16491682 L3.77281193,6.84260724 L3.14159981,7.68992979 L3.55481599,8.01225319 L5.7412827,9.71356104 L6.10244014,9.9959994 L6.42455354,9.6670409 C6.55934713,9.52938383 7.49826487,8.54391189 8.46135139,7.53376036 C9.42443792,6.52361202 10.4116932,5.48877026 10.4851346,5.41377448 L10.8527994,5.03828521 L10.1174698,4.28399974 Z" id="Shape" fill="#3366CC" fill-rule="nonzero"></path>
                        </g>
                        <g id="Group-5-Copy" transform="translate(17.194805, -0.000001)" fill="#FFFFFF">
                            <g id="Group-6">
                                <g id="Group-9">
                                    <text id="WORK+-FARE" font-family="SFUIText-Regular, SF UI Text" font-size="5.12914255" font-weight="normal" letter-spacing="-0.164132563">
                                        <tspan x="2.88376623" y="5">WORK+ FARE</tspan>
                                    </text>
                                    <text id="₹4,530" font-family="SFUIText-Semibold, SF UI Text" font-size="9.94937084" font-weight="500" letter-spacing="-0.22473875">
                                        <tspan x="0.690042882" y="14.1428571">₹4,530</tspan>
                                    </text>
                                </g>
                            </g>
                        </g>
                        <g id="Combined-Shape" transform="translate(0.145714, -0.000001)">
                            <mask id="mask-11" fill="white">
                                <use xlink:href="#path-10"></use>
                            </mask>
                            <use id="Mask" fill="#FFFFFF" xlink:href="#path-10"></use>
                            <path d="M1.98859551,10.9412256 C3.29099367,12.8500418 5.49300101,14.1111402 8.00736782,14.1111402 C12.0418475,14.1111402 15.2785292,10.8853437 15.2785292,6.92557663 C15.2785292,5.00800856 14.5662283,3.25931237 13.3733338,1.96562117 C14.3469023,3.20717315 14.9200547,4.78032896 14.9200547,6.48086647 C14.9200547,10.4406335 11.6494627,13.650659 7.61498304,13.650659 C5.32301085,13.650659 3.30458271,12.5864742 1.98859551,10.9412256 Z" fill="#E9E8E7" opacity="0.663667225" mask="url(#mask-11)" transform="translate(8.633562, 8.038381) rotate(683.000000) translate(-8.633562, -8.038381) "></path>
                        </g>
                    </g>
                </g>
            </g>
        </g>
    </g>
</svg>