<?xml version="1.0" encoding="UTF-8"?>
<svg width="44px" height="44px" viewBox="0 0 44 44" version="1.1" xmlns="http://www.w3.org/2000/svg" xmlns:xlink="http://www.w3.org/1999/xlink">
    <!-- Generator: Sketch 55.2 (78181) - https://sketchapp.com -->
    <title>Group 47</title>
    <desc>Created with Sketch.</desc>
    <g id="Page-1" stroke="none" stroke-width="1" fill="none" fill-rule="evenodd">
        <g id="iPhone-8-Copy-14" transform="translate(-44.000000, -1302.000000)">
            <g id="Group-33" transform="translate(0.000000, 1096.000000)">
                <g id="Group-47" transform="translate(44.000000, 206.000000)">
                    <path d="M22,1.25714286 C10.5440363,1.25714286 1.25714286,10.5440363 1.25714286,22 M22,42.7428571 L22,42.7428571 C33.4559637,42.7428571 42.7428571,33.4559637 42.7428571,22" id="Shape" stroke="#3366CC" stroke-width="2" stroke-linecap="round" transform="translate(22.000000, 22.000000) rotate(1.000000) translate(-22.000000, -22.000000) "></path>
                    <g id="Group-45" transform="translate(20.444624, 22.824762) rotate(-1.000000) translate(-20.444624, -22.824762) translate(4.444624, 7.824762)">
                        <path d="M10.4316958,29.1785005 L9.52861012,28.2622657 L1.72563851,20.3456814 C0.409702359,19.010585 0.425234829,16.8614984 1.76033126,15.5455623 C1.7645433,15.5414107 1.76876619,15.5372701 1.77299988,15.5331406 L1.77299988,15.5331406 L16.2341213,1.42781814 C16.8680716,0.809465481 17.7185853,0.46336035 18.6041659,0.46336035 L31.3875807,0.46336035 L31.3875807,12.0936401 C31.3875807,13.0112926 31.0160271,13.8898451 30.3576107,14.5290429 L15.7092168,28.7498623" id="Path" stroke="#3366CC" stroke-width="2" stroke-linecap="round"></path>
                        <path d="M4.51908119,16.6022455 L16.9293508,4.09410099 C17.5666522,3.45177349 18.4340405,3.09049213 19.3388817,3.09049213 L28.231959,3.09049213 L28.231959,11.4404461 C28.231959,12.3386363 27.8759545,13.2002097 27.2419355,13.8364215 L14.3809987,26.7418385 C13.6458539,27.4795258 12.4518875,27.481587 11.7142001,26.7464421 C11.7045463,26.7368216 11.694997,26.7270966 11.6855541,26.717269 L4.49796598,19.2369272 C3.78854685,18.4986131 3.79791976,17.3290945 4.51908119,16.6022455 Z" id="Path-12" fill="#EFEFF4"></path>
                        <g id="Group-46" transform="translate(9.435962, 6.784563)" stroke="#3366CC" stroke-linecap="round" stroke-width="2">
                            <circle id="Oval-Copy-2" cx="12.9957351" cy="6.97815395" r="2.35714286"></circle>
                            <circle id="Oval-Copy-3" cx="2.62430654" cy="6.97815395" r="2.35714286"></circle>
                            <path d="M7.57430654,13.1067254 L7.57430654,0.378153947" id="Path-13"></path>
                        </g>
                    </g>
                </g>
            </g>
        </g>
    </g>
</svg>