<?xml version="1.0" encoding="UTF-8"?>
<svg width="33px" height="42px" viewBox="0 0 33 42" version="1.1" xmlns="http://www.w3.org/2000/svg" xmlns:xlink="http://www.w3.org/1999/xlink">
    <!-- Generator: Sketch 55.2 (78181) - https://sketchapp.com -->
    <title>Group 38</title>
    <desc>Created with Sketch.</desc>
    <g id="Page-1" stroke="none" stroke-width="1" fill="none" fill-rule="evenodd">
        <g id="iPhone-8-Copy-14" transform="translate(-50.000000, -1224.000000)">
            <g id="Group-33" transform="translate(0.000000, 1096.000000)">
                <g id="Group-38" transform="translate(51.000000, 129.000000)">
                    <g id="Group-22">
                        <g id="Group-31">
                            <path d="M2.27755102,37.0224558 L2.27755102,5.92041497 C2.27755102,4.87220106 3.12729629,4.02245579 4.1755102,4.02245579 L26.1918367,4.02245579 C27.2400506,4.02245579 28.0897959,4.87220106 28.0897959,5.92041497 L28.0897959,37.0224558 C28.0897959,38.67931 26.7466502,40.0224558 25.0897959,40.0224558 L5.27755102,40.0224558 C3.62069677,40.0224558 2.27755102,38.67931 2.27755102,37.0224558 Z" id="Path-9" fill="#EFEFF4"></path>
                            <path d="M-5.82645043e-13,34.9841557 L-5.82645043e-13,5.32554364 C-5.82645043e-13,3.22911582 1.69949054,1.52962528 3.79591837,1.52962528 L4.86432256,1.52962528 M25.8035981,1.52962528 L26.4640437,1.52962528 C28.5604715,1.52962528 30.2599621,3.22911582 30.2599621,5.32554364 L30.2599621,34.9841557" id="Shape" stroke="#3366CC" stroke-width="2" stroke-linecap="round"></path>
                            <path d="M8.35138735,1.52962528 C8.35138735,2.37441399 9.03622391,3.05925055 9.88101262,3.05925055 L20.8217621,3.05925055 C21.6665508,3.05925055 22.3513873,2.37441399 22.3513873,1.52962528 C22.3513873,0.684836564 21.6665508,-1.84735272e-15 20.8217621,0 L17.8262266,0 L12.8492055,0 L9.88101262,0 C9.03622391,1.55185169e-16 8.35138735,0.684836564 8.35138735,1.52962528 Z" id="Path-10" stroke="#3366CC" stroke-width="2" stroke-linecap="round"></path>
                            <g id="Group-43" transform="translate(8.351020, 10.647352)" stroke="#3366CC" stroke-linecap="round" stroke-width="2">
                                <g id="Group-39" transform="translate(0.000000, 11.027614)">
                                    <ellipse id="Oval" cx="6.64285714" cy="6.65459484" rx="6.64285714" ry="6.65459484"></ellipse>
                                    <polyline id="Path-11" points="3.19236186 6.74182671 5.23141021 8.78447799 9.78581767 4.22202305"></polyline>
                                </g>
                                <path d="M0,0.190131281 L13.6653061,0.190131281" id="Path-4"></path>
                                <path d="M0,6.27433228 L13.6653061,6.27433228" id="Path-4-Copy"></path>
                            </g>
                        </g>
                    </g>
                </g>
            </g>
        </g>
    </g>
</svg>